<?xml version="1.0" encoding="UTF-8" standalone="no"?>
<svg
   xmlns:dc="http://purl.org/dc/elements/1.1/"
   xmlns:cc="http://creativecommons.org/ns#"
   xmlns:rdf="http://www.w3.org/1999/02/22-rdf-syntax-ns#"
   xmlns:svg="http://www.w3.org/2000/svg"
   xmlns="http://www.w3.org/2000/svg"
   xmlns:sodipodi="http://sodipodi.sourceforge.net/DTD/sodipodi-0.dtd"
   xmlns:inkscape="http://www.inkscape.org/namespaces/inkscape"
   inkscape:export-ydpi="96"
   inkscape:export-xdpi="96"
   inkscape:export-filename="C:\Users\Adams Clark\Green GearHeads\WasteWizer - Documents\WasteWizer Marketing\Logos\Website\DarkBlue-LightGray_NoBG.png"
   inkscape:version="1.0 (4035a4fb49, 2020-05-01)"
   sodipodi:docname="DarkBlue-LightGray_NoBG.svg"
   xml:space="preserve"
   style="enable-background:new 0 0 1920 1080;"
   viewBox="0 0 1920 1080"
   y="0px"
   x="0px"
   id="Layer_1"
   version="1.1"><metadata
   id="metadata1913"><rdf:RDF><cc:Work
       rdf:about=""><dc:format>image/svg+xml</dc:format><dc:type
         rdf:resource="http://purl.org/dc/dcmitype/StillImage" /></cc:Work></rdf:RDF></metadata><defs
   id="defs1911" /><sodipodi:namedview
   inkscape:current-layer="Layer_1"
   inkscape:window-maximized="1"
   inkscape:window-y="-8"
   inkscape:window-x="-8"
   inkscape:cy="622.76926"
   inkscape:cx="642.44095"
   inkscape:zoom="0.77266147"
   showgrid="false"
   id="namedview1909"
   inkscape:window-height="1017"
   inkscape:window-width="1920"
   inkscape:pageshadow="2"
   inkscape:pageopacity="0"
   guidetolerance="10"
   gridtolerance="10"
   objecttolerance="10"
   borderopacity="1"
   bordercolor="#666666"
   pagecolor="#ffffff" />
<style
   id="style1784"
   type="text/css">
	.st0{fill:#5B575D;stroke:#5B575D;stroke-miterlimit:10;}
</style>
<g
   style="fill:#070740;fill-opacity:1"
   id="g1790">
	<path
   style="fill:#070740;fill-opacity:1"
   id="path1786"
   d="M511.58,594.7c-1.14,0-2.23-0.56-3.14-1.61c-1.15-1.33-2.19-2.99-3.09-4.93c-6.8-14.75-13.51-29.46-19.75-43.16l-0.59-1.3   c-7.06-15.52-14.37-31.58-21.49-47.39c-1.11-2.46-2.22-4.91-3.33-7.36c-3.98-8.76-8.09-17.81-11.74-26.87   c-2.08-5.17-3.44-10.75-4.76-16.15c-0.24-1-0.49-2.01-0.74-3.01c-0.84-3.4,0.79-5.99,4.36-6.95c0.89-0.24,1.93-0.35,3.18-0.36   l2.11-0.01c2.8-0.02,5.59-0.03,8.39-0.03c2.74,0,5.48,0.01,8.22,0.06c4.55,0.07,6.47,1.63,6.85,5.55   c1.23,12.74,6.42,24.29,11.43,35.46c0.66,1.47,1.32,2.94,1.97,4.41c6.71,15.18,13.73,30.52,20.52,45.36   c2.09,4.56,4.17,9.12,6.25,13.68c1.41,3.1,2.94,6.12,4.53,8.97c0.54,0.97,1.47,1.54,2.49,1.54c0.84,0,1.67-0.4,2.25-1.09   c0.9-1.06,1.68-2.19,2.33-3.35c3.39-6.08,6.78-12.17,10.16-18.25c7.11-12.79,14.45-26.01,21.79-38.95   c2.52-4.44,2.6-8.33,0.29-13.01c-3.64-7.35-7.63-16.11-9.62-25.45c-0.49-2.28-1.09-5.12-1.24-7.83c-0.12-2.23,0.38-3.97,1.48-5.18   c1.05-1.14,2.6-1.74,4.62-1.79c2.87-0.07,6-0.11,9.87-0.11c2.05,0,4.1,0.01,6.15,0.02c2.05,0.01,4.1,0.02,6.16,0.02h0.55   c2.39,0,4.03,1.3,4.9,3.86c0.57,1.68,0.89,3.49,1.2,5.24l0.1,0.54c1.35,7.52,3.09,13.44,5.49,18.65   c5.2,11.28,10.44,22.78,15.5,33.9c3.53,7.75,7.06,15.51,10.61,23.25c3.01,6.57,6.27,13.49,9.7,20.56c0.12,0.25,0.24,0.5,0.35,0.76   c0.85,1.86,1.91,4.18,4.56,4.18c0.18,0,0.37-0.01,0.57-0.03c2.38-0.28,3.18-2.32,3.89-4.12c0.15-0.39,0.3-0.77,0.47-1.13   c2.02-4.43,4.02-8.87,6.02-13.31c3.79-8.42,7.7-17.12,11.73-25.6c4.94-10.39,6.01-21.37,3.27-33.58c-0.24-1.07-0.49-2.14-0.74-3.21   c-0.74-3.21-1.51-6.53-2.06-9.82c-0.47-2.86-0.72-6.01-0.79-9.88c-0.08-4.94,2.37-8.72,7.28-11.25c3.96-2.04,8.4-3.07,13.21-3.07   c0.26,0,0.52,0,0.78,0.01c4.47,0.1,8.38,1.82,11.02,4.84c2.51,2.87,3.64,6.69,3.18,10.74c-0.37,3.29-1.08,6.54-2.1,9.64   c-1.36,4.11-3.08,8.06-4.74,11.72c-12.66,27.93-25.35,55.85-38.04,83.76l-12.55,27.62c-0.47,1.04-0.94,2.08-1.4,3.11   c-0.72,1.6-1.43,3.21-2.17,4.8l-0.15,0.32c-0.5,1.08-1.01,2.19-1.68,3.14c-1.55,2.21-3.44,3.42-5.33,3.42   c-1.88,0-3.71-1.22-5.15-3.42c-1.05-1.62-1.9-3.44-2.72-5.2c-0.2-0.43-0.4-0.85-0.6-1.28c-6.8-14.31-13.59-28.63-20.38-42.94   l-16.31-34.37c-0.94-1.97-1.91-4.02-3.04-5.99c-0.32-0.56-0.85-0.95-1.36-1.32c-0.2-0.15-0.41-0.3-0.59-0.45l-0.22-0.19l-0.27,0.1   c-2.52,0.91-3.5,2.9-4.37,4.65c-0.21,0.42-0.42,0.84-0.64,1.24c-5.38,9.52-10.79,19.22-16.03,28.61l-11.14,19.95   c-6.28,11.25-12.56,22.5-18.87,33.73c-1.28,2.28-2.47,3.98-3.73,5.36C513.77,594.17,512.69,594.7,511.58,594.7z" />
	<path
   style="fill:#070740;fill-opacity:1"
   id="path1788"
   d="M673.3,432.06c0.26,0,0.51,0,0.77,0.01c4.33,0.1,8.11,1.76,10.66,4.67c2.41,2.76,3.5,6.44,3.06,10.36   c-0.36,3.26-1.06,6.47-2.08,9.54c-1.35,4.08-3.07,8.02-4.72,11.67c-12.61,27.81-25.45,56.06-37.87,83.39l-12.72,27.99   c-0.47,1.03-0.93,2.07-1.4,3.11c-0.71,1.58-1.44,3.21-2.17,4.8l-0.15,0.32c-0.49,1.06-0.99,2.15-1.64,3.06   c-1.45,2.07-3.2,3.21-4.92,3.21c-1.71,0-3.39-1.14-4.73-3.2c-1.03-1.59-1.87-3.39-2.68-5.13c-0.2-0.43-0.4-0.86-0.6-1.29   c-6.73-14.16-13.44-28.32-20.16-42.48c-5.51-11.61-11.02-23.22-16.53-34.83c-0.9-1.89-1.91-4.03-3.06-6.03   c-0.38-0.66-0.97-1.09-1.5-1.47c-0.19-0.14-0.39-0.28-0.56-0.43l-0.44-0.38l-0.55,0.2c-2.71,0.98-3.74,3.06-4.65,4.9   c-0.21,0.43-0.41,0.83-0.63,1.21c-5.38,9.52-10.79,19.22-16.02,28.6c-1.74,3.11-3.47,6.22-5.21,9.33l-5.97,10.7   c-6.16,11.04-12.53,22.45-18.83,33.65c-1.26,2.24-2.43,3.92-3.67,5.27c-0.83,0.9-1.77,1.37-2.74,1.37c-0.99,0-1.95-0.5-2.77-1.44   c-1.12-1.29-2.14-2.91-3.01-4.81c-6.78-14.69-13.5-29.42-19.75-43.16l-0.45-0.99c-7.11-15.63-14.46-31.78-21.63-47.7   c-1.11-2.46-2.22-4.91-3.33-7.36c-3.98-8.75-8.09-17.8-11.73-26.85c-2.07-5.14-3.42-10.7-4.73-16.08   c-0.25-1.01-0.49-2.01-0.74-3.01c-0.78-3.15,0.68-5.46,4.01-6.34c0.84-0.22,1.84-0.34,3.05-0.34l2.19-0.01   c2.77-0.01,5.54-0.03,8.31-0.03c3.07,0,5.75,0.02,8.21,0.06c4.28,0.07,6.01,1.45,6.36,5.1c1.24,12.83,6.44,24.41,11.47,35.62   c0.66,1.47,1.32,2.94,1.97,4.41c6.72,15.18,13.74,30.53,20.53,45.38c2.08,4.56,4.17,9.11,6.25,13.67c1.42,3.11,2.95,6.14,4.55,9.01   c0.63,1.13,1.72,1.8,2.93,1.8c0.99,0,1.95-0.46,2.64-1.27c0.92-1.09,1.72-2.24,2.39-3.43c3.39-6.07,6.76-12.15,10.14-18.22   c7.11-12.8,14.46-26.03,21.8-38.98c2.61-4.6,2.7-8.64,0.3-13.48c-3.62-7.32-7.6-16.05-9.58-25.33c-0.61-2.88-1.1-5.28-1.23-7.75   c-0.12-2.09,0.34-3.71,1.35-4.81c0.95-1.03,2.39-1.58,4.26-1.63c2.86-0.07,6-0.11,9.86-0.11c2.05,0,4.1,0.01,6.16,0.02   c2.06,0.01,4.11,0.02,6.17,0.02l0.54,0c2.17,0,3.62,1.15,4.42,3.52c0.55,1.64,0.87,3.44,1.18,5.17l0.1,0.54   c1.35,7.56,3.11,13.52,5.53,18.77c5.2,11.27,10.43,22.76,15.49,33.88c3.53,7.76,7.07,15.52,10.62,23.28   c3.01,6.57,6.27,13.49,9.7,20.57c0.12,0.24,0.23,0.5,0.35,0.75c0.86,1.89,2.05,4.47,5.01,4.47c0.2,0,0.41-0.01,0.63-0.04   c2.68-0.31,3.58-2.6,4.3-4.43c0.15-0.39,0.3-0.76,0.46-1.11c2.02-4.43,4.06-8.95,6.02-13.32c3.78-8.41,7.7-17.11,11.72-25.58   c4.99-10.49,6.07-21.58,3.3-33.91c-0.24-1.07-0.49-2.15-0.74-3.22c-0.74-3.2-1.51-6.51-2.05-9.79c-0.47-2.84-0.72-5.96-0.78-9.81   c-0.08-4.73,2.28-8.36,7.01-10.79C664.2,433.07,668.57,432.06,673.3,432.06 M673.3,431.06c-4.68,0-9.27,0.98-13.44,3.12   c-4.63,2.38-7.64,6.19-7.55,11.7c0.06,3.33,0.25,6.68,0.8,9.96c0.73,4.39,1.82,8.72,2.8,13.07c2.57,11.44,1.89,22.48-3.23,33.26   c-6.12,12.87-11.83,25.95-17.75,38.92c-0.9,1.98-1.4,4.66-3.96,4.96c-0.18,0.02-0.35,0.03-0.51,0.03c-2.65,0-3.49-2.64-4.46-4.66   c-3.3-6.82-6.54-13.67-9.69-20.56c-8.72-19.04-17.34-38.13-26.11-57.16c-2.74-5.93-4.31-12.15-5.45-18.53   c-0.35-1.97-0.68-3.97-1.31-5.86c-0.84-2.48-2.48-4.2-5.36-4.2c0,0,0,0-0.01,0c-0.18,0-0.36,0-0.54,0c-4.11,0-8.22-0.04-12.32-0.04   c-3.3,0-6.59,0.02-9.89,0.11c-4.49,0.12-6.84,2.89-6.59,7.5c0.15,2.65,0.7,5.3,1.25,7.91c1.92,9,5.61,17.4,9.66,25.57   c2.23,4.5,2.19,8.21-0.27,12.54c-10.77,19-21.3,38.13-31.95,57.21c-0.65,1.16-1.42,2.26-2.28,3.27c-0.52,0.61-1.2,0.92-1.87,0.92   c-0.79,0-1.58-0.43-2.06-1.29c-1.62-2.91-3.13-5.9-4.51-8.94c-8.97-19.66-18.03-39.28-26.77-59.04   c-5.66-12.8-11.98-25.41-13.36-39.72c-0.42-4.36-2.74-5.93-7.34-6c-2.74-0.04-5.49-0.06-8.23-0.06c-3.5,0-7,0.02-10.5,0.04   c-1.1,0.01-2.24,0.09-3.31,0.38c-3.74,1-5.66,3.76-4.72,7.55c1.61,6.47,3.04,13.07,5.52,19.23c4.66,11.57,9.96,22.87,15.08,34.25   c7.32,16.25,14.7,32.47,22.08,48.7c6.55,14.4,13.12,28.79,19.75,43.16c0.83,1.79,1.88,3.56,3.17,5.05   c1.03,1.19,2.27,1.78,3.52,1.78c1.22,0,2.44-0.56,3.48-1.7c1.49-1.62,2.72-3.53,3.8-5.45c8.31-14.76,16.55-29.56,24.81-44.35   c7.07-12.65,14.1-25.32,21.23-37.93c1.16-2.05,1.84-4.62,4.74-5.66c0.62,0.53,1.45,0.96,1.85,1.64c1.11,1.93,2.07,3.95,3.02,5.96   c12.24,25.77,24.46,51.54,36.7,77.31c1.05,2.21,2.02,4.49,3.35,6.54c1.59,2.44,3.56,3.65,5.57,3.65c2.01,0,4.04-1.22,5.74-3.64   c0.76-1.08,1.31-2.33,1.87-3.54c1.22-2.63,2.38-5.28,3.58-7.92c16.87-37.13,33.76-74.25,50.6-111.39   c1.75-3.85,3.43-7.76,4.76-11.77c1.04-3.14,1.76-6.45,2.12-9.74c0.99-8.83-5.32-15.92-14.69-16.14   C673.83,431.06,673.57,431.06,673.3,431.06L673.3,431.06z" />
</g>
<g
   style="fill:#070740;fill-opacity:1"
   id="g1796">
	<path
   style="fill:#070740;fill-opacity:1"
   id="path1792"
   d="M1382.59,594.69c-1.43,0-2.75-0.66-3.72-1.87c-1.55-1.94-2.72-4.21-3.66-6.17c-8.09-16.94-16.15-33.88-24.21-50.83   c-4.67-9.82-9.34-19.63-14.02-29.44c-1-2.1-1.91-3.79-2.85-5.34c-0.49-0.8-1.26-1.26-2.12-1.26c-0.8,0-1.55,0.41-2.05,1.14   c-1.27,1.82-2.47,3.73-3.57,5.69c-7.62,13.61-15.22,27.23-22.83,40.85c-7.18,12.85-14.35,25.69-21.54,38.53l-0.41,0.73   c-1.03,1.86-2.1,3.78-3.41,5.45c-1.29,1.65-2.71,2.52-4.1,2.52c-1.52,0-3.02-1.03-4.34-2.97c-0.99-1.45-1.76-3.15-2.44-4.65   c-6.58-14.49-13.15-28.99-19.72-43.49c-5.57-12.29-11.14-24.58-16.71-36.87l-2.73-6.03c-4.35-9.6-8.85-19.52-13.36-29.24   c-3.92-8.44-6.85-17.12-8.71-25.79c-0.84-3.92-0.69-6.34,0.49-7.83c1.14-1.44,3.41-2.14,7.15-2.21c2.73-0.05,5.53-0.08,8.32-0.08   c3.4,0,6.9,0.04,10.39,0.11c3.82,0.08,6.04,2.03,6.26,5.5c0.74,11.58,5.39,22.06,9.88,32.19l0.17,0.38   c7.6,17.12,15.51,34.45,23.16,51.2c2.86,6.27,5.72,12.53,8.57,18.8l0.17,0.37c0.68,1.5,1.38,3.05,2.29,4.45   c0.44,0.68,1.1,1.16,1.69,1.58c0.22,0.16,0.44,0.31,0.62,0.47l0.2,0.17l0.25-0.06c2.7-0.68,3.7-2.6,4.58-4.3   c0.14-0.28,0.29-0.55,0.44-0.82c6.62-11.86,13.22-23.73,19.82-35.6l7.5-13.47c0.46-0.83,0.92-1.67,1.38-2.51   c1.13-2.06,2.29-4.19,3.53-6.22c2.06-3.39,2.15-6.76,0.3-10.59c-3.02-6.25-5.26-11.5-7.04-16.54c-1.31-3.72-2.31-7.63-3.27-11.42   c-0.39-1.54-0.78-3.07-1.19-4.6c-0.15-0.56-0.17-1.2-0.2-1.82c-0.09-2.21,0.5-4.01,1.68-5.28c1.08-1.15,2.62-1.79,4.46-1.84   c3.32-0.09,6.88-0.13,10.89-0.13c4.11,0,8.26,0.05,11.83,0.09c2.74,0.03,4.57,1.49,5.31,4.21c0.56,2.06,0.93,4.22,1.29,6.3   l0.15,0.86c1.05,6.05,2.85,11.88,5.34,17.31c6.87,15,13.71,30.01,20.55,45.03c4.06,8.91,8.11,17.82,12.18,26.73   c0.85,1.87,1.84,3.7,2.79,5.48l0.27,0.5c0.45,0.83,1.06,1.92,1.82,2.89c0.87,1.12,1.96,1.73,3.06,1.73c1.26,0,2.38-0.78,3.15-2.21   c1.4-2.6,2.63-5.34,3.83-7.99l0.77-1.7c1.7-3.74,3.38-7.48,5.06-11.23c3.28-7.31,6.66-14.86,10.13-22.23   c4.31-9.13,5.32-19.27,3.11-31c-0.36-1.88-0.79-3.78-1.22-5.61c-0.56-2.43-1.14-4.95-1.53-7.45c-0.57-3.67-0.9-7.56-1-11.88   c-0.1-4.21,2-7.77,5.91-10c4.42-2.53,9.11-3.82,13.93-3.82c1.45,0,2.93,0.12,4.41,0.35c5.53,0.87,11.42,6.46,11.02,13.09   l-0.03,0.44c-0.26,4.36-0.51,8.49-2.27,12.45c-2.05,4.63-4.09,9.27-6.12,13.91c-3.28,7.48-6.67,15.2-10.09,22.77   c-10.13,22.42-20.49,45.19-30.5,67.21l-10.4,22.88c-0.18,0.4-0.36,0.81-0.54,1.21c-0.62,1.4-1.26,2.84-2.04,4.15   c-0.82,1.37-1.81,2.55-2.86,3.4C1384.89,594.26,1383.75,594.69,1382.59,594.69z" />
	<path
   style="fill:#070740;fill-opacity:1"
   id="path1794"
   d="M1435.31,432.1c1.42,0,2.88,0.12,4.33,0.34c5.32,0.83,10.98,6.2,10.6,12.57l-0.03,0.44c-0.26,4.32-0.51,8.4-2.23,12.27   c-2.06,4.64-4.09,9.28-6.13,13.93c-3.28,7.47-6.66,15.19-10.08,22.75c-10.17,22.5-20.57,45.36-30.62,67.47   c-3.43,7.54-6.86,15.08-10.28,22.62c-0.18,0.41-0.37,0.82-0.55,1.23c-0.61,1.38-1.24,2.81-2.01,4.09   c-0.79,1.32-1.74,2.45-2.75,3.27c-0.9,0.74-1.93,1.13-2.97,1.13c-1.28,0-2.46-0.6-3.33-1.68c-1.52-1.9-2.67-4.13-3.6-6.07   c-8.06-16.88-16.23-34.05-24.13-50.65c-4.7-9.87-9.4-19.75-14.1-29.62c-0.99-2.08-1.93-3.84-2.88-5.38   c-0.58-0.94-1.53-1.5-2.54-1.5c-0.96,0-1.86,0.49-2.46,1.35c-1.28,1.83-2.49,3.76-3.6,5.74c-7.59,13.57-15.18,27.15-22.77,40.73   c-7.2,12.89-14.4,25.77-21.6,38.65l-0.41,0.73c-1.02,1.84-2.08,3.75-3.36,5.38c-1.19,1.53-2.47,2.33-3.7,2.33   c-1.7,0-3.07-1.5-3.93-2.75c-0.97-1.42-1.73-3.1-2.4-4.58c-6.73-14.84-13.46-29.69-20.19-44.53   c-5.41-11.94-10.82-23.89-16.24-35.83l-2.72-6c-4.35-9.61-8.86-19.54-13.37-29.28c-3.9-8.41-6.82-17.05-8.67-25.68   c-0.8-3.71-0.67-6.07,0.4-7.42c1.04-1.31,3.19-1.95,6.77-2.02c2.73-0.05,5.52-0.07,8.31-0.07c3.4,0,6.89,0.04,10.38,0.11   c2.49,0.05,5.51,0.97,5.77,5.03c0.75,11.67,5.41,22.18,9.92,32.35l0.17,0.39c7.59,17.11,15.5,34.43,23.15,51.17   c2.87,6.28,5.73,12.55,8.59,18.83l0.16,0.36c0.69,1.52,1.4,3.09,2.33,4.53c0.49,0.75,1.22,1.29,1.81,1.72   c0.21,0.15,0.41,0.3,0.59,0.45l0.39,0.33l0.5-0.13c2.91-0.73,4.02-2.85,4.9-4.55c0.14-0.27,0.28-0.54,0.43-0.81   c6.61-11.85,13.21-23.71,19.81-35.58l7.51-13.49c0.47-0.84,0.93-1.68,1.39-2.52c1.12-2.05,2.28-4.17,3.51-6.19   c2.16-3.55,2.26-7.07,0.32-11.07c-3.01-6.23-5.24-11.47-7.02-16.49c-1.31-3.7-2.3-7.6-3.25-11.38c-0.38-1.51-0.78-3.07-1.19-4.61   c-0.14-0.5-0.16-1.08-0.18-1.69l0-0.07c-0.08-2.01,0.46-3.69,1.55-4.85c0.98-1.05,2.4-1.63,4.1-1.68   c3.31-0.09,6.86-0.13,10.86-0.13c4.11,0,8.27,0.05,11.84,0.09c2.49,0.03,4.16,1.36,4.83,3.84c0.55,2.03,0.92,4.17,1.27,6.24   l0.15,0.88c1.06,6.1,2.87,11.96,5.38,17.43c6.85,14.94,13.77,30.14,20.46,44.85c4.09,8.97,8.17,17.95,12.26,26.92   c0.87,1.9,1.86,3.75,2.83,5.55l0.25,0.46c0.46,0.85,1.08,1.95,1.87,2.96c0.97,1.24,2.19,1.93,3.45,1.93c1.44,0,2.74-0.9,3.59-2.47   c1.41-2.61,2.64-5.36,3.84-8.01c0.26-0.57,0.51-1.14,0.77-1.71c1.7-3.75,3.38-7.5,5.07-11.25c3.27-7.3,6.66-14.85,10.12-22.2   c4.35-9.23,5.38-19.47,3.15-31.3c-0.36-1.89-0.8-3.8-1.22-5.64c-0.56-2.42-1.14-4.93-1.53-7.4c-0.57-3.65-0.89-7.52-0.99-11.82   c-0.09-4.02,1.92-7.42,5.66-9.56C1425.98,433.36,1430.58,432.1,1435.31,432.1 M1435.31,431.1c-5,0-9.75,1.35-14.18,3.88   c-3.86,2.21-6.27,5.8-6.16,10.45c0.09,3.99,0.39,8.01,1.01,11.95c0.68,4.39,1.93,8.7,2.75,13.07c1.98,10.52,1.61,20.77-3.07,30.69   c-5.22,11.08-10.13,22.31-15.19,33.47c-1.47,3.24-2.89,6.52-4.58,9.65c-0.7,1.3-1.69,1.95-2.71,1.95c-0.92,0-1.87-0.52-2.66-1.54   c-0.68-0.87-1.25-1.84-1.77-2.82c-1.05-1.96-2.12-3.93-3.05-5.95c-10.92-23.92-21.77-47.86-32.73-71.77   c-2.53-5.52-4.26-11.23-5.3-17.18c-0.42-2.41-0.81-4.85-1.45-7.21c-0.78-2.89-2.8-4.55-5.78-4.58c-3.95-0.05-7.9-0.09-11.85-0.09   c-3.63,0-7.26,0.04-10.89,0.13c-4.31,0.12-6.79,3.23-6.62,7.57c0.03,0.67,0.05,1.35,0.22,1.99c1.44,5.37,2.62,10.83,4.47,16.06   c2,5.66,4.44,11.18,7.06,16.59c1.73,3.58,1.77,6.75-0.27,10.12c-1.74,2.86-3.29,5.82-4.91,8.74c-9.1,16.36-18.2,32.72-27.32,49.07   c-1.06,1.91-1.81,4.15-4.71,4.88c-0.65-0.55-1.66-1.09-2.21-1.94c-0.96-1.49-1.69-3.13-2.42-4.75   c-10.61-23.32-21.34-46.58-31.73-70c-4.6-10.36-9.27-20.76-10.01-32.4c-0.25-3.89-2.81-5.88-6.75-5.96   c-3.47-0.07-6.93-0.11-10.4-0.11c-2.78,0-5.55,0.02-8.33,0.08c-7.78,0.14-9.78,2.92-8.13,10.64c1.92,8.97,4.88,17.57,8.74,25.89   c5.44,11.72,10.75,23.5,16.09,35.27c12.15,26.78,24.27,53.58,36.43,80.36c0.74,1.62,1.49,3.26,2.48,4.73   c1.44,2.12,3.09,3.19,4.75,3.19c1.53,0,3.07-0.9,4.49-2.72c1.5-1.91,2.66-4.11,3.86-6.24c14.8-26.45,29.57-52.92,44.37-79.38   c1.08-1.94,2.27-3.83,3.54-5.65c0.43-0.62,1.04-0.92,1.64-0.92c0.64,0,1.27,0.34,1.69,1.02c1.04,1.7,1.97,3.49,2.83,5.29   c12.75,26.76,25.46,53.53,38.23,80.27c1.05,2.19,2.21,4.39,3.72,6.27c1.1,1.37,2.58,2.06,4.11,2.06c1.24,0,2.5-0.45,3.6-1.35   c1.18-0.96,2.19-2.22,2.98-3.53c1.03-1.71,1.78-3.59,2.61-5.41c13.64-30.02,27.32-60.03,40.9-90.09   c5.51-12.18,10.79-24.46,16.21-36.68c1.85-4.18,2.06-8.57,2.34-13.06c0.4-6.56-5.34-12.66-11.44-13.62   C1438.28,431.22,1436.79,431.1,1435.31,431.1L1435.31,431.1z" />
</g>
<g
   style="fill:#070740;fill-opacity:1"
   id="g1802">
	<path
   style="fill:#070740;fill-opacity:1"
   id="path1798"
   d="M216.6,640.33c-1.59,0-3.09-0.88-4.23-2.49c-0.97-1.36-1.71-2.94-2.43-4.47c0,0-9.12-19.15-13.5-28.36   c-7.01-14.74-14.03-29.47-21.06-44.2c-0.21-0.44-0.39-0.89-0.58-1.35c-0.73-1.78-1.56-3.8-3.87-5.05l-0.29-0.16l-0.26,0.21   c-0.22,0.18-0.47,0.36-0.73,0.53c-0.63,0.44-1.28,0.89-1.71,1.55c-1.24,1.9-2.36,3.91-3.44,5.86l-13.53,24.22   c-8.63,15.45-17.26,30.89-25.91,46.33c-1.06,1.9-2.16,3.86-3.54,5.54c-0.94,1.15-2.11,1.78-3.28,1.78c-1.2,0-2.38-0.66-3.32-1.87   c-0.92-1.19-1.77-2.66-2.61-4.5c-7.71-16.94-15.4-33.88-23.08-50.83l-13.27-29.25c-3.84-8.47-7.8-17.22-11.77-25.8   c-3.33-7.2-5.95-15.25-8.03-24.62c-0.76-3.42,0.46-5.41,3.96-6.44l0.12-0.04c0.99-0.3,2.02-0.6,2.99-0.6l1.69,0   c5.15,0.01,10.47,0.02,15.69,0.27c3.29,0.16,5.28,1.89,5.48,4.77c0.75,11.08,5.23,21.05,9.57,30.7c0.63,1.4,1.26,2.8,1.88,4.21   c6.42,14.57,13.15,29.28,19.66,43.52c1.91,4.17,3.81,8.33,5.71,12.5c1,2.2,2.24,4.53,3.78,7.1c0.43,0.73,1.24,1.17,2.14,1.17   c0.83,0,1.61-0.35,2.14-0.96c0.85-0.97,1.5-1.88,2-2.78c3.19-5.71,6.36-11.44,9.54-17.16c6.45-11.61,13.12-23.63,19.76-35.39   c2.08-3.69,2.12-7.02,0.12-11.13c-3.93-8.06-7.8-16.82-9.45-26.19l-0.13-0.73c-0.23-1.25-0.46-2.55-0.48-3.81   c-0.04-3.09,1.49-4.99,4.57-5.63c0.83-0.17,1.69-0.26,2.55-0.27c1.4-0.01,2.79-0.02,4.19-0.04c2.31-0.02,4.62-0.04,6.93-0.04   c2.32,0,4.37,0.02,6.26,0.07c4.24,0.11,5.33,1,6.48,5.29c0.05,0.17,0.09,0.34,0.14,0.51c0.14,0.47,0.27,0.92,0.31,1.36   c0.98,8.97,4.5,17.21,7.73,24.23c3.4,7.41,6.79,14.82,10.18,22.23c5.23,11.43,10.47,22.86,15.73,34.28   c1.89,4.11,3.71,7.61,5.55,10.71c0.79,1.33,1.86,2.05,3.02,2.05c1.2,0,2.32-0.8,3.09-2.19c1.17-2.14,2.18-4.39,3.16-6.58   c0.29-0.64,0.57-1.27,0.86-1.9c1.4-3.07,2.78-6.14,4.15-9.22c2.85-6.37,5.8-12.96,8.91-19.33c4.89-10.02,5.96-20.57,3.25-32.24   c-0.96-4.16-1.97-8.62-2.78-13.05c-0.38-2.07-0.55-4.27-0.49-6.53c0.11-4.91,2.48-8.48,7.04-10.63c3.65-1.72,7.35-2.59,10.99-2.59   c1.22,0,2.46,0.1,3.67,0.29c6.11,0.97,9.93,5.21,10.23,11.34c0.21,4.29-0.31,7.76-1.63,10.94c-0.53,1.29-1.05,2.58-1.56,3.88   c-0.87,2.19-1.76,4.44-2.74,6.61c-15.24,33.63-31.07,68.47-48.38,106.51c-0.81,1.77-1.81,3.97-3.17,5.7   C219.47,639.56,218.06,640.33,216.6,640.33z" />
	<path
   style="fill:#070740;fill-opacity:1"
   id="path1800"
   d="M264.16,493.39c1.19,0,2.4,0.1,3.6,0.28c5.86,0.93,9.52,4.99,9.81,10.87c0.2,4.21-0.3,7.62-1.59,10.72   c-0.54,1.29-1.06,2.61-1.56,3.89c-0.86,2.18-1.76,4.43-2.73,6.59c-15.37,33.92-31.2,68.76-48.38,106.51   c-1.01,2.22-1.88,4.04-3.11,5.6c-1,1.27-2.27,1.97-3.58,1.97c-1.42,0-2.78-0.81-3.82-2.28c-0.94-1.32-1.68-2.88-2.39-4.39   l-0.35-0.75c-4.39-9.2-8.77-18.41-13.15-27.62c-7.01-14.74-14.03-29.47-21.06-44.2c-0.2-0.42-0.38-0.86-0.57-1.32   c-0.77-1.86-1.63-3.97-4.1-5.3l-0.59-0.32l-0.52,0.42c-0.2,0.17-0.44,0.33-0.7,0.51c-0.64,0.44-1.36,0.95-1.84,1.68   c-1.25,1.91-2.37,3.94-3.46,5.89l-0.61,1.1c-4.35,7.79-8.7,15.57-13.05,23.36c-8.59,15.37-17.17,30.73-25.77,46.09   c-1.05,1.88-2.14,3.82-3.49,5.47c-0.86,1.05-1.86,1.6-2.89,1.6c-1.05,0-2.08-0.6-2.92-1.68c-0.89-1.15-1.73-2.59-2.55-4.4   c-7.72-16.96-15.55-34.22-23.12-50.9l-9.49-20.91c-1.24-2.73-2.48-5.46-3.71-8.19c-3.85-8.49-7.82-17.27-11.8-25.88   c-3.31-7.17-5.93-15.19-8-24.52c-0.7-3.15,0.38-4.9,3.61-5.86l0.12-0.04c0.96-0.28,1.94-0.58,2.85-0.58l1.68,0   c5.14,0.01,10.45,0.02,15.66,0.27c1.76,0.08,4.76,0.75,5,4.3c0.76,11.18,5.26,21.19,9.61,30.87c0.63,1.4,1.26,2.8,1.88,4.2   c6.41,14.56,13.14,29.27,19.65,43.49c1.91,4.18,3.82,8.35,5.73,12.53c1.01,2.22,2.26,4.56,3.8,7.15c0.53,0.88,1.49,1.41,2.57,1.41   c0.97,0,1.89-0.41,2.52-1.13c0.87-0.99,1.54-1.93,2.06-2.86c3.19-5.71,6.36-11.43,9.54-17.15c6.45-11.62,13.12-23.63,19.76-35.39   c2.18-3.85,2.22-7.32,0.13-11.59c-3.92-8.03-7.77-16.74-9.41-26.05l-0.13-0.73c-0.24-1.29-0.46-2.51-0.47-3.73   c-0.04-2.82,1.36-4.55,4.17-5.14c0.8-0.17,1.62-0.25,2.45-0.26c1.39-0.01,2.79-0.02,4.18-0.04c2.31-0.02,4.62-0.04,6.93-0.04   c2.32,0,4.37,0.02,6.25,0.07c4.02,0.1,4.92,0.84,6.01,4.92c0.05,0.17,0.1,0.35,0.15,0.52c0.13,0.45,0.25,0.88,0.3,1.28   c0.99,9.04,4.53,17.33,7.77,24.39c3.38,7.36,6.75,14.73,10.12,22.1c5.16,11.28,10.5,22.95,15.79,34.41   c1.9,4.12,3.72,7.64,5.58,10.76c0.88,1.48,2.11,2.3,3.45,2.3c1.39,0,2.67-0.89,3.52-2.45c1.18-2.15,2.19-4.42,3.18-6.61   c0.29-0.64,0.57-1.27,0.86-1.9c1.4-3.07,2.8-6.2,4.16-9.22c2.85-6.37,5.8-12.95,8.9-19.31c4.94-10.13,6.02-20.78,3.29-32.57   c-0.96-4.15-1.96-8.61-2.77-13.03c-0.37-2.04-0.54-4.2-0.48-6.43c0.11-4.7,2.38-8.13,6.75-10.19   C256.96,494.25,260.59,493.39,264.16,493.39 M264.16,492.39c-3.88,0-7.63,0.95-11.21,2.64c-4.61,2.17-7.2,5.9-7.32,11.07   c-0.05,2.21,0.1,4.46,0.5,6.63c0.8,4.38,1.78,8.73,2.78,13.07c2.55,11.01,1.82,21.6-3.22,31.91c-4.59,9.41-8.72,19.04-13.07,28.56   c-1.29,2.84-2.51,5.72-4,8.45c-0.7,1.28-1.67,1.94-2.65,1.94c-0.93,0-1.87-0.6-2.59-1.81c-2.04-3.44-3.85-7.03-5.53-10.67   c-8.68-18.82-17.27-37.68-25.91-56.51c-3.54-7.72-6.75-15.53-7.69-24.08c-0.07-0.66-0.3-1.3-0.47-1.95   c-1.18-4.4-2.39-5.55-6.95-5.66c-2.09-0.05-4.18-0.07-6.27-0.07c-3.71,0-7.41,0.06-11.12,0.08c-0.89,0.01-1.79,0.1-2.65,0.28   c-3.25,0.68-5.01,2.78-4.96,6.13c0.02,1.54,0.35,3.09,0.62,4.62c1.64,9.32,5.39,17.91,9.49,26.32c1.84,3.78,1.99,6.95-0.1,10.66   c-9.86,17.47-19.54,35.03-29.31,52.55c-0.54,0.96-1.22,1.86-1.94,2.69c-0.46,0.52-1.12,0.79-1.76,0.79c-0.68,0-1.35-0.3-1.72-0.92   c-1.36-2.29-2.65-4.63-3.75-7.05c-8.5-18.65-17.11-37.26-25.37-56.01c-4.92-11.18-10.55-22.16-11.4-34.74   c-0.22-3.24-2.5-5.07-5.95-5.23c-5.79-0.27-11.59-0.26-17.38-0.28c0,0-0.01,0-0.01,0c-1.08,0-2.19,0.34-3.25,0.66   c-3.7,1.1-5.12,3.33-4.3,7.03c1.89,8.5,4.4,16.79,8.07,24.72c5.23,11.33,10.35,22.7,15.51,34.06   c10.87,23.94,21.71,47.89,32.6,71.81c0.73,1.61,1.59,3.21,2.67,4.6c1.07,1.37,2.39,2.07,3.71,2.07c1.29,0,2.58-0.65,3.66-1.96   c1.4-1.71,2.51-3.68,3.59-5.61c12.96-23.14,25.88-46.3,38.83-69.45c1.3-2.33,2.58-4.69,4.03-6.93c0.54-0.83,1.57-1.35,2.33-1.96   c2.71,1.47,3.21,4.03,4.24,6.18c11.43,23.93,22.81,47.88,34.21,71.82c0.86,1.8,1.68,3.67,2.83,5.29c1.27,1.79,2.95,2.7,4.64,2.7   c1.56,0,3.12-0.78,4.36-2.35c1.36-1.72,2.32-3.79,3.24-5.8c16.15-35.49,32.28-70.99,48.38-106.51c1.56-3.45,2.86-7.01,4.31-10.51   c1.49-3.58,1.85-7.33,1.66-11.15c-0.31-6.34-4.34-10.81-10.65-11.81C266.65,492.49,265.39,492.39,264.16,492.39L264.16,492.39z" />
</g>
<g
   style="fill:#070740;fill-opacity:1"
   id="g1808">
	<path
   style="fill:#070740;fill-opacity:1"
   id="path1804"
   d="M808.13,590.56c-3.13,0-5.29-0.68-6.61-2.09c-1.27-1.35-1.81-3.44-1.63-6.38c0.06-0.96,0.06-1.94,0.06-2.88   c0-1.24,0-2.53,0.13-3.77c0.34-3.13,1.96-4.81,5.1-5.3c2.07-0.32,4.12-0.35,6.58-0.35c14.94-0.02,29.89-0.02,44.83-0.02l29.26,0   c1.34,0,2.78-0.02,4.19-0.17c3.04-0.33,5.06-2.21,5.41-5.02c0.33-2.69-1.29-5.19-4.03-6.22c-1.23-0.46-2.62-0.76-4.03-0.87   c-1.22-0.09-2.45-0.1-3.39-0.1l-2.66,0.01l-58.84,0.01c-0.29,0-0.56-0.01-0.84-0.02c-0.29-0.01-0.57-0.02-0.86-0.02   c-0.4,0-0.73,0.02-1.05,0.06c-0.82,0.11-1.62,0.16-2.39,0.16c-6.33,0-11.14-3.64-14.28-10.81c-4.64-10.58-4.74-20.91-0.29-30.7   c2.81-6.18,6.7-9.85,11.9-11.22c1.86-0.49,3.86-0.75,5.79-0.75l12.45,0c16.63,0,33.26,0.02,49.88,0.04l15.89,0.02   c6.92,0.15,8.98,2.21,9.17,9.2c0.05,1.85,0.05,4.26-0.41,6.53c-0.6,2.94-2.49,4.56-5.63,4.82c-0.69,0.06-1.46,0.08-2.41,0.08   c-0.5,0-0.99-0.01-1.49-0.01c-0.47-0.01-0.94-0.01-1.41-0.01c0,0-56.1-0.1-70.88-0.12c-0.38,0-0.77-0.01-1.15-0.02   c-0.41-0.01-0.81-0.02-1.22-0.02c-0.98,0-1.72,0.07-2.4,0.22c-1.28,0.28-3.07,0.85-4.36,1.97c-1.58,1.38-2.26,3.46-1.77,5.44   c0.48,1.93,1.95,3.36,3.93,3.82c2.71,0.63,5.69,0.63,8.07,0.64c10.05,0.02,20.1,0.03,30.15,0.03l30.7-0.01c0.44,0,0.89,0,1.33,0.01   c9.96,0.09,17.76,5.89,20.35,15.13c2.06,7.35,2.17,15.05,0.3,22.89c-0.78,3.3-2.42,6.52-5.01,9.87c-3,3.88-6.69,5.77-11.27,5.77   l-0.4,0c-0.6-0.01-1.19-0.02-1.79-0.02c-0.72,0-1.43,0.01-2.15,0.01c-0.7,0.01-1.39,0.01-2.09,0.01l-37.28,0v0.07   c-3.89,0-7.77-0.02-11.66-0.04c-4.06-0.02-8.11-0.04-12.17-0.04c-6.65,0-12.1,0.05-17.14,0.17   C808.47,590.56,808.3,590.56,808.13,590.56z" />
	<path
   style="fill:#070740;fill-opacity:1"
   id="path1806"
   d="M832.95,504.6c16.53,0,33.05,0.02,49.58,0.04l15.51,0.02l0.05,0l0.11,0l0.11,0c0.12,0,0.25,0,0.37,0   c6.63,0.14,8.5,2.01,8.68,8.72c0.05,1.82,0.05,4.2-0.4,6.41c-0.56,2.73-2.25,4.18-5.19,4.43c-0.68,0.06-1.43,0.08-2.36,0.08   c-0.49,0-0.99-0.01-1.48-0.01c-0.47-0.01-0.94-0.01-1.42-0.01l-26.94-0.05c-14.64-0.03-29.29-0.05-43.93-0.07   c-0.38,0-0.76-0.01-1.14-0.02c-0.41-0.01-0.82-0.02-1.23-0.02c-1.02,0-1.79,0.07-2.51,0.23c-1.34,0.29-3.21,0.9-4.58,2.08   c-1.73,1.5-2.47,3.78-1.93,5.94c0.53,2.12,2.14,3.68,4.3,4.18c2.77,0.64,5.77,0.65,8.18,0.65c11.05,0.03,21.91,0.03,30.13,0.03   l14.09,0l13.95,0l1.35,0l1.34,0c0.44,0,0.88,0,1.31,0.01c9.73,0.09,17.34,5.75,19.88,14.77c2.04,7.27,2.14,14.89,0.3,22.64   c-0.77,3.23-2.38,6.39-4.92,9.68c-2.9,3.75-6.46,5.57-10.87,5.57c-0.13,0-0.25,0-0.38,0c-0.6-0.01-1.2-0.02-1.8-0.02   c-0.71,0-1.42,0.01-2.14,0.01c-0.7,0.01-1.4,0.01-2.1,0.01l-18.39,0l-9.19,0l-9.19,0h-1v0.07c-3.72,0-7.44-0.02-11.15-0.04   c-4.05-0.02-8.11-0.04-12.16-0.04c-6.66,0-12.11,0.06-17.16,0.17c-0.17,0-0.34,0.01-0.51,0.01c-2.98,0-5.03-0.63-6.25-1.93   c-1.17-1.25-1.66-3.21-1.5-6c0.06-0.98,0.06-1.96,0.06-2.91c0-1.29,0-2.5,0.13-3.71c0.32-2.9,1.76-4.4,4.68-4.86   c2.03-0.32,4.06-0.34,6.51-0.35c14.92-0.02,29.84-0.02,44.76-0.02c9.15,0,18.3,0,27.45-0.01h0.06l0.9,0l0.91,0   c1.36,0,2.82-0.02,4.25-0.18c3.24-0.35,5.48-2.44,5.85-5.46c0.36-2.92-1.39-5.64-4.35-6.75c-1.27-0.48-2.71-0.79-4.17-0.9   c-1.24-0.09-2.48-0.11-3.43-0.11c-0.45,0-0.89,0-1.34,0.01c-0.44,0-0.88,0.01-1.32,0.01h-0.76h-0.76c-14.77,0-29.54,0-44.32,0.01   l-13.01,0c-0.27,0-0.54-0.01-0.81-0.02c-0.29-0.01-0.59-0.02-0.88-0.02c-0.42,0-0.78,0.02-1.11,0.06c-0.8,0.1-1.58,0.16-2.33,0.16   c-6.12,0-10.77-3.54-13.83-10.51c-4.58-10.45-4.68-20.64-0.29-30.29c2.78-6.12,6.46-9.6,11.57-10.94c1.82-0.48,3.78-0.73,5.66-0.73   C824.64,504.6,828.8,504.6,832.95,504.6 M832.95,503.6c-4.16,0-8.31,0-12.47,0c-1.97,0-4,0.26-5.91,0.77   c-6.11,1.61-9.76,6.06-12.23,11.5c-4.71,10.37-4.17,20.94,0.29,31.11c2.83,6.46,7.41,11.11,14.74,11.11c0.79,0,1.61-0.05,2.46-0.16   c0.32-0.04,0.65-0.06,0.98-0.06c0.56,0,1.13,0.04,1.69,0.04c0,0,0,0,0,0c19.11,0,38.22-0.01,57.33-0.01c0.51,0,1.01,0,1.52,0   c0.89,0,1.78-0.01,2.66-0.01c1.12,0,2.24,0.02,3.35,0.1c1.31,0.1,2.66,0.37,3.89,0.84c2.59,0.97,4,3.28,3.71,5.69   c-0.31,2.5-2.1,4.28-4.97,4.59c-1.37,0.15-2.75,0.17-4.14,0.17c-0.6,0-1.2,0-1.81,0c-0.02,0-0.04,0-0.06,0   c-24.07,0.01-48.14,0-72.22,0.03c-2.22,0-4.47,0.02-6.66,0.36c-3.37,0.52-5.16,2.41-5.53,5.74c-0.24,2.21-0.06,4.46-0.19,6.68   c-0.35,5.8,1.95,8.99,8.74,8.99c0.17,0,0.35,0,0.53-0.01c5.71-0.13,11.42-0.17,17.14-0.17c8.1,0,16.21,0.08,24.32,0.08   c0-0.02,0-0.04,0-0.07c6.13,0,12.26,0,18.39,0c6.13,0,12.26,0,18.39,0c1.41,0,2.83-0.03,4.24-0.03c0.59,0,1.19,0,1.78,0.02   c0.14,0,0.27,0,0.41,0c4.88,0,8.67-2.09,11.66-5.96c2.35-3.04,4.21-6.32,5.1-10.06c1.84-7.73,1.83-15.52-0.31-23.14   c-2.7-9.62-10.74-15.41-20.83-15.5c-0.44,0-0.88-0.01-1.32-0.01c-0.9,0-1.79,0.01-2.69,0.01c-9.35,0-18.69,0.01-28.04,0.01   c-10.04,0-20.09-0.01-30.13-0.03c-2.66-0.01-5.39-0.03-7.96-0.63c-3.9-0.9-4.99-5.75-1.94-8.4c1.1-0.96,2.68-1.54,4.14-1.86   c0.74-0.16,1.51-0.21,2.29-0.21c0.79,0,1.59,0.04,2.37,0.04c23.63,0.04,47.25,0.08,70.88,0.12c0.97,0,1.93,0.03,2.9,0.03   c0.82,0,1.63-0.02,2.45-0.09c3.29-0.27,5.42-1.98,6.08-5.22c0.44-2.16,0.48-4.43,0.42-6.64c-0.2-7.28-2.51-9.54-9.66-9.69   c-0.13,0-0.26,0-0.39,0c-0.08,0-0.15,0-0.23,0c-0.02,0-0.03,0-0.05,0C876.35,503.64,854.65,503.6,832.95,503.6L832.95,503.6z" />
</g>
<g
   style="fill:#070740;fill-opacity:1"
   id="g1814">
	<path
   style="fill:#070740;fill-opacity:1"
   id="path1810"
   d="M1524.7,591.26c-3.59,0-6.97-0.09-10.24-0.18c-3.18-0.09-6.18-0.17-9.28-0.17c-2.26,0-4.34,0.04-6.34,0.14   c-0.32,0.01-0.63,0.02-0.95,0.02c-0.96,0-1.94-0.06-2.88-0.12c-0.39-0.02-0.79-0.05-1.17-0.07c-2.35-0.12-4.29-1.87-4.62-4.16   c-1.67-11.82-0.9-20.85,8.12-29.36c1.34-1.27,6.03-4.2,7.84-4.9c2.09-0.81,4.02-1.61,5.89-2.39c3.37-1.4,6.56-2.72,10.34-3.97   c11.1-3.65,20.3-6.83,30.76-10.64c1.84-0.61,2.93-0.94,3.76-1.2c1.86-0.56,2.42-0.73,7.27-2.81c0.04-0.01,7.37-2.83,8-5.19   l0.16-0.61l-0.64-0.02c-1.77-0.04-3.52-0.1-5.28-0.15c-3.74-0.11-7.61-0.23-11.4-0.24c-8.24-0.03-16.47-0.03-24.71-0.03h-26.14   c-1.49,0-2.99-0.02-4.48-0.05c-1.41-0.02-2.81-0.04-4.22-0.05c-2.92-0.01-4.88-1.56-5.25-4.16c-0.49-3.42-0.48-7.02,0.05-10.42   c0.45-2.89,2.08-4.1,5.82-4.31c0.88-0.05,1.75-0.06,2.41-0.06l2.24,0.01l64.23,0.02c3.31,0,6.62-0.01,9.93-0.02   c3.31-0.01,6.62-0.02,9.93-0.02c2.52,0,5.04,0.01,7.55,0.02c2.89,0.02,4.73,0.21,5.58,1.13c0.72,0.79,0.91,2.22,0.68,5.27   c-0.17,5.23-0.18,8.18-0.19,13.53l0,0.5c0.47,6.79-4.87,13.03-8.36,15.37c-0.68,0.57-3.55,2.2-4.33,2.54   c-5.6,2.4-9.03,3.7-14.73,5.86l-0.29,0.11c-5.35,2.03-10.85,3.93-16.18,5.77c-2.16,0.75-4.32,1.49-6.48,2.25   c-0.66,0.23-1.32,0.45-1.99,0.66c-0.82,0.26-1.64,0.53-2.45,0.83c-2.29,0.83-3.48,1.28-4.28,1.58c-1.58,0.59-1.58,0.59-5.57,1.92   l-3,1c-2.34,0.9-2.83,1.1-3.94,1.56l-1.09,0.45l-2.03,1.01c-0.95,0.48-2.44,1.4-4.13,3.09l-0.84,0.84l1.19,0.01   c2.97,0.03,6.06,0.04,9.23,0.04c6.65,0,13.72-0.05,20.56-0.09c6.8-0.04,13.55-0.09,19.86-0.09c1.19,0,4.19,0.01,4.19,0.01   c3.11,0,6.26-0.06,9.32-0.12c3.05-0.06,6.2-0.12,9.3-0.12h0.11c6,0,7.9,1.86,8.15,7.94c0.08,1.84,0.12,4.26-0.19,6.59   c-0.46,3.4-2.23,5.06-5.74,5.38c-0.82,0.07-1.65,0.08-2.35,0.08l-1.62-0.01c-5.93-0.01-11.86-0.05-17.79-0.1   c-6.36-0.05-12.94-0.1-19.42-0.1c-8.83,0-16.14,0.09-23.02,0.29C1527.9,591.24,1526.28,591.26,1524.7,591.26z" />
	<path
   style="fill:#070740;fill-opacity:1"
   id="path1812"
   d="M1583.88,506.67c2.51,0,5.03,0.01,7.54,0.02c2.68,0.02,4.49,0.19,5.21,0.97c0.61,0.66,0.76,2.03,0.55,4.94   c-0.17,5.22-0.18,8.17-0.18,13.53l0,0.5l0,0.04l0,0.04c0.46,6.54-4.75,12.6-8.14,14.89l-0.05,0.03l-0.04,0.04   c-0.54,0.46-3.37,2.09-4.16,2.43c-5.59,2.4-9.03,3.7-14.73,5.86l-0.27,0.1c-5.34,2.03-10.84,3.93-16.16,5.77   c-2.16,0.75-4.33,1.5-6.49,2.25c-0.65,0.23-1.31,0.44-1.97,0.65c-0.81,0.26-1.65,0.53-2.47,0.83c-2.29,0.84-3.48,1.28-4.28,1.58   c-1.57,0.59-1.57,0.59-5.55,1.91l-3.04,1.01c-2.33,0.89-2.83,1.1-3.94,1.56l-1.09,0.45l-0.03,0.01l-0.03,0.02l-2,1   c-0.98,0.49-2.52,1.44-4.26,3.19l-1.68,1.69l2.38,0.02c2.81,0.02,5.82,0.04,9.23,0.04c6.66,0,13.73-0.05,20.57-0.09   c6.66-0.04,13.55-0.09,19.86-0.09c1.18,0,2.35,0,3.5,0l0.7,0c3.11,0,6.26-0.06,9.31-0.12c3.04-0.06,6.19-0.12,9.28-0.12h0.11   c5.7,0,7.41,1.68,7.65,7.46c0.07,1.83,0.12,4.21-0.19,6.5c-0.43,3.17-2.01,4.65-5.29,4.94c-0.8,0.07-1.61,0.08-2.3,0.08   c-0.28,0-0.57,0-0.85,0l-0.78,0c-5.92-0.01-11.95-0.05-17.78-0.1c-6.36-0.05-12.94-0.1-19.42-0.1c-8.84,0-16.16,0.09-23.04,0.29   c-1.58,0.04-3.17,0.06-4.86,0.06c-3.58,0-6.96-0.09-10.22-0.18c-3.18-0.09-6.18-0.17-9.29-0.17c-2.27,0-4.36,0.05-6.37,0.14   c-0.31,0.01-0.61,0.02-0.92,0.02c-0.95,0-1.92-0.06-2.87-0.11c-0.39-0.02-0.78-0.05-1.17-0.07c-2.11-0.11-3.86-1.68-4.15-3.73   c-1.65-11.66-0.89-20.56,7.97-28.92c1.28-1.21,5.95-4.12,7.68-4.8c2.09-0.81,4.03-1.62,5.89-2.39c3.36-1.4,6.54-2.72,10.31-3.96   c11.09-3.65,20.29-6.83,30.75-10.63c1.85-0.62,2.95-0.95,3.76-1.2c1.87-0.57,2.44-0.74,7.31-2.83c0.64-0.24,7.62-2.96,8.31-5.52   l0.33-1.23l-1.27-0.03c-1.77-0.04-3.52-0.1-5.27-0.15c-3.74-0.11-7.62-0.23-11.42-0.24c-8.75-0.03-17.42-0.03-24.74-0.03l-8.55,0   l-8.54,0c-3.01,0-6.01,0-9.02,0c-1.49,0-2.99-0.02-4.48-0.05c-1.41-0.02-2.81-0.04-4.22-0.05c-2.64-0.01-4.42-1.4-4.76-3.73   c-0.49-3.37-0.47-6.93,0.05-10.27c0.41-2.64,1.86-3.69,5.36-3.89c0.87-0.05,1.73-0.05,2.38-0.05c0.37,0,0.75,0,1.12,0   c0.37,0,0.75,0,1.12,0l24.83,0.01c12.66,0,25.32,0.01,37.98,0.01h1.42c3.31,0,6.61-0.01,9.92-0.02   C1577.24,506.68,1580.56,506.67,1583.88,506.67 M1583.88,505.67c-6.62,0-13.25,0.04-19.87,0.04c-0.47,0-0.95,0-1.42,0   c-20.94,0-41.88-0.01-62.81-0.02c-0.75,0-1.49-0.01-2.24-0.01c-0.81,0-1.63,0.01-2.44,0.06c-3.69,0.21-5.78,1.41-6.29,4.73   c-0.53,3.46-0.55,7.11-0.05,10.57c0.41,2.82,2.59,4.58,5.75,4.59c2.9,0.01,5.8,0.09,8.7,0.09c3.01,0,6.01,0,9.02,0   c5.7,0,11.39,0,17.09,0c8.25,0,16.49,0.01,24.74,0.03c5.53,0.02,11.06,0.25,16.67,0.39c-0.49,1.85-6.55,4.45-7.72,4.85   c-7,3-5,2-11,4c-11,4-20.17,7.15-30.75,10.63c-5.93,1.95-10.44,4.11-16.25,6.37c-1.82,0.71-6.59,3.67-8,5   c-9.04,8.53-10.01,17.53-8.28,29.79c0.36,2.55,2.51,4.46,5.09,4.59c1.34,0.07,2.72,0.18,4.09,0.18c0.32,0,0.65-0.01,0.97-0.02   c2.15-0.1,4.25-0.14,6.32-0.14c6.35,0,12.49,0.35,19.51,0.35c1.58,0,3.2-0.02,4.88-0.06c7.67-0.22,15.34-0.29,23.01-0.29   c12.4,0,24.8,0.18,37.2,0.2c0.54,0,1.08,0.01,1.63,0.01c0.8,0,1.59-0.01,2.39-0.09c3.7-0.33,5.69-2.1,6.19-5.81   c0.3-2.2,0.29-4.45,0.2-6.67c-0.26-6.29-2.4-8.41-8.65-8.42c-0.04,0-0.07,0-0.11,0c-6.2,0-12.39,0.24-18.59,0.24   c-0.23,0-0.46,0-0.69,0c-1.15,0-2.32,0-3.5,0c-12.74,0-27.24,0.18-40.43,0.18c-3.16,0-6.25-0.01-9.22-0.04c0.4-0.4,2-2,4-3l2-1   c2.07-0.85,2.06-0.88,5-2l3-1c6-2,3-1,9.86-3.5c1.46-0.53,2.96-0.97,4.43-1.48c7.57-2.66,15.18-5.19,22.67-8.03   c5.8-2.2,9.34-3.54,15.04-5.98c0.81-0.35,3.75-2.02,4.41-2.58c3.59-2.42,9.06-8.84,8.58-15.79c0.01-5.63,0.01-8.63,0.19-13.99   c0.45-6.02-0.52-6.9-6.75-6.94C1588.91,505.68,1586.39,505.67,1583.88,505.67L1583.88,505.67z" />
</g>
<g
   style="fill:#070740;fill-opacity:1"
   id="g1820">
	<path
   style="fill:#070740;fill-opacity:1"
   id="path1816"
   d="M1751.26,591.01c-4.59-0.01-6.37-1.56-7.04-6.15c-0.17-1.14-0.24-2.42-0.21-3.92c0.15-8.63,0.29-15.23,0.46-21.39   c0.04-1.43,0.22-2.96,0.53-4.56c0.45-2.3,1.24-2.98,3.66-3.13l3.29-0.21c4.82-0.31,9.79-0.63,14.69-0.66   c7.66-0.04,15.74-0.06,26.2-0.06c5.05,0,31.98,0.02,31.98,0.02c0.47,0,0.94,0.01,1.4,0.01c0.47,0.01,0.95,0.01,1.42,0.01   c1.03,0,1.82-0.03,2.57-0.09c5.33-0.44,9.98-4.47,11.29-9.81c1.38-5.61-1.02-11.88-5.59-14.58c-1.52-0.9-3.33-1.28-4.58-1.44   c-1.25-0.16-2.48-0.18-3.52-0.18c-0.44,0-2.15,0.02-2.56,0.02c-17.18,0.02-34.36,0.05-51.54,0.08c0,0-19.35,0.03-19.35,0.03   c-0.39,0-0.75-0.01-1.1-0.02c-0.36-0.01-0.73-0.02-1.09-0.02c-0.4,0-0.79,0.01-1.19,0.04c-0.18,0.02-0.36,0.02-0.53,0.02   c-3.09,0-5.54-2.35-5.7-5.46c-0.15-2.96-0.24-6.44,0.19-9.9c0.38-3.01,2.01-4.46,5.46-4.82c1.3-0.14,2.61-0.15,3.96-0.15   c14.18-0.01,28.36-0.01,42.54-0.01c10.34,0,20.68,0,31.02,0.01c2.21,0,4.47,0.16,6.64,0.31c6.53,0.45,11.68,3.47,15.75,9.24   c2.71,3.83,4.42,8.11,5.08,12.72c1.2,8.26,1.17,15.61-0.08,22.48c-1.93,10.59-5.63,15.44-16.48,21.61l-0.44,0.25l0.26,0.44   c0.39,0.67,0.75,1.31,1.09,1.92c0.71,1.27,1.38,2.46,2.16,3.56c2.11,2.96,1.94,6.26,1.52,9.96c-0.31,2.74-2.76,3.42-4.19,3.58   c-0.2,0.02-0.41,0.03-0.62,0.03l-0.21,0c-1.03,0.02-1.95,0.03-2.77,0.03c-5.79,0-6.61-0.51-11.03-6.86   c-0.88-1.27-1.76-2.55-2.63-3.83c-1.36-2-2.77-4.07-4.21-6.06c-2.03-2.83-4.86-4.26-8.39-4.26l-12.17,0.03   c-10.89,0.02-21.78,0.05-32.67,0.11c-1.06,0.01-2.11,0.2-3.24,0.4c-0.55,0.1-1.14,0.21-1.76,0.3l-0.38,0.06l-0.05,0.38   c-0.08,0.6-0.16,1.17-0.24,1.74c-0.18,1.23-0.35,2.4-0.41,3.59c-0.06,1.28-0.05,2.58-0.05,3.84c0,1.81,0.01,3.68-0.17,5.49   c-0.33,3.45-2.03,5.02-5.67,5.26c-0.36,0.02-0.73,0.03-1.1,0.03H1751.26z" />
	<path
   style="fill:#070740;fill-opacity:1"
   id="path1818"
   d="M1796.87,505.19c10.34,0,20.69,0,31.03,0.01c2.19,0,4.43,0.16,6.61,0.31c6.37,0.44,11.4,3.39,15.38,9.03   c2.66,3.77,4.34,7.97,5,12.5c1.19,8.21,1.16,15.51-0.08,22.31c-1.92,10.54-5.41,15.11-16.23,21.26l-0.88,0.5l0.51,0.87   c0.39,0.67,0.75,1.31,1.09,1.92c0.71,1.28,1.39,2.49,2.19,3.61c2.01,2.82,1.84,6.02,1.43,9.62c-0.27,2.39-2.46,2.99-3.75,3.14   c-0.19,0.02-0.38,0.02-0.57,0.03l-0.21,0c-1.03,0.02-1.94,0.03-2.76,0.03c-5.6,0-6.3-0.43-10.62-6.64   c-0.88-1.26-1.75-2.54-2.62-3.81c-1.37-2.01-2.78-4.08-4.23-6.09c-2.13-2.97-5.1-4.47-8.84-4.47c-4.04,0.01-8.07,0.02-12.11,0.03   c-10.71,0.02-21.79,0.05-32.69,0.11c-1.1,0.01-2.18,0.2-3.32,0.41c-0.55,0.1-1.13,0.2-1.74,0.3l-0.75,0.11l-0.1,0.75   c-0.08,0.59-0.16,1.16-0.24,1.72c-0.18,1.25-0.36,2.43-0.41,3.64c-0.06,1.29-0.05,2.6-0.05,3.86c0,1.8,0.01,3.65-0.16,5.44   c-0.31,3.19-1.81,4.59-5.21,4.81c-0.33,0.02-0.67,0.03-1.08,0.03l-0.19,0c-4.32-0.01-5.91-1.4-6.55-5.72   c-0.16-1.11-0.23-2.37-0.21-3.84c0.1-5.84,0.24-13.54,0.46-21.38c0.04-1.4,0.21-2.9,0.52-4.48c0.41-2.1,0.98-2.59,3.2-2.72   c1.1-0.07,2.2-0.14,3.3-0.21c4.8-0.31,9.77-0.63,14.65-0.66c7.54-0.04,15.84-0.06,26.12-0.06c5.07,0,10.15,0,15.22,0.01   c5.07,0,10.15,0.01,15.22,0.01l1.63,0c0.46,0,0.93,0.01,1.39,0.01c0.47,0.01,0.95,0.01,1.42,0.01c1.04,0,1.84-0.03,2.6-0.09   c5.55-0.45,10.37-4.65,11.73-10.19c1.43-5.82-1.07-12.32-5.82-15.13c-1.6-0.94-3.48-1.34-4.77-1.51c-1.28-0.16-2.53-0.19-3.58-0.19   c-0.44,0-0.89,0-1.33,0.01c-0.41,0-0.82,0.01-1.22,0.01c-17.44,0.02-34.88,0.05-52.32,0.08l-18.6,0.03c-0.35,0-0.7-0.01-1.06-0.02   c-0.37-0.01-0.74-0.02-1.11-0.02c-0.47,0-0.86,0.01-1.23,0.05c-0.17,0.01-0.33,0.02-0.49,0.02c-2.82,0-5.05-2.14-5.2-4.99   c-0.15-2.93-0.24-6.4,0.19-9.81c0.35-2.78,1.8-4.05,5.01-4.39c1.27-0.14,2.57-0.15,3.9-0.15   C1768.51,505.19,1782.69,505.19,1796.87,505.19 M1796.87,504.19c-14.18,0-28.36,0.01-42.53,0.01c-1.34,0-2.68,0.01-4.01,0.15   c-3.51,0.37-5.47,1.86-5.9,5.26c-0.41,3.29-0.36,6.66-0.19,9.99c0.16,3.24,2.73,5.94,6.19,5.94c0.19,0,0.38-0.01,0.57-0.02   c0.38-0.03,0.76-0.04,1.15-0.04c0.72,0,1.44,0.04,2.16,0.04c0.01,0,0.02,0,0.03,0c23.63-0.04,47.26-0.08,70.89-0.11   c0.85,0,1.7-0.02,2.55-0.02c1.16,0,2.32,0.03,3.46,0.18c1.51,0.19,3.1,0.61,4.39,1.38c4.44,2.63,6.67,8.7,5.36,14.03   c-1.26,5.14-5.65,9.01-10.84,9.43c-0.84,0.07-1.68,0.09-2.52,0.09c-0.94,0-1.88-0.02-2.81-0.02c0,0-0.01,0-0.01,0   c-0.54,0-1.08,0-1.62,0c-10.15,0-20.29-0.02-30.44-0.02c-8.71,0-17.42,0.01-26.13,0.06c-6,0.03-12.01,0.5-18,0.87   c-2.7,0.17-3.63,1.02-4.12,3.53c-0.3,1.53-0.5,3.09-0.54,4.64c-0.2,7.13-0.33,14.26-0.46,21.39c-0.02,1.33,0.02,2.68,0.22,4   c0.71,4.84,2.74,6.57,7.54,6.58c0.07,0,0.13,0,0.2,0c0.38,0,0.76,0,1.14-0.03c3.77-0.25,5.78-1.94,6.14-5.71   c0.3-3.1,0.08-6.24,0.22-9.35c0.07-1.71,0.41-3.4,0.65-5.29c1.9-0.28,3.41-0.69,4.93-0.69c14.93-0.08,29.87-0.1,44.8-0.14   c0.01,0,0.02,0,0.03,0c3.35,0,6.05,1.36,7.99,4.06c2.34,3.25,4.54,6.6,6.83,9.89c4.4,6.33,5.33,7.07,11.44,7.07   c0.88,0,1.87-0.02,2.99-0.03c0.22,0,0.45-0.01,0.67-0.03c2.55-0.29,4.36-1.65,4.63-4.02c0.4-3.54,0.67-7.11-1.61-10.31   c-1.14-1.59-2.01-3.37-3.23-5.45c10.88-6.18,14.72-11,16.72-21.95c1.36-7.48,1.17-15.12,0.09-22.64   c-0.67-4.63-2.41-9.03-5.17-12.94c-3.95-5.6-9.19-8.97-16.13-9.45c-2.22-0.15-4.45-0.31-6.68-0.31   C1817.55,504.19,1807.21,504.19,1796.87,504.19L1796.87,504.19z" />
</g>
<g
   style="fill:#070740;fill-opacity:1"
   id="g1826">
	<path
   style="fill:#070740;fill-opacity:1"
   id="path1822"
   d="M671.28,591.28c-1.06,0-2.29-0.12-3.88-0.36c-2.72-0.42-3.94-1.69-4.18-4.37c-0.44-4.76,0.31-8.41,2.41-11.84   c6.38-10.37,12.76-20.98,18.93-31.23c4.29-7.12,8.57-14.24,12.89-21.35c2.4-3.95,5.4-7.63,9.16-11.27   c4.07-3.93,8.93-5.76,15.3-5.76c1.65,0,3.41,0.12,5.4,0.36c4.75,0.59,8.76,3.05,13,8c2.36,2.76,4.46,5.64,6.23,8.56   c5.04,8.3,10.11,16.78,15.01,24.98c3.47,5.8,6.94,11.61,10.43,17.4c2.45,4.06,4.7,7.56,6.88,10.71c2.64,3.79,2.47,8.11,2.11,11.86   c-0.21,2.21-1.58,3.51-3.95,3.75c-1.17,0.12-2.34,0.14-3.74,0.14l-1.55,0c-17.72,0-35.44-0.01-53.16-0.01l-18.38,0   c-0.52,0.02-1,0.03-1.46,0.03c-2.6,0-4.02-0.37-4.89-1.27c-1.07-1.11-1.48-3.26-1.35-6.96c0.08-2.05,0.35-4.46,1.78-6.74   c2.39-3.81,5.39-5.52,9.74-5.52l0.29,0c6.39,0.11,13.16,0.16,21.97,0.16c0,0,0.01,0,0.01,0c4,0,8-0.01,12-0.02l8.15-0.02   c0.36,0,0.7,0.01,1.04,0.02c0.37,0.01,0.74,0.02,1.11,0.02c1.5,0,3.31-0.18,5.4-1.52l0.4-0.26l-0.23-0.41   c-0.67-1.19-1.31-2.34-1.94-3.46c-1.32-2.36-2.56-4.58-3.86-6.77c-1.87-3.14-3.75-6.26-5.64-9.39c-2.78-4.61-5.66-9.38-8.42-14.11   c-1.41-2.42-3.46-5.47-6.73-7.59c-1.88-1.22-3.73-1.84-5.5-1.84c-1.95,0-3.83,0.75-5.59,2.22c-2.32,1.94-4.31,4.23-5.75,6.61   c-7.57,12.44-15.18,25.15-22.54,37.43c-2.47,4.13-4.94,8.26-7.42,12.38c-0.13,0.21-0.26,0.42-0.4,0.63   c-0.1,0.16-0.21,0.33-0.31,0.49C677.06,589.87,675.09,591.28,671.28,591.28z" />
	<path
   style="fill:#070740;fill-opacity:1"
   id="path1824"
   d="M721.92,505.6c1.62,0,3.37,0.12,5.34,0.36c4.62,0.57,8.53,2.98,12.68,7.83c2.34,2.74,4.43,5.59,6.19,8.5   c5.03,8.29,10.1,16.76,14.99,24.95c3.48,5.81,6.95,11.63,10.45,17.43c2.45,4.08,4.71,7.59,6.9,10.73   c2.54,3.65,2.38,7.86,2.03,11.52c-0.19,1.97-1.37,3.09-3.5,3.3c-1.15,0.12-2.31,0.14-3.69,0.14l-0.77,0l-0.77,0   c-18.87,0-37.74-0.01-56.61-0.01l-14.25-0.01l-0.19,0l-0.21,0c-0.1,0-0.2,0-0.3,0c-0.51,0.02-0.99,0.03-1.44,0.03   c-2.45,0-3.76-0.32-4.53-1.12c-0.97-1-1.34-3.04-1.21-6.6c0.1-2.81,0.61-4.76,1.7-6.5c2.28-3.65,5.16-5.28,9.31-5.28l0.28,0   c6.4,0.11,13.18,0.16,22.01,0.16c3.99,0,7.99-0.01,11.98-0.02c2.71-0.01,5.43-0.01,8.16-0.02c0.33,0,0.67,0.01,1,0.02   c0.37,0.01,0.75,0.02,1.13,0.02c1.57,0,3.48-0.19,5.68-1.6l0.79-0.51l-0.47-0.82c-0.67-1.18-1.31-2.32-1.93-3.44   c-1.32-2.37-2.57-4.6-3.88-6.8c-1.87-3.14-3.78-6.32-5.64-9.39c-2.78-4.61-5.66-9.38-8.42-14.1c-1.44-2.47-3.53-5.58-6.89-7.76   c-1.96-1.27-3.9-1.92-5.77-1.92c-2.07,0-4.06,0.79-5.91,2.34c-2.36,1.98-4.38,4.31-5.86,6.73c-7.57,12.43-15.17,25.12-22.51,37.39   c-2.48,4.14-4.96,8.29-7.45,12.43c-0.12,0.21-0.25,0.41-0.38,0.61c-0.11,0.17-0.22,0.34-0.32,0.51c-2.9,4.71-4.77,6.07-8.36,6.07   c-1.03,0-2.24-0.11-3.8-0.36c-2.52-0.39-3.54-1.46-3.76-3.92c-0.43-4.64,0.29-8.2,2.34-11.53c6.38-10.37,12.76-20.98,18.93-31.23   c4.22-7,8.57-14.25,12.89-21.35c2.38-3.91,5.35-7.56,9.08-11.17C710.94,507.39,715.69,505.6,721.92,505.6 M721.92,504.6   c-5.7,0-11.01,1.42-15.65,5.9c-3.57,3.45-6.69,7.18-9.24,11.37c-10.64,17.51-21.09,35.13-31.82,52.58   c-2.39,3.89-2.88,7.87-2.49,12.15c0.27,2.98,1.7,4.37,4.6,4.82c1.51,0.24,2.81,0.37,3.95,0.37c4.14,0,6.25-1.73,9.22-6.54   c0.23-0.38,0.48-0.75,0.71-1.13c9.97-16.62,19.88-33.26,29.96-49.81c1.47-2.42,3.47-4.66,5.65-6.48c1.71-1.43,3.47-2.11,5.27-2.11   c1.71,0,3.46,0.61,5.23,1.76c2.88,1.86,4.85,4.48,6.57,7.42c4.6,7.88,9.39,15.66,14.06,23.5c1.92,3.23,3.71,6.53,5.8,10.22   c-1.94,1.24-3.6,1.45-5.13,1.45c-0.73,0-1.44-0.05-2.13-0.05c-0.01,0-0.01,0-0.02,0c-6.71,0.01-13.41,0.04-20.12,0.04   c-7.33,0-14.66-0.03-21.99-0.16c-0.1,0-0.2,0-0.3,0c-4.66,0-7.76,1.92-10.16,5.75c-1.37,2.19-1.76,4.5-1.85,6.99   c-0.28,7.45,1.62,8.75,6.73,8.75c0.47,0,0.96-0.01,1.48-0.03c0.09,0,0.17,0,0.26,0c0.14,0,0.27,0,0.41,0   c23.62,0.01,47.24,0.02,70.86,0.02c0.52,0,1.03,0,1.55,0c1.27,0,2.54-0.02,3.79-0.15c2.58-0.26,4.15-1.7,4.39-4.2   c0.41-4.24,0.42-8.42-2.2-12.19c-2.41-3.47-4.68-7.05-6.86-10.68c-8.5-14.11-16.9-28.29-25.44-42.38   c-1.84-3.03-3.97-5.93-6.28-8.63c-3.53-4.11-7.65-7.47-13.32-8.17C725.53,504.74,723.71,504.6,721.92,504.6L721.92,504.6z" />
</g>
<g
   style="fill:#070740;fill-opacity:1"
   id="g1832">
	<path
   style="fill:#070740;fill-opacity:1"
   id="path1828"
   d="M1083.21,592.11c-5.88,0-10.57-2.17-14.73-6.83c-6.56-7.33-10.34-16.18-11.25-26.3c-0.66-7.29-0.67-14.67-0.04-21.95   c0.9-10.41,4.79-19.45,11.56-26.85c3.95-4.32,8.4-6.43,13.58-6.43l0.39,0c0.97,0,1.94-0.03,2.91-0.06c0.95-0.03,1.9-0.06,2.84-0.06   l3.13,0c10.44-0.01,20.89-0.01,31.33-0.01c7.69,0,15.39,0,23.08,0.01c2.4,0,4.76,0.09,7.26,0.19c1.04,0.04,2.09,0.08,3.15,0.11   c0.12,0.35,0.24,0.68,0.36,0.99c0.28,0.74,0.53,1.38,0.53,1.97c0,1.29,0.06,2.59,0.11,3.85c0.14,3.57,0.27,6.95-0.54,10.17   c-1.19,1.14-2.47,1.23-3.79,1.23l-1.06,0l-3.25,0.03c-7.49,0.07-15.23,0.15-22.84,0.16c-3.02,0-6.03,0.02-9.05,0.03   c-3.75,0.02-7.51,0.04-11.26,0.04c-6.69,0-12.14-0.06-17.15-0.19c-0.21-0.01-0.42-0.01-0.63-0.01c-7.74,0-12.9,3.65-16.22,11.5   c-3.94,9.29-4.04,18.6-0.3,27.69l0.24,0.6c0.51,1.26,1.04,2.57,1.82,3.7c3.71,5.4,7.85,7.8,13.41,7.8l0.21,0   c7.02-0.08,14.58-0.12,23.79-0.12c5.83,0,11.66,0.01,17.49,0.03c4.97,0.01,9.94,0.03,14.92,0.03l4.19-0.01   c1.94,0,4.22,0.01,6.49,0.12c2.43,0.11,3.33,0.93,3.42,3.13c0.19,4.49,0.33,9.34-0.19,14.89c-0.78,0.07-1.5,0.13-2.17,0.2   c-1.5,0.14-2.79,0.27-4.05,0.27c-5.92,0.01-11.85,0.01-17.77,0.01l-14.56,0c-13.07,0-24.06,0.01-35.24,0.07H1083.21z" />
	<path
   style="fill:#070740;fill-opacity:1"
   id="path1830"
   d="M1122.8,504.12c7.73,0,15.47,0,23.2,0.01c2.39,0,4.75,0.09,7.24,0.19c0.93,0.03,1.87,0.07,2.81,0.1   c0.09,0.24,0.17,0.47,0.25,0.68c0.28,0.72,0.49,1.29,0.5,1.79c0,1.29,0.06,2.6,0.11,3.87c0.14,3.48,0.27,6.78-0.49,9.89   c-1.03,0.92-2.13,1-3.34,1l-0.42,0l-0.43,0l-0.21,0l-3.33,0.03c-7.46,0.07-15.17,0.15-22.76,0.16c-3.02,0.01-6.05,0.02-9.07,0.03   c-3.75,0.02-7.5,0.04-11.24,0.04c-6.69,0-12.13-0.06-17.13-0.19c-0.21-0.01-0.43-0.01-0.64-0.01c-7.86,0-13.32,3.86-16.69,11.8   c-3.99,9.41-4.09,18.86-0.3,28.08l0.24,0.6c0.52,1.29,1.06,2.62,1.87,3.8c3.81,5.55,8.08,8.02,13.82,8.02l0.22,0   c7.02-0.08,14.59-0.12,23.8-0.12c5.83,0,11.66,0.01,17.49,0.03c4.97,0.01,9.93,0.02,14.9,0.03l0.25,0l1.96,0l1.96,0   c1.94,0,4.24,0.01,6.49,0.12c2.41,0.11,2.87,0.94,2.94,2.65c0.18,4.36,0.32,9.06-0.15,14.4c-0.62,0.05-1.2,0.11-1.75,0.16   c-1.49,0.14-2.77,0.27-4.02,0.27c-6,0.01-12,0.01-18,0.01l-7.07,0l-7.07,0c-13.17,0-24.24,0.01-35.44,0.07l-0.11,0   c-5.73,0-10.3-2.12-14.36-6.66c-6.48-7.25-10.23-16-11.13-26.01c-0.65-7.26-0.67-14.62-0.04-21.86   c0.89-10.3,4.73-19.24,11.43-26.56c3.85-4.21,8.18-6.26,13.21-6.26l0.11,0l0.27,0c0.98,0,1.97-0.03,2.92-0.06   c0.93-0.03,1.89-0.06,2.83-0.06l2.84,0C1101.81,504.13,1112.31,504.12,1122.8,504.12 M1122.8,503.12   c-11.44,0-22.89,0.01-34.33,0.02c-1.92,0-3.83,0.12-5.75,0.12c-0.09,0-0.18,0-0.27,0c-0.04,0-0.08,0-0.12,0   c-5.69,0-10.17,2.46-13.95,6.59c-7.05,7.71-10.81,16.94-11.69,27.15c-0.63,7.3-0.61,14.74,0.04,22.04   c0.9,9.96,4.57,18.97,11.38,26.59c4.09,4.58,8.89,6.99,15.1,6.99c0.04,0,0.08,0,0.12,0c11.81-0.06,23.62-0.07,35.44-0.07   c4.71,0,9.42,0,14.13,0c6,0,12,0,18-0.01c1.96,0,3.92-0.29,6.68-0.51c0.55-5.61,0.44-10.5,0.23-15.37c-0.1-2.48-1.21-3.48-3.9-3.61   c-2.18-0.1-4.36-0.12-6.54-0.12c-1.31,0-2.61,0.01-3.92,0.01c-0.08,0-0.17,0-0.25,0c-10.8-0.01-21.59-0.06-32.39-0.06   c-7.94,0-15.88,0.03-23.82,0.12c-0.07,0-0.14,0-0.21,0c-6.03,0-9.87-3.03-13-7.59c-0.87-1.27-1.42-2.77-2.01-4.21   c-3.76-9.14-3.55-18.23,0.3-27.31c3-7.07,7.73-11.19,15.76-11.19c0.2,0,0.41,0,0.61,0.01c5.71,0.15,11.43,0.19,17.15,0.19   c6.77,0,13.55-0.06,20.32-0.07c8.7-0.01,17.4-0.11,26.09-0.19c0.07,0,0.13,0,0.2,0c0.28,0,0.57,0,0.86,0   c1.43,0,2.89-0.11,4.24-1.47c1.18-4.52,0.5-9.43,0.48-14.29c0-1.02-0.59-2.04-1.03-3.44c-3.71-0.11-7.24-0.3-10.78-0.31   C1138.27,503.13,1130.54,503.12,1122.8,503.12L1122.8,503.12z" />
</g>
<g
   style="fill:#070740;fill-opacity:1"
   id="g1838">
	<path
   style="fill:#070740;fill-opacity:1"
   id="path1834"
   d="M1687.3,592.09c-10.23,0-20.46-0.01-30.69-0.01l-9.93,0c-0.47,0-0.95-0.01-1.42-0.02c-0.48-0.01-0.96-0.02-1.45-0.02   l-0.8,0.01c-4.59,0-8.5-1.82-12.3-5.73c-5.66-5.82-9.28-13.07-11.05-22.17c-1.91-9.77-1.96-19.55-0.14-29.06   c1.69-8.86,5.05-16.02,10.26-21.87c4.05-4.54,8.7-6.75,14.22-6.75h0.59c7.1,0,14.19-0.04,21.29-0.08   c5.64-0.03,11.28-0.06,16.92-0.07l2.93,0c6.24,0,12.48,0.04,18.72,0.07l3.09,0.02c1.38,0.01,2.75,0.06,4.12,0.11   c0.63,0.02,1.25,0.05,1.88,0.06c0.64,0.02,2.72,0.24,2.79,2.21c0.15,3.96,0.14,8.31-0.04,13.29c-0.04,1.26-1.18,1.91-2.29,2   l-1.26,0.1c-3.29,0.26-6.7,0.53-10.04,0.55c-7.57,0.03-15.13,0.04-22.7,0.04l-26.13-0.01c-0.67,0-1.34,0.01-2.01,0.02   c-0.67,0.01-1.33,0.03-1.99,0.03s-1.33-0.01-1.99-0.05c-0.32-0.02-0.63-0.03-0.94-0.03c-5.21,0-9.29,2.53-12.12,7.53   c-6.33,11.16-6.42,22.47-0.28,33.62c2.96,5.36,7.28,7.97,13.23,7.97l0.22,0c7.3-0.08,14.98-0.12,24.16-0.12   c7.71,0,15.42,0.03,23.12,0.05c3.86,0.01,7.71,0.03,11.57,0.04c2.65,0.01,5.26,0.28,7.25,0.52c1.25,0.15,2.16,1.01,2.24,2.15   c0.04,0.53,0.08,1.06,0.13,1.6c0.35,4.36,0.71,8.86-0.85,13.74c-1.05,0.03-2.05,0.07-3.03,0.1c-2.22,0.08-4.31,0.16-6.39,0.16   C1699.91,592.09,1693.6,592.09,1687.3,592.09z" />
	<path
   style="fill:#070740;fill-opacity:1"
   id="path1836"
   d="M1685.74,506.81c6.21,0,12.53,0.04,18.64,0.07l3.17,0.02c1.36,0.01,2.75,0.06,4.1,0.11c0.63,0.02,1.26,0.05,1.89,0.07   c0.68,0.02,2.25,0.23,2.31,1.73c0.15,3.94,0.14,8.28-0.04,13.25c-0.03,0.95-0.94,1.45-1.83,1.52l-1.26,0.1   c-3.28,0.26-6.68,0.53-10,0.54c-6.62,0.03-13.63,0.04-22.74,0.04c-4.2,0-8.4,0-12.61-0.01c-4.2,0-8.39-0.01-12.59-0.01l-0.89,0   c-0.67,0-1.35,0.01-2.02,0.03c-0.66,0.01-1.32,0.02-1.99,0.02c-0.74,0-1.38-0.02-1.96-0.05c-0.33-0.02-0.65-0.03-0.97-0.03   c-5.4,0-9.63,2.62-12.55,7.78c-6.42,11.32-6.51,22.8-0.28,34.11c3.01,5.46,7.61,8.23,13.67,8.23l0.23,0   c7.3-0.08,14.98-0.12,24.17-0.12c7.69,0,15.5,0.03,23.06,0.05c3.87,0.01,7.74,0.03,11.62,0.04c2.63,0.01,5.22,0.28,7.19,0.51   c1.03,0.12,1.73,0.79,1.8,1.69c0.04,0.53,0.08,1.06,0.13,1.59c0.34,4.21,0.69,8.55-0.72,13.22c-0.92,0.03-1.81,0.06-2.67,0.09   c-2.22,0.08-4.31,0.16-6.38,0.16c-6.32,0.01-12.65,0.01-18.97,0.01c-9.77,0-19.54-0.01-29.31-0.01l-11.24-0.01   c-0.47,0-0.94-0.01-1.4-0.02c-0.49-0.01-0.98-0.02-1.46-0.02c-0.17,0-0.33,0-0.5,0c-0.1,0-0.2,0-0.3,0   c-4.45,0-8.24-1.77-11.95-5.58c-5.59-5.75-9.16-12.91-10.92-21.91c-1.89-9.71-1.94-19.42-0.14-28.87   c1.67-8.77,4.99-15.85,10.14-21.63c3.95-4.43,8.48-6.59,13.85-6.59l0.58,0c7.11,0,14.34-0.04,21.33-0.08   c5.63-0.03,11.26-0.06,16.89-0.07C1683.79,506.81,1684.76,506.81,1685.74,506.81 M1685.74,505.81c-0.98,0-1.95,0-2.93,0   c-12.74,0.03-25.47,0.15-38.21,0.15c-0.19,0-0.39,0-0.58,0c0,0,0,0-0.01,0c-6.01,0-10.68,2.54-14.59,6.92   c-5.66,6.35-8.81,13.88-10.38,22.11c-1.86,9.74-1.75,19.55,0.14,29.25c1.64,8.43,5.05,16.12,11.18,22.42   c3.52,3.62,7.55,5.88,12.66,5.88c0.11,0,0.21,0,0.32,0c0.16,0,0.32,0,0.48,0c0.96,0,1.91,0.05,2.87,0.05   c13.52,0.01,27.03,0.02,40.55,0.02c6.32,0,12.65,0,18.97-0.01c3.1,0,6.2-0.17,9.79-0.27c1.92-5.71,1.23-10.81,0.86-15.87   c-0.11-1.43-1.24-2.44-2.68-2.61c-2.42-0.29-4.87-0.51-7.31-0.52c-11.56-0.03-23.12-0.09-34.68-0.09c-8.06,0-16.12,0.03-24.18,0.12   c-0.07,0-0.15,0-0.22,0c-6.07,0-10.12-2.86-12.79-7.71c-6.06-11-5.93-22.2,0.27-33.14c2.56-4.51,6.36-7.27,11.69-7.27   c0.3,0,0.6,0.01,0.91,0.03c0.67,0.04,1.34,0.05,2.02,0.05c1.33,0,2.67-0.05,4-0.05c0.3,0,0.59,0,0.89,0c8.4,0,16.8,0.01,25.2,0.01   c7.58,0,15.16-0.01,22.74-0.04c3.78-0.02,7.57-0.35,11.34-0.65c1.45-0.11,2.7-1.02,2.75-2.48c0.16-4.44,0.21-8.89,0.04-13.32   c-0.07-1.74-1.49-2.64-3.28-2.69c-2.01-0.06-4.01-0.16-6.02-0.17C1700.28,505.86,1693.01,505.81,1685.74,505.81L1685.74,505.81z" />
</g>
<path
   style="fill:#4d4d4d;fill-opacity:1;stroke:#4d4d4d;stroke-opacity:1"
   id="path1840"
   d="M393.86,693.53c-2.52,0.98-4.85,0.8-7.21,0.21c-0.28-0.82-0.67-1.44-0.67-2.05  c-0.04-91.61-0.05-183.22-0.04-274.83c0-0.85,0.31-1.7,0.5-2.68c2.53-0.8,4.86-0.85,7.22,0c0.27,0.72,0.7,1.33,0.7,1.95  c0.05,91.61,0.08,183.22,0.07,274.83C394.43,691.8,394.06,692.65,393.86,693.53z"
   class="st0" />
<g
   style="fill:#070740;fill-opacity:1"
   id="g1846">
	<path
   style="fill:#070740;fill-opacity:1"
   id="path1842"
   d="M302.08,516.93c-0.53,0-1.08-0.11-1.66-0.23c-0.21-0.04-0.42-0.09-0.63-0.12c-1.27-2.33-1.02-4.67,0.82-7.52l1.23-1.92   c2.43-3.8,4.93-7.72,7.73-11.31c3.17-4.07,6.53-8.11,9.78-12.01c2.22-2.66,4.51-5.41,6.72-8.15c5.46-6.76,8.66-12.98,10.1-19.58   c0.84-3.89,0.64-7.75-0.6-11.48c-1.74-5.22-5.34-8.36-10.4-9.07c-0.61-0.08-1.21-0.13-1.8-0.13c-4.07,0-7.54,2.03-10.05,5.88   c-1.17,1.79-2.07,3.73-3.02,5.79c-0.41,0.88-0.82,1.78-1.27,2.69c-1.32,0.34-2.71,0.51-4.12,0.51c-1.57,0-3.18-0.2-4.92-0.6   c-0.68-3.93-0.46-7.85-0.23-11.98l0.01-0.24c0.33-0.18,0.66-0.38,0.99-0.57c0.86-0.5,1.76-1.02,2.67-1.4   c7.18-2.95,13.99-4.38,20.82-4.38c0.36,0,0.72,0,1.08,0.01c0.63,0.01,1.26,0.02,1.89,0.02c0.81,0,1.62-0.01,2.44-0.02   c0.81-0.01,1.62-0.02,2.43-0.02c1.26,0,2.3,0.02,3.26,0.07c2.37,0.11,4.87,0.28,7.13,0.95c9.73,2.89,14.49,11.01,12.43,21.2   c-0.81,4.01-2.46,7.58-4.91,10.61c-3.16,3.91-6.17,7.35-9.22,10.5c-3.52,3.65-7.15,7.3-10.67,10.83c-3.13,3.14-6.36,6.39-9.5,9.63   l-0.5,0.51c-1.58,1.6-3.21,3.26-3.94,6.02l-0.12,0.47l0.47,0.14c0.42,0.13,0.83,0.28,1.23,0.42c0.89,0.33,1.73,0.64,2.62,0.64   c0,0,0.52,0,0.52,0c3.69,0,7.44-0.05,11.07-0.1c3.26-0.04,6.53-0.09,9.79-0.1c4.33-0.01,7.33-1.75,9.16-5.32   c0.15-0.3,0.42-0.58,0.79-0.96c0.17-0.18,0.37-0.38,0.57-0.61l3.65,0.17c0.12,0.14,0.23,0.26,0.34,0.37   c0.14,0.15,0.33,0.35,0.36,0.43c0.47,6.63-0.41,13.35-1.2,19.3c-0.26,0.09-0.49,0.18-0.7,0.27c-0.48,0.19-0.83,0.33-1.13,0.33   c-14.09,0.04-28.18,0.06-42.27,0.06L302.08,516.93z" />
	<path
   style="fill:#070740;fill-opacity:1"
   id="path1844"
   d="M332.07,431.6c1.25,0,2.28,0.02,3.23,0.07c2.34,0.11,4.8,0.28,7.01,0.93c9.6,2.85,14.11,10.56,12.08,20.62   c-0.79,3.93-2.41,7.42-4.81,10.39c-3.15,3.9-6.16,7.33-9.19,10.47c-3.52,3.64-7.15,7.3-10.67,10.83c-3.13,3.14-6.36,6.39-9.5,9.63   c-0.16,0.17-0.33,0.34-0.5,0.51c-1.55,1.57-3.31,3.35-4.07,6.24l-0.25,0.94l0.93,0.27c0.4,0.12,0.81,0.27,1.2,0.41   c0.89,0.33,1.82,0.67,2.8,0.67l0.53,0c3.69,0,7.44-0.05,11.07-0.1c3.21-0.04,6.53-0.09,9.79-0.1c4.54-0.01,7.68-1.84,9.6-5.59   c0.12-0.24,0.37-0.49,0.71-0.84c0.13-0.14,0.27-0.28,0.42-0.44l2.79,0.13l0.42,0.02c0.08,0.08,0.15,0.16,0.21,0.23   c0.07,0.08,0.17,0.18,0.23,0.25c0.44,6.43-0.39,12.96-1.17,18.78c-0.15,0.06-0.29,0.11-0.43,0.17c-0.41,0.16-0.74,0.29-0.95,0.29   c-13.42,0.04-27.6,0.05-42.15,0.05l-9.32,0c-0.48,0-1.01-0.11-1.56-0.22c-0.13-0.03-0.26-0.05-0.4-0.08   c-1.07-2.11-0.78-4.17,0.91-6.81c0.41-0.64,0.82-1.28,1.23-1.92c2.42-3.79,4.92-7.7,7.7-11.28c3.16-4.07,6.52-8.1,9.77-11.99   c2.22-2.66,4.51-5.41,6.73-8.16c5.51-6.82,8.75-13.11,10.19-19.79c0.86-3.98,0.65-7.93-0.62-11.74c-1.8-5.41-5.54-8.67-10.81-9.4   c-0.63-0.09-1.26-0.13-1.87-0.13c-4.24,0-7.86,2.11-10.47,6.11c-1.19,1.82-2.1,3.78-3.06,5.85c-0.37,0.81-0.76,1.63-1.17,2.47   c-1.22,0.29-2.46,0.43-3.77,0.43c-1.43,0-2.9-0.17-4.48-0.52c-0.6-3.76-0.39-7.53-0.18-11.51c0.25-0.14,0.51-0.29,0.76-0.44   c0.89-0.51,1.73-1,2.61-1.36c7.12-2.92,13.86-4.34,20.63-4.34c0.36,0,0.71,0,1.07,0.01c0.63,0.01,1.27,0.02,1.9,0.02   c0.81,0,1.63-0.01,2.44-0.02C330.46,431.61,331.26,431.6,332.07,431.6 M332.07,430.6c-1.62,0-3.24,0.03-4.86,0.03   c-0.63,0-1.25-0.01-1.88-0.02c-0.37-0.01-0.73-0.01-1.09-0.01c-7.3,0-14.27,1.65-21.01,4.42c-1.38,0.57-2.66,1.41-3.96,2.12   c-0.25,4.51-0.52,8.68,0.27,12.94c1.88,0.46,3.66,0.69,5.35,0.69c1.55,0,3.03-0.19,4.47-0.58c1.55-3.12,2.69-6.05,4.37-8.63   c2.3-3.52,5.56-5.65,9.63-5.65c0.56,0,1.14,0.04,1.73,0.12c5.11,0.71,8.39,3.91,10,8.73c1.22,3.65,1.41,7.4,0.59,11.21   c-1.6,7.36-5.35,13.62-10,19.38c-5.46,6.76-11.18,13.31-16.51,20.17c-3.27,4.21-6.09,8.77-8.98,13.27c-1.6,2.49-2.5,5.2-0.72,8.25   c0.89,0.14,1.75,0.4,2.61,0.4c3.11,0,6.21,0,9.32,0c14.05,0,28.1-0.02,42.15-0.05c0.62,0,1.23-0.38,2.29-0.72   c0.87-6.48,1.72-13.04,1.25-19.72c-0.03-0.36-0.51-0.69-0.95-1.25c-1.13-0.05-2.44-0.12-4.11-0.19c-0.75,0.85-1.31,1.28-1.6,1.85   c-1.83,3.57-4.79,5.04-8.71,5.05c-6.95,0.02-13.9,0.2-20.86,0.2c-0.17,0-0.35,0-0.52,0c-1.19,0-2.37-0.65-3.71-1.04   c0.77-2.92,2.65-4.6,4.32-6.31c6.67-6.87,13.52-13.57,20.17-20.47c3.24-3.36,6.31-6.9,9.25-10.54c2.54-3.15,4.2-6.82,5.01-10.82   c2.12-10.46-2.69-18.78-12.77-21.78c-2.31-0.69-4.82-0.86-7.25-0.97C334.26,430.62,333.16,430.6,332.07,430.6L332.07,430.6z" />
</g>
<g
   style="fill:#070740;fill-opacity:1"
   id="g1852">
	<path
   style="fill:#070740;fill-opacity:1"
   id="path1848"
   d="M984.58,590.47c-4.41,0-6-1.41-6.78-6.03c-0.7-4.17-0.77-8.53-0.76-11.85c0.03-5.48,0.19-11.06,0.34-16.45   c0.07-2.52,0.14-5.03,0.2-7.55c0.04-1.67,0.06-3.34,0.09-5.02c0.04-3.17,0.09-6.44,0.25-9.65c0.32-6.48,2.56-12.64,6.64-18.31   c4.93-6.85,11.44-10.34,19.36-10.36c3.54-0.01,7.14-0.07,10.61-0.13c3.78-0.06,7.68-0.13,11.52-0.13c1.3,0,2.59,0.01,3.89,0.02   c8.68,0.11,9.67,1.17,9.64,10.24l0,0.75c0,0.84,0.01,1.71-0.06,2.54c-0.34,4.29-2.14,6.08-6.2,6.18   c-5.28,0.13-10.66,0.15-15.86,0.17l-4.82,0.02c-1.27,0-2.95-0.02-4.63-0.16c-0.42-0.03-0.83-0.05-1.24-0.05   c-4.94,0-8.85,2.59-11.61,7.7c-1.42,2.63-2.39,5.58-2.74,8.31c-0.42,3.24-0.44,6.57-0.47,9.79c-0.01,0.97-0.02,1.94-0.03,2.91   c-0.05,2.47-0.03,4.98-0.02,7.41c0,1.09,0.01,2.18,0.01,3.27v0.53l0.04,0l-0.06,3.91c-0.06,3.85-0.12,7.71-0.21,11.56l-0.01,0.85   c-0.02,1.46-0.05,2.98-0.27,4.42c-0.53,3.47-2.21,4.95-5.82,5.09C985.24,590.47,984.9,590.47,984.58,590.47z" />
	<path
   style="fill:#070740;fill-opacity:1"
   id="path1850"
   d="M1026.04,505.51c1.3,0,2.59,0.01,3.89,0.02c8.41,0.11,9.18,0.93,9.15,9.74c0,0.25,0,0.51,0,0.76c0,0.87,0.01,1.68-0.06,2.5   c-0.32,4.02-1.92,5.63-5.71,5.72c-5.28,0.13-10.65,0.15-15.85,0.16c-1.39,0-2.77,0.01-4.16,0.02l-0.67,0   c-1.26,0-2.92-0.02-4.58-0.15c-0.43-0.04-0.86-0.05-1.28-0.05c-5.14,0-9.19,2.68-12.05,7.96c-1.45,2.68-2.44,5.69-2.8,8.48   c-0.42,3.27-0.45,6.62-0.47,9.85c-0.01,0.97-0.02,1.93-0.03,2.89c-0.05,2.48-0.03,4.99-0.02,7.42c0,1.09,0.01,2.18,0.01,3.27   l0.04,0.77l-0.06,3.72c-0.06,3.83-0.12,7.66-0.2,11.49l-0.02,0.86c-0.02,1.44-0.05,2.94-0.26,4.34c-0.5,3.26-1.95,4.53-5.34,4.67   c-0.35,0.01-0.68,0.02-0.99,0.02c-4.19,0-5.54-1.21-6.28-5.62c-0.7-4.14-0.77-8.46-0.75-11.77c0.03-5.48,0.19-11.05,0.34-16.44   c0.07-2.52,0.14-5.03,0.2-7.55c0.04-1.67,0.06-3.34,0.09-5c0.04-3.17,0.09-6.44,0.25-9.65c0.32-6.38,2.52-12.45,6.54-18.04   c4.9-6.81,11.1-10.13,18.95-10.15c3.54-0.01,7.14-0.07,10.62-0.13C1018.31,505.57,1022.21,505.51,1026.04,505.51 M1026.04,504.51   c-7.38,0-14.75,0.23-22.13,0.25c-8.49,0.02-14.94,3.86-19.76,10.57c-3.97,5.52-6.39,11.73-6.73,18.58   c-0.24,4.89-0.22,9.79-0.34,14.68c-0.19,8-0.5,16-0.54,24c-0.02,3.98,0.1,8.03,0.76,11.94c0.83,4.95,2.68,6.45,7.27,6.45   c0.33,0,0.68-0.01,1.04-0.02c3.81-0.16,5.72-1.75,6.29-5.52c0.27-1.75,0.25-3.55,0.29-5.33c0.11-5.33,0.19-10.67,0.28-16.01   c-0.02,0-0.03,0-0.05,0c0-3.56-0.05-7.11,0.01-10.67c0.08-4.22-0.04-8.47,0.5-12.64c0.36-2.79,1.35-5.65,2.69-8.13   c2.41-4.46,5.93-7.44,11.17-7.44c0.39,0,0.79,0.02,1.2,0.05c1.55,0.13,3.11,0.16,4.67,0.16c0.22,0,0.45,0,0.67,0   c6.67-0.03,13.35-0.02,20.02-0.18c4.35-0.11,6.32-2.19,6.68-6.64c0.09-1.11,0.06-2.22,0.06-3.34c0.03-9.29-1.08-10.62-10.14-10.74   C1028.64,504.51,1027.34,504.51,1026.04,504.51L1026.04,504.51z" />
</g>
<path
   style="fill:#4d4d4d;fill-opacity:1;stroke:#4d4d4d;stroke-opacity:1"
   id="path1854"
   d="M1817.37,693.21c-8.02,0-16.04,0-24.06,0c-1.11,0-2.23,0.01-3.34,0.01c-3.63-0.01-4.74-2.06-3.6-5.98  c0.2-0.69,1.15-1.53,1.85-1.64c1.97-0.3,3.98-0.33,5.98-0.34c14.71-0.03,29.41-0.02,44.12-0.03c1.78,0,3.57,0.05,5.34-0.11  c2.65-0.24,4.36-1.87,4.52-4.07c0.15-2.13-1.57-4.05-4.15-4.37c-1.76-0.22-3.56-0.2-5.34-0.2c-12.03-0.02-24.06-0.01-36.1-0.01  c-1.56,0-3.12,0.05-4.68-0.02c-6.95-0.31-11.54-4.86-11.96-11.83c-0.42-6.84,3.73-12.2,10.42-13.36c1.3-0.23,2.66-0.23,3.99-0.23  c14.71,0.01,29.41,0.03,44.12,0.08c2,0.01,4.02,0.04,5.99,0.31c2.16,0.29,3.25,1.99,3.11,4.38c-0.12,1.99-1.27,3.25-3.35,3.41  c-1.77,0.13-3.56,0.08-5.34,0.08c-14.26,0-28.52-0.02-42.78-0.01c-1.78,0-3.58-0.04-5.34,0.19c-2.12,0.28-3.75,2.15-3.83,4.02  c-0.1,2.26,1.58,4.13,4.12,4.36c1.77,0.16,3.56,0.1,5.34,0.1c13.15,0.01,26.29,0.06,39.44-0.03c3.27-0.02,6.06,0.89,8.77,2.64  c6.62,4.3,6.59,16.69-0.74,21.27c-2.04,1.27-4.22,1.33-6.43,1.34C1834.75,693.23,1826.06,693.2,1817.37,693.21  C1817.37,693.21,1817.37,693.21,1817.37,693.21z"
   class="st0" />
<g
   style="fill:#070740;fill-opacity:1"
   id="g1860">
	<path
   style="fill:#070740;fill-opacity:1"
   id="path1856"
   d="M1153.17,557.18c-0.44,0-0.88-0.02-1.31-0.04c-0.44-0.02-0.88-0.04-1.31-0.04c-8.21,0.01-16.4,0.02-24.58,0.02l-34.15-0.01   c-1.41,0-2.83,0.01-4.24,0.03c-1.41,0.01-2.82,0.02-4.23,0.02c-1.4,0-2.79-0.01-4.19-0.05c-3.76-0.1-4.61-0.93-4.75-4.71   c-0.14-3.6-0.12-6.86,0.04-9.96c0.13-2.47,1.13-3.42,3.8-3.62c0.54-0.04,1.12-0.06,1.88-0.06c0.34,0,1.69,0.01,2.04,0.01   l13.42-0.02c16.43-0.02,32.86-0.05,49.29-0.05l4.72,0c0.4,0,0.79-0.01,1.18-0.02c0.39-0.01,0.79-0.02,1.2-0.02   c1.53,0,3.21,0.15,5.18,1.24l0.09,1.57c0.29,4.88,0.58,9.91-0.42,14.67C1155.54,557.06,1154.26,557.18,1153.17,557.18z" />
	<path
   style="fill:#070740;fill-opacity:1"
   id="path1858"
   d="M1151.98,539.16c1.4,0,2.92,0.13,4.69,1.05c0.02,0.43,0.05,0.86,0.07,1.29c0.29,5,0.57,9.72-0.37,14.34   c-1.11,0.73-2.2,0.84-3.21,0.84c-0.42,0-0.86-0.02-1.28-0.04c-0.43-0.02-0.88-0.05-1.36-0.05c0,0,0,0,0,0   c-8.2,0.01-16.41,0.02-24.61,0.02c-6.06,0-12.12,0-18.18,0l-15.93,0c-1.41,0-2.83,0.01-4.24,0.03c-1.41,0.01-2.81,0.02-4.22,0.02   c-1.56,0-2.92-0.02-4.17-0.05c-3.53-0.09-4.13-0.69-4.26-4.23c-0.14-3.59-0.12-6.83,0.04-9.91c0.12-2.23,0.9-2.96,3.34-3.15   c0.53-0.04,1.09-0.06,1.84-0.06c0.33,0,0.67,0,1,0.01c0.34,0,0.68,0.01,1.02,0.01l0.06,0l13.25-0.02   c16.2-0.02,32.96-0.05,49.43-0.05l4.71,0c0.39,0,0.79-0.01,1.19-0.02C1151.19,539.17,1151.58,539.16,1151.98,539.16    M1151.98,538.16c-0.81,0-1.6,0.05-2.38,0.05c0,0,0,0-0.01,0c-1.57,0-3.13,0-4.7,0c-20.89,0-41.79,0.04-62.68,0.06   c-0.02,0-0.04,0-0.06,0c-0.68,0-1.35-0.01-2.03-0.01c-0.64,0-1.28,0.01-1.91,0.06c-2.85,0.22-4.11,1.31-4.26,4.1   c-0.18,3.33-0.17,6.67-0.04,10c0.15,4.05,1.19,5.08,5.24,5.19c1.4,0.04,2.79,0.05,4.19,0.05c2.82,0,5.64-0.05,8.46-0.05   c0.01,0,0.01,0,0.02,0c11.37,0,22.73,0.01,34.09,0.01c8.2,0,16.41,0,24.61-0.02c0.01,0,0.01,0,0.02,0c0.85,0,1.73,0.09,2.61,0.09   c1.35,0,2.73-0.21,4.11-1.25c1.19-5.47,0.68-11.14,0.37-16.83C1155.52,538.36,1153.69,538.16,1151.98,538.16L1151.98,538.16z" />
</g>
<g
   style="fill:#070740;fill-opacity:1"
   id="g1866">
	<path
   style="fill:#070740;fill-opacity:1"
   id="path1862"
   d="M1642.4,558.3c-0.83,0-1.81-0.01-2.77-0.08c-2.69-0.21-3.79-1.2-3.91-3.53c-0.17-3.42-0.19-7-0.04-10.62   c0.1-2.33,1.26-3.48,3.77-3.74c0.62-0.06,1.26-0.07,1.74-0.07l1.48,0.01l11.91-0.02c18.07-0.03,36.14-0.06,54.22-0.07h0.22   c7.47,0,7.61,0.14,7.66,7.69l0.01,1.04c0.02,1.84,0.04,3.74-0.1,5.58c-0.2,2.71-0.98,3.5-3.65,3.69c-0.75,0.05-1.5,0.06-2.07,0.06   l-1.89-0.01l-33.2,0v0.06L1642.4,558.3z" />
	<path
   style="fill:#070740;fill-opacity:1"
   id="path1864"
   d="M1709.02,540.67c7.12,0,7.12,0,7.17,7.19l0.01,1.06c0.02,1.82,0.04,3.71-0.1,5.53c-0.18,2.48-0.75,3.06-3.19,3.23   c-0.74,0.05-1.48,0.06-2.04,0.06c-0.31,0-0.62,0-0.93,0c-0.32,0-0.63,0-0.96,0l-17.51,0l-7.59,0l-7.59,0h-1v0.06l-6.83,0l-7.83,0   c-5.46,0-10.91,0-16.42,0l-0.92,0l-0.91,0c-0.81,0-1.78-0.01-2.72-0.08c-2.76-0.21-3.35-1.28-3.44-3.05   c-0.17-3.4-0.19-6.96-0.04-10.58c0.09-2.08,1.05-3.03,3.33-3.27c0.6-0.06,1.22-0.07,1.69-0.07c0.24,0,0.49,0,0.74,0   c0.25,0,0.5,0,0.75,0l0.06,0l10.42-0.02c18.55-0.03,37.09-0.06,55.64-0.07L1709.02,540.67 M1709.02,539.67c-0.07,0-0.14,0-0.22,0   c-22.02,0.02-44.04,0.06-66.06,0.09c-0.02,0-0.04,0-0.05,0c-0.5,0-0.99-0.01-1.49-0.01c-0.6,0-1.2,0.01-1.79,0.08   c-2.69,0.28-4.11,1.57-4.22,4.22c-0.15,3.55-0.14,7.12,0.04,10.67c0.14,2.66,1.49,3.78,4.37,4c0.93,0.07,1.86,0.09,2.8,0.09   c0.61,0,1.22-0.01,1.82-0.01c0.02,0,0.03,0,0.05,0c5.46,0,10.91,0,16.37,0c5.22,0,10.44,0,15.66,0c0-0.02,0-0.04,0-0.06   c5.06,0,10.13,0,15.19,0c5.84,0,11.67,0,17.51,0c0.01,0,0.01,0,0.02,0c0.63,0,1.25,0.01,1.88,0.01c0.7,0,1.41-0.01,2.11-0.06   c2.9-0.2,3.89-1.15,4.11-4.15c0.16-2.21,0.11-4.45,0.09-6.67C1717.14,540.11,1716.78,539.67,1709.02,539.67L1709.02,539.67z" />
</g>
<path
   style="fill:#4d4d4d;fill-opacity:1;stroke:#4d4d4d;stroke-opacity:1"
   id="path1868"
   d="M1499.9,683.94c-1.08-4.22-3.59-6.44-7.17-7.43c-1.91-0.52-3.96-0.66-5.95-0.71  c-4.46-0.11-8.92-0.02-13.38-0.07c-2.21-0.02-4.41-0.16-6.8-0.25c-0.49-1.48-1.21-2.69-1.24-3.92c-0.06-2.36,1.28-3.67,3.67-3.81  c2.22-0.13,4.46-0.09,6.69-0.09c4.46,0,8.92-0.09,13.38,0.06c11.35,0.39,20.01,10.04,19.27,21.32c-0.16,2.44-1.25,3.6-3.73,3.81  c-1.33,0.11-2.67,0.07-4.01,0.07c-13.38,0-26.76,0-40.13,0c-0.89,0-1.78,0.01-2.68-0.01c-8.59-0.15-14.22-4.59-17.32-12.34  c-3.77-9.42-0.76-20.61,6.89-26.59c2.74-2.14,5.77-3.34,9.24-3.33c15.38,0.02,30.77,0.06,46.15,0.1c0.89,0,1.8,0,2.66,0.17  c1.78,0.34,2.95,2.01,2.88,3.95c-0.08,2.02-1.2,3.43-3.15,3.67c-1.54,0.18-3.11,0.15-4.67,0.15c-12.26,0.01-24.53-0.01-36.79,0  c-2.23,0-4.47-0.01-6.68,0.18c-6.69,0.58-11.47,5.78-11.49,12.4c-0.02,7.18,4.55,12.53,11.41,13.31c0.66,0.08,1.33,0.12,2,0.12  c12.49-0.01,24.97-0.01,37.46-0.07C1497.43,684.63,1498.47,684.24,1499.9,683.94z"
   class="st0" />
<path
   style="fill:#4d4d4d;fill-opacity:1;stroke:#4d4d4d;stroke-opacity:1"
   id="path1870"
   d="M1085.54,691.53c-6.24,0-12.48-0.02-18.73,0.01c-3.16,0.02-6.21-0.14-8.76-2.44  c-3.24-2.91-6.04-6.23-6.43-10.63c-0.46-5.08-0.66-10.28-0.13-15.34c0.78-7.41,7.43-13.11,15.09-13.75  c0.89-0.07,1.78-0.04,2.67-0.04c11.15,0,22.29-0.01,33.44,0.04c1.77,0.01,3.6,0.02,5.3,0.43c7.76,1.85,12.3,7.09,12.85,15.11  c0.27,3.99,0.1,8.03-0.14,12.03c-0.23,3.88-1.73,7.35-4.4,10.25c-2.52,2.74-5.5,4.39-9.37,4.34c-7.13-0.09-14.27-0.03-21.4-0.03  C1085.54,691.51,1085.54,691.52,1085.54,691.53z M1086.25,657.73c0-0.01,0-0.03,0-0.04c-6.23,0-12.47-0.11-18.7,0.03  c-5.73,0.13-8.91,3.4-9.2,9.22c-0.12,2.44-0.04,4.9,0.06,7.34c0.24,6.21,2.84,9.09,9.01,9.18c12.24,0.18,24.48,0.07,36.73,0.06  c0.89,0,1.79-0.01,2.66-0.16c4.16-0.72,7.03-3.98,7.26-8.31c0.13-2.44,0.16-4.9,0.09-7.34c-0.16-6.55-3.3-9.79-9.88-9.95  C1098.27,657.62,1092.26,657.73,1086.25,657.73z"
   class="st0" />
<path
   style="fill:#4d4d4d;fill-opacity:1;stroke:#4d4d4d;stroke-opacity:1"
   id="path1872"
   d="M1339.98,692.49c-6.24,0-12.48,0.12-18.71-0.03c-9.72-0.23-15.7-6.15-16.11-15.82  c-0.15-3.56-0.17-7.13-0.04-10.69c0.3-8.79,6.41-15.37,15.13-15.56c12.92-0.28,25.85-0.33,38.77,0.04  c10.44,0.3,14.77,7.31,15.53,15.2c0.36,3.75,0.32,7.6-0.05,11.35c-0.26,2.59-1.03,5.28-2.2,7.61c-2.48,4.92-6.52,7.77-12.26,7.82  c-3.34,0.03-6.68,0.18-10.02,0.22c-3.34,0.04-6.68,0.01-10.02,0.01C1339.98,692.59,1339.98,692.54,1339.98,692.49z M1339.69,684.22  c6.44,0,12.89,0.1,19.33-0.03c4.96-0.1,8.36-3.35,8.75-8.18c0.2-2.43,0.25-4.88,0.19-7.32c-0.17-6.68-3.65-10.31-10.34-10.39  c-11.99-0.13-23.99-0.13-35.99-0.03c-5.88,0.05-9.41,3.58-9.79,9.5c-0.16,2.43-0.12,4.89-0.01,7.33c0.27,5.82,3.35,8.95,9.2,9.09  C1327.25,684.33,1333.47,684.22,1339.69,684.22z"
   class="st0" />
<g
   style="fill:#070740;fill-opacity:1"
   id="g1878">
	<path
   style="fill:#070740;fill-opacity:1"
   id="path1874"
   d="M1459.42,590.44c-5.66,0-8.19-1.93-8.75-6.66c-0.17-1.45-0.16-2.96-0.15-4.41l0-0.87c0.01-20.93,0.04-41.86,0.07-62.79   c0-0.35,0-0.71,0-1.06c-0.01-1.18-0.02-2.39,0.1-3.56c0.5-4.77,2.65-6.38,8.53-6.38c0.22,0,0.83,0.01,0.83,0.01   c0.49,0.01,0.98,0.02,1.47,0.06c3.76,0.33,5.71,1.73,6.3,4.53c0.49,2.31,0.5,4.74,0.51,7.1l0,0.11c0.04,7.46,0.03,14.92,0.03,22.38   l0,9.01l0,7.49c0,7.75,0.01,15.49-0.02,23.24l0,0.53c0,2-0.01,4.07-0.39,6.03c-0.66,3.42-2.93,5.02-7.36,5.21   C1460.19,590.44,1459.8,590.44,1459.42,590.44z" />
	<path
   style="fill:#070740;fill-opacity:1"
   id="path1876"
   d="M1459.21,505.21L1459.21,505.21c0.22,0,0.44,0,0.67,0.01l0.14,0c0.5,0.01,0.98,0.02,1.45,0.06   c3.56,0.31,5.31,1.55,5.86,4.14c0.48,2.25,0.49,4.66,0.5,6.99l0,0.12c0.04,7.5,0.03,15.14,0.03,22.52c0,2.96,0,5.91,0,8.87l0,7.36   c0,7.66,0.01,15.58-0.02,23.36l0,0.54c0,1.98-0.01,4.02-0.38,5.93c-0.61,3.15-2.73,4.63-6.89,4.8c-0.4,0.02-0.78,0.03-1.15,0.03   c-5.41,0-7.73-1.74-8.25-6.22c-0.17-1.42-0.16-2.91-0.15-4.35l0-0.87c0.01-20.93,0.04-41.86,0.07-62.79c0-0.35,0-0.71-0.01-1.06   c-0.01-1.22-0.02-2.36,0.1-3.51C1451.65,506.66,1453.6,505.21,1459.21,505.21 M1459.21,504.21c-6.1,0-8.5,1.83-9.02,6.83   c-0.16,1.55-0.1,3.12-0.1,4.67c-0.03,20.93-0.05,41.86-0.07,62.79c0,1.78-0.05,3.57,0.15,5.34c0.58,5.01,3.31,7.1,9.24,7.1   c0.38,0,0.78-0.01,1.2-0.03c4.53-0.19,7.11-1.91,7.83-5.61c0.42-2.18,0.39-4.44,0.4-6.66c0.04-10.24,0.02-20.48,0.01-30.73   c0-10.46,0.03-20.93-0.02-31.39c-0.01-2.44-0.02-4.92-0.52-7.31c-0.67-3.16-2.9-4.59-6.75-4.93c-0.55-0.05-1.1-0.06-1.65-0.07   C1459.67,504.22,1459.44,504.21,1459.21,504.21L1459.21,504.21z" />
</g>
<path
   style="fill:#4d4d4d;fill-opacity:1;stroke:#4d4d4d;stroke-opacity:1"
   id="path1880"
   d="M726.64,651.11c0,1.97,0,3.91,0,6.27c-1.54,0.21-3.01,0.57-4.47,0.58c-12.71,0.05-25.42,0.03-38.13,0.04  c-1.78,0-3.57-0.04-5.35,0.03c-6.23,0.26-10.5,3.98-12.09,10.47c-1.29,5.26,1.43,11.79,6.31,14.28c1.69,0.86,3.83,1.17,5.77,1.2  c8.02,0.14,16.05,0.08,24.08,0.1c6.91,0.02,13.82,0.03,20.74,0.08c0.86,0.01,1.72,0.21,2.76,0.35c1,2.49,0.88,4.81,0.1,7.45  c-1.51,0.18-3.03,0.52-4.55,0.52c-13.6,0.04-27.2,0.02-40.79,0.02c-6.22,0-11.71-1.45-16.3-6.21c-7.17-7.44-8.4-26.24,4.34-33.36  c3.46-1.94,7.08-2.55,10.9-2.56c9.37-0.02,18.73,0.05,28.1-0.05c3.78-0.04,7.55-0.34,11.32-0.62  C721.86,649.49,724.21,649.75,726.64,651.11z"
   class="st0" />
<path
   style="fill:#4d4d4d;fill-opacity:1;stroke:#4d4d4d;stroke-opacity:1"
   id="path1882"
   d="M804.58,676.18c-0.07,2.9-0.13,5.32-0.19,7.74c-0.04,1.78,0.01,3.57-0.16,5.34c-0.16,1.66-1.53,2.92-3.04,3.08  c-1.72,0.18-3.43-1.15-3.82-3.04c-0.13-0.65-0.2-1.33-0.2-1.99c0-10.7,0-21.41,0.04-32.11c0-0.88,0.14-1.8,0.44-2.61  c0.5-1.39,1.6-2.06,3.1-2.06c1.8,0,3.23,0.93,3.42,2.52c0.21,1.76,0.17,3.55,0.23,5.33c0.08,2.41,0.15,4.83,0.23,7.45  c1.37,0.4,2.39,0.95,3.42,0.96c16.5,0.05,33,0.05,49.51,0.01c0.84,0,1.69-0.37,2.29-0.51c1.76-1.93,1.19-4.03,1.29-5.98  c0.13-2.45,0.04-4.91,0.24-7.34c0.13-1.5,1.28-2.26,2.74-2.46c1.77-0.24,3.34,0.58,3.73,2.09c0.28,1.06,0.43,2.19,0.43,3.29  c0.02,10.48,0.01,20.96-0.01,31.44c0,0.67-0.04,1.34-0.15,2c-0.33,1.97-1.86,3.13-3.8,2.94c-1.68-0.17-2.92-1.26-3.05-2.99  c-0.15-2-0.08-4.01-0.13-6.02c-0.06-2.19-0.14-4.39-0.22-6.74c-1.4-0.44-2.42-1.03-3.44-1.04c-16.5-0.07-33-0.06-49.51-0.04  C807.13,675.45,806.29,675.8,804.58,676.18z"
   class="st0" />
<path
   style="fill:#4d4d4d;fill-opacity:1;stroke:#4d4d4d;stroke-opacity:1"
   id="path1884"
   d="M989.49,683.36c0.14-2.39,0.34-4.35,0.35-6.32c0.03-6.23-0.01-12.47-0.01-18.7c0-1.56-0.04-3.12,0.11-4.67  c0.21-2.18,1.43-3.31,3.4-3.37c2-0.06,3.32,1.06,3.57,3.15c0.13,1.1,0.12,2.22,0.12,3.33c0.01,9.8,0.01,19.59,0.01,29.39  c0,0.89,0.02,1.79-0.07,2.67c-0.21,2.07-1.32,3.32-3.37,3.46c-11.41,0.78-21.64-1.58-29.4-10.87c-5.13-6.15-10.54-12.07-15.82-18.09  c-4.45-5.08-7-5.88-14.1-4.45c-1.45,1.71-1.05,3.79-1.06,5.76c-0.05,6.68-0.01,13.36-0.04,20.04c0,1.56-0.01,3.12-0.17,4.67  c-0.18,1.72-1.39,2.72-3.16,2.8c-1.71,0.08-3.12-0.94-3.37-2.54c-0.14-0.87-0.19-1.77-0.19-2.66c-0.01-10.24-0.05-20.48,0.03-30.72  c0.04-5.44,0.69-5.99,6.26-6.09c2-0.04,4.01-0.03,6.01,0.05c5.58,0.23,10.31,2.08,14.02,6.56c5.11,6.17,10.58,12.04,15.76,18.15  c3.26,3.84,7.14,6.59,11.94,8.19C983.12,684.03,985.88,684.29,989.49,683.36z"
   class="st0" />
<g
   style="fill:#070740;fill-opacity:1"
   id="g1890">
	<path
   style="fill:#070740;fill-opacity:1"
   id="path1886"
   d="M959.93,524.83c-1.53,0-3.06-0.01-4.58-0.02c-1.53-0.01-3.06-0.02-4.59-0.02h-0.5v0.01c-1.32,0-2.65,0.01-3.97,0.01   c-1.49,0.01-2.98,0.02-4.46,0.02c-1.9,0-3.81-0.01-5.71-0.05c-4.64-0.1-6.94-2.24-7.25-6.74c-0.13-1.84-0.23-4.25,0.11-6.54   c0.22-1.5,1.37-6.39,6.83-6.39l0.24,0c4.59,0.12,9.15,0.15,14.59,0.15l5.57,0c3.05,0,6.1,0.01,9.16,0.04   c3.86,0.05,6.01,1.76,6.55,5.23c0.45,2.82,0.49,5.98,0.12,9.13c-0.36,3.09-2.59,5-5.96,5.09   C964.25,524.81,962.3,524.83,959.93,524.83z" />
	<path
   style="fill:#070740;fill-opacity:1"
   id="path1888"
   d="M935.8,505.62c0.07,0,0.15,0,0.23,0c4.6,0.12,9.17,0.15,14.61,0.15l2.78,0l2.78,0c2.73,0,5.95,0.01,9.14,0.04   c3.63,0.04,5.56,1.57,6.07,4.8c0.44,2.77,0.48,5.89,0.12,9c-0.33,2.83-2.38,4.57-5.47,4.65c-1.81,0.05-3.75,0.07-6.12,0.07   c-1.53,0-3.05-0.01-4.58-0.02c-1.53-0.01-3.06-0.02-4.59-0.02l-1,0.01v0c-1.16,0-2.32,0.01-3.47,0.01   c-1.49,0.01-2.98,0.02-4.46,0.02c-2.2,0-4.01-0.02-5.7-0.05c-4.38-0.09-6.47-2.03-6.77-6.28c-0.13-1.82-0.23-4.19,0.1-6.43   C929.67,510.18,930.74,505.62,935.8,505.62 M935.8,504.62c-4.53,0-6.8,3.31-7.32,6.81c-0.32,2.17-0.27,4.44-0.11,6.65   c0.33,4.77,2.83,7.1,7.74,7.21c1.91,0.04,3.81,0.05,5.72,0.05c2.98,0,5.96-0.03,8.94-0.03c0,0,0,0,0-0.01   c3.05,0,6.11,0.04,9.16,0.04c2.05,0,4.1-0.02,6.15-0.08c3.53-0.1,6.04-2.14,6.44-5.54c0.36-3.05,0.36-6.24-0.12-9.27   c-0.6-3.79-3.03-5.6-7.04-5.65c-3.05-0.04-6.1-0.04-9.15-0.04c-1.85,0-3.71,0-5.56,0c-4.86,0-9.72-0.02-14.58-0.15   C935.96,504.62,935.88,504.62,935.8,504.62L935.8,504.62z" />
</g>
<path
   style="fill:#4d4d4d;fill-opacity:1;stroke:#4d4d4d;stroke-opacity:1"
   id="path1892"
   d="M600.36,686.54c0,2.09,0,3.35,0,4.48c-2.2,1.61-4.5,1.38-6.67,1.38c-12.24,0.01-24.49-0.17-36.73-0.07  c-8.26,0.07-13.36-4.09-16.21-11.44c-3-7.73-2.51-15.29,1.7-22.47c2.6-4.44,6.31-7.73,11.69-7.79c15.12-0.16,30.24-0.05,45.02-0.05  c2.02,1.74,1.62,3.44,0.97,5.29c-0.54,0.22-1.13,0.66-1.73,0.67c-9.57,0.1-19.14,0.14-28.72,0.18c-4.01,0.02-8.02-0.03-12.02,0.01  c-8.7,0.1-14,5.43-14.18,14.15c-0.07,3.2,0.66,6.21,2.22,8.96c1.97,3.48,4.75,5.86,9.01,5.92c6.22,0.09,12.45,0.21,18.67,0.23  c7.11,0.03,14.23-0.07,21.34-0.03C596.46,686,598.2,686.32,600.36,686.54z"
   class="st0" />
<path
   style="fill:#4d4d4d;fill-opacity:1;stroke:#4d4d4d;stroke-opacity:1"
   id="path1894"
   d="M1720.93,687.26c0.1,1.72,0.18,3.21,0.28,5c-1.45,0.26-2.71,0.68-3.96,0.68c-13.58,0.05-27.16-0.05-40.74,0.07  c-5.72,0.05-9.92-2.52-12.75-7.14c-5.49-8.93-5.46-18.15-0.25-27.19c2.59-4.49,6.58-7.17,11.98-7.31c1.78-0.05,3.56-0.22,5.33-0.22  c10.68-0.02,21.37-0.03,32.05,0c2.64,0.01,5.32-0.15,8.06,1.01c0,1.38,0,2.64,0,4c-0.57,0.27-1.16,0.76-1.76,0.78  c-5.33,0.2-10.67,0.39-16.01,0.44c-6.9,0.06-13.8-0.02-20.7-0.03c-1.34,0-2.67,0.06-4.01,0.01c-10.21-0.4-13.16,6.69-14.12,12.89  c-0.59,3.83,0.38,7.59,2.44,10.88c2.25,3.6,5.45,5.68,9.94,5.64c9.35-0.09,18.7-0.02,28.05-0.01c4.23,0,8.46-0.02,12.69,0.03  C1718.54,686.82,1719.6,687.08,1720.93,687.26z"
   class="st0" />
<path
   style="fill:#4d4d4d;fill-opacity:1;stroke:#4d4d4d;stroke-opacity:1"
   id="path1896"
   d="M1183.22,683.71c2.12,0.16,3.87,0.39,5.61,0.39c15.35,0.05,30.7,0.05,46.04,0.08c2.44,0,4.91-0.08,7.33,0.18  c2.69,0.3,4.08,4.14,2.37,6.26c-0.38,0.47-1.07,0.88-1.66,0.96c-1.53,0.2-3.1,0.28-4.65,0.28c-18.24,0.02-36.48,0.02-54.72-0.01  c-1.96,0-3.92-0.22-6.17-0.36c-0.33-1.51-0.82-2.76-0.83-4.01c-0.08-10.68-0.07-21.35-0.06-32.03c0-0.88,0.1-1.78,0.25-2.65  c0.26-1.56,1.31-2.39,2.71-2.3c1.58,0.1,2.47,1.03,2.66,2.47c0.23,1.76,0.26,3.54,0.28,5.32c0.07,6.67,0.06,13.35,0.18,20.02  C1182.59,680.03,1182.97,681.74,1183.22,683.71z"
   class="st0" />
<path
   style="fill:#4d4d4d;fill-opacity:1;stroke:#4d4d4d;stroke-opacity:1"
   id="path1898"
   d="M463.3,676.32c0-3.34-0.21-6.69,0.04-10c0.67-8.71,6.74-14.93,15.46-15.53c5.98-0.41,12.01-0.27,18.01-0.18  c3.23,0.05,4.47,1.61,4.17,4.6c-0.18,1.79-1.12,2.85-3,2.91c-4,0.14-8,0.15-12.01,0.19c-1.56,0.01-3.12-0.11-4.67-0.06  c-5.96,0.18-10.03,3.6-11.08,9.48c-0.35,1.95-0.26,3.99-0.28,5.98c-0.06,5.12-0.02,10.23-0.12,15.35c-0.04,1.98-1.05,3.11-2.58,3.33  c-1.87,0.26-3.61-0.81-3.86-2.77c-0.28-2.18-0.2-4.41-0.23-6.62c-0.03-2.22-0.01-4.45-0.01-6.67  C463.2,676.32,463.25,676.32,463.3,676.32z"
   class="st0" />
<path
   style="fill:#4d4d4d;fill-opacity:1;stroke:#4d4d4d;stroke-opacity:1"
   id="path1900"
   d="M1720.96,669.93c0,1.42,0,2.89,0,4.72c-1.27,0.2-2.52,0.55-3.77,0.55c-13.59,0.04-27.18,0.02-40.77,0.02  c-0.45,0-0.89,0.02-1.34,0c-3.71-0.17-4.03-0.64-3.52-5.42c0.98-0.18,2.03-0.52,3.09-0.56  C1692.6,668.64,1715.51,668.98,1720.96,669.93z"
   class="st0" />
<path
   style="fill:#4d4d4d;fill-opacity:1;stroke:#4d4d4d;stroke-opacity:1"
   id="path1902"
   d="M550.69,673.64c0-1.68,0-2.97,0-4.54c1.44-0.29,2.69-0.76,3.94-0.77c13.79-0.07,27.58-0.07,41.38-0.09  c0.22,0,0.45-0.01,0.67,0.01c3.61,0.18,3.98,0.72,3.5,5.48c-0.97,0.19-2.02,0.55-3.08,0.6C584.1,674.9,555.78,674.51,550.69,673.64z  "
   class="st0" />
<path
   style="fill:#4d4d4d;fill-opacity:1;stroke:#4d4d4d;stroke-opacity:1"
   id="path1904"
   d="M1583.67,671.48c0-5.56-0.02-11.13,0.01-16.69c0.01-1.42,0.58-2.6,2-3.16c2.03-0.8,4.3,0.24,4.75,2.27  c0.24,1.07,0.32,2.2,0.32,3.3c0.03,10.02,0.03,20.03,0,30.05c0,1.1-0.11,2.22-0.34,3.3c-0.35,1.63-1.75,2.54-3.48,2.42  c-1.73-0.11-2.99-1.14-3.2-2.8c-0.17-1.32-0.15-2.66-0.16-4c-0.02-4.9-0.01-9.79-0.01-14.69  C1583.61,671.48,1583.64,671.48,1583.67,671.48z"
   class="st0" />
<path
   style="fill:#4d4d4d;fill-opacity:1;stroke:#4d4d4d;stroke-opacity:1"
   id="path1906"
   d="M444.32,658.1c-3.11,0-6.22,0.08-9.33-0.03c-2.19-0.07-3.33-1.31-3.38-3.26c-0.05-1.95,1.12-3.91,2.83-3.95  c6.66-0.14,13.33-0.13,19.99-0.02c1.75,0.03,2.68,1.43,3.01,3.1c0.44,2.21-0.85,4.04-3.11,4.12  C450.99,658.18,447.65,658.09,444.32,658.1C444.32,658.09,444.32,658.09,444.32,658.1z"
   class="st0" />
</svg>
