<?xml version="1.0" encoding="UTF-8" standalone="no"?>
<!-- Generator: Adobe Illustrator 24.1.1, SVG Export Plug-In . SVG Version: 6.00 Build 0)  -->

<svg
   xmlns:dc="http://purl.org/dc/elements/1.1/"
   xmlns:cc="http://creativecommons.org/ns#"
   xmlns:rdf="http://www.w3.org/1999/02/22-rdf-syntax-ns#"
   xmlns:svg="http://www.w3.org/2000/svg"
   xmlns="http://www.w3.org/2000/svg"
   xmlns:sodipodi="http://sodipodi.sourceforge.net/DTD/sodipodi-0.dtd"
   xmlns:inkscape="http://www.inkscape.org/namespaces/inkscape"
   version="1.1"
   id="Layer_1"
   x="0px"
   y="0px"
   viewBox="0 0 1920 1080"
   style="enable-background:new 0 0 1920 1080;"
   xml:space="preserve"
   sodipodi:docname="Logo_WAC.svg"
   inkscape:version="0.92.5 (2060ec1f9f, 2020-04-08)"><metadata
   id="metadata2702"><rdf:RDF><cc:Work
       rdf:about=""><dc:format>image/svg+xml</dc:format><dc:type
         rdf:resource="http://purl.org/dc/dcmitype/StillImage" /></cc:Work></rdf:RDF></metadata><defs
   id="defs2700">
	
	

	
	

	
	

	
	

	
	

	
	

	
	

	
	

	
	

	
	

	
	

	
	

	
	

	
	

	
	

	
	

	
	

	
	

	
	

	
	

	
	

	
	

	
	

	
	

	
	

	
	

	
	

	
	

	
	

	
	

	
	
</defs><sodipodi:namedview
   pagecolor="#ffffff"
   bordercolor="#666666"
   borderopacity="1"
   objecttolerance="10"
   gridtolerance="10"
   guidetolerance="10"
   inkscape:pageopacity="0"
   inkscape:pageshadow="2"
   inkscape:window-width="1920"
   inkscape:window-height="1001"
   id="namedview2698"
   showgrid="false"
   inkscape:zoom="0.52902063"
   inkscape:cx="960.20651"
   inkscape:cy="446.10549"
   inkscape:window-x="-9"
   inkscape:window-y="-9"
   inkscape:window-maximized="1"
   inkscape:current-layer="Layer_1" />
<rect
   style="opacity:1;fill:#c3c3c3;fill-opacity:1;stroke:none;stroke-width:1.00224674;stroke-opacity:1"
   id="rect7290"
   width="1918.6396"
   height="1081.2433"
   x="1.6707616"
   y="-1.2432464" /><path
   inkscape:connector-curvature="0"
   id="path2511"
   d="m 511.58,594.7 c -1.14,0 -2.23,-0.56 -3.14,-1.61 -1.15,-1.33 -2.19,-2.99 -3.09,-4.93 C 498.55,573.41 491.84,558.7 485.6,545 l -0.59,-1.3 c -7.06,-15.52 -14.37,-31.58 -21.49,-47.39 -1.11,-2.46 -2.22,-4.91 -3.33,-7.36 -3.98,-8.76 -8.09,-17.81 -11.74,-26.87 -2.08,-5.17 -3.44,-10.75 -4.76,-16.15 -0.24,-1 -0.49,-2.01 -0.74,-3.01 -0.84,-3.4 0.79,-5.99 4.36,-6.95 0.89,-0.24 1.93,-0.35 3.18,-0.36 l 2.11,-0.01 c 2.8,-0.02 5.59,-0.03 8.39,-0.03 2.74,0 5.48,0.01 8.22,0.06 4.55,0.07 6.47,1.63 6.85,5.55 1.23,12.74 6.42,24.29 11.43,35.46 0.66,1.47 1.32,2.94 1.97,4.41 6.71,15.18 13.73,30.52 20.52,45.36 2.09,4.56 4.17,9.12 6.25,13.68 1.41,3.1 2.94,6.12 4.53,8.97 0.54,0.97 1.47,1.54 2.49,1.54 0.84,0 1.67,-0.4 2.25,-1.09 0.9,-1.06 1.68,-2.19 2.33,-3.35 3.39,-6.08 6.78,-12.17 10.16,-18.25 7.11,-12.79 14.45,-26.01 21.79,-38.95 2.52,-4.44 2.6,-8.33 0.29,-13.01 -3.64,-7.35 -7.63,-16.11 -9.62,-25.45 -0.49,-2.28 -1.09,-5.12 -1.24,-7.83 -0.12,-2.23 0.38,-3.97 1.48,-5.18 1.05,-1.14 2.6,-1.74 4.62,-1.79 2.87,-0.07 6,-0.11 9.87,-0.11 2.05,0 4.1,0.01 6.15,0.02 2.05,0.01 4.1,0.02 6.16,0.02 h 0.55 c 2.39,0 4.03,1.3 4.9,3.86 0.57,1.68 0.89,3.49 1.2,5.24 l 0.1,0.54 c 1.35,7.52 3.09,13.44 5.49,18.65 5.2,11.28 10.44,22.78 15.5,33.9 3.53,7.75 7.06,15.51 10.61,23.25 3.01,6.57 6.27,13.49 9.7,20.56 0.12,0.25 0.24,0.5 0.35,0.76 0.85,1.86 1.91,4.18 4.56,4.18 0.18,0 0.37,-0.01 0.57,-0.03 2.38,-0.28 3.18,-2.32 3.89,-4.12 0.15,-0.39 0.3,-0.77 0.47,-1.13 2.02,-4.43 4.02,-8.87 6.02,-13.31 3.79,-8.42 7.7,-17.12 11.73,-25.6 4.94,-10.39 6.01,-21.37 3.27,-33.58 -0.24,-1.07 -0.49,-2.14 -0.74,-3.21 -0.74,-3.21 -1.51,-6.53 -2.06,-9.82 -0.47,-2.86 -0.72,-6.01 -0.79,-9.88 -0.08,-4.94 2.37,-8.72 7.28,-11.25 3.96,-2.04 8.4,-3.07 13.21,-3.07 0.26,0 0.52,0 0.78,0.01 4.47,0.1 8.38,1.82 11.02,4.84 2.51,2.87 3.64,6.69 3.18,10.74 -0.37,3.29 -1.08,6.54 -2.1,9.64 -1.36,4.11 -3.08,8.06 -4.74,11.72 -12.66,27.93 -25.35,55.85 -38.04,83.76 l -12.55,27.62 c -0.47,1.04 -0.94,2.08 -1.4,3.11 -0.72,1.6 -1.43,3.21 -2.17,4.8 l -0.15,0.32 c -0.5,1.08 -1.01,2.19 -1.68,3.14 -1.55,2.21 -3.44,3.42 -5.33,3.42 -1.88,0 -3.71,-1.22 -5.15,-3.42 -1.05,-1.62 -1.9,-3.44 -2.72,-5.2 -0.2,-0.43 -0.4,-0.85 -0.6,-1.28 -6.8,-14.31 -13.59,-28.63 -20.38,-42.94 l -16.31,-34.37 c -0.94,-1.97 -1.91,-4.02 -3.04,-5.99 -0.32,-0.56 -0.85,-0.95 -1.36,-1.32 -0.2,-0.15 -0.41,-0.3 -0.59,-0.45 l -0.22,-0.19 -0.27,0.1 c -2.52,0.91 -3.5,2.9 -4.37,4.65 -0.21,0.42 -0.42,0.84 -0.64,1.24 -5.38,9.52 -10.79,19.22 -16.03,28.61 l -11.14,19.95 c -6.28,11.25 -12.56,22.5 -18.87,33.73 -1.28,2.28 -2.47,3.98 -3.73,5.36 -0.93,1 -2.01,1.53 -3.12,1.53 z"
   style="fill:#070740;fill-opacity:1" />
<path
   inkscape:connector-curvature="0"
   id="path2517"
   d="m 1382.59,594.69 c -1.43,0 -2.75,-0.66 -3.72,-1.87 -1.55,-1.94 -2.72,-4.21 -3.66,-6.17 -8.09,-16.94 -16.15,-33.88 -24.21,-50.83 -4.67,-9.82 -9.34,-19.63 -14.02,-29.44 -1,-2.1 -1.91,-3.79 -2.85,-5.34 -0.49,-0.8 -1.26,-1.26 -2.12,-1.26 -0.8,0 -1.55,0.41 -2.05,1.14 -1.27,1.82 -2.47,3.73 -3.57,5.69 -7.62,13.61 -15.22,27.23 -22.83,40.85 -7.18,12.85 -14.35,25.69 -21.54,38.53 l -0.41,0.73 c -1.03,1.86 -2.1,3.78 -3.41,5.45 -1.29,1.65 -2.71,2.52 -4.1,2.52 -1.52,0 -3.02,-1.03 -4.34,-2.97 -0.99,-1.45 -1.76,-3.15 -2.44,-4.65 -6.58,-14.49 -13.15,-28.99 -19.72,-43.49 -5.57,-12.29 -11.14,-24.58 -16.71,-36.87 l -2.73,-6.03 c -4.35,-9.6 -8.85,-19.52 -13.36,-29.24 -3.92,-8.44 -6.85,-17.12 -8.71,-25.79 -0.84,-3.92 -0.69,-6.34 0.49,-7.83 1.14,-1.44 3.41,-2.14 7.15,-2.21 2.73,-0.05 5.53,-0.08 8.32,-0.08 3.4,0 6.9,0.04 10.39,0.11 3.82,0.08 6.04,2.03 6.26,5.5 0.74,11.58 5.39,22.06 9.88,32.19 l 0.17,0.38 c 7.6,17.12 15.51,34.45 23.16,51.2 2.86,6.27 5.72,12.53 8.57,18.8 l 0.17,0.37 c 0.68,1.5 1.38,3.05 2.29,4.45 0.44,0.68 1.1,1.16 1.69,1.58 0.22,0.16 0.44,0.31 0.62,0.47 l 0.2,0.17 0.25,-0.06 c 2.7,-0.68 3.7,-2.6 4.58,-4.3 0.14,-0.28 0.29,-0.55 0.44,-0.82 6.62,-11.86 13.22,-23.73 19.82,-35.6 l 7.5,-13.47 c 0.46,-0.83 0.92,-1.67 1.38,-2.51 1.13,-2.06 2.29,-4.19 3.53,-6.22 2.06,-3.39 2.15,-6.76 0.3,-10.59 -3.02,-6.25 -5.26,-11.5 -7.04,-16.54 -1.31,-3.72 -2.31,-7.63 -3.27,-11.42 -0.39,-1.54 -0.78,-3.07 -1.19,-4.6 -0.15,-0.56 -0.17,-1.2 -0.2,-1.82 -0.09,-2.21 0.5,-4.01 1.68,-5.28 1.08,-1.15 2.62,-1.79 4.46,-1.84 3.32,-0.09 6.88,-0.13 10.89,-0.13 4.11,0 8.26,0.05 11.83,0.09 2.74,0.03 4.57,1.49 5.31,4.21 0.56,2.06 0.93,4.22 1.29,6.3 l 0.15,0.86 c 1.05,6.05 2.85,11.88 5.34,17.31 6.87,15 13.71,30.01 20.55,45.03 4.06,8.91 8.11,17.82 12.18,26.73 0.85,1.87 1.84,3.7 2.79,5.48 l 0.27,0.5 c 0.45,0.83 1.06,1.92 1.82,2.89 0.87,1.12 1.96,1.73 3.06,1.73 1.26,0 2.38,-0.78 3.15,-2.21 1.4,-2.6 2.63,-5.34 3.83,-7.99 l 0.77,-1.7 c 1.7,-3.74 3.38,-7.48 5.06,-11.23 3.28,-7.31 6.66,-14.86 10.13,-22.23 4.31,-9.13 5.32,-19.27 3.11,-31 -0.36,-1.88 -0.79,-3.78 -1.22,-5.61 -0.56,-2.43 -1.14,-4.95 -1.53,-7.45 -0.57,-3.67 -0.9,-7.56 -1,-11.88 -0.1,-4.21 2,-7.77 5.91,-10 4.42,-2.53 9.11,-3.82 13.93,-3.82 1.45,0 2.93,0.12 4.41,0.35 5.53,0.87 11.42,6.46 11.02,13.09 l -0.03,0.44 c -0.26,4.36 -0.51,8.49 -2.27,12.45 -2.05,4.63 -4.09,9.27 -6.12,13.91 -3.28,7.48 -6.67,15.2 -10.09,22.77 -10.13,22.42 -20.49,45.19 -30.5,67.21 l -10.4,22.88 c -0.18,0.4 -0.36,0.81 -0.54,1.21 -0.62,1.4 -1.26,2.84 -2.04,4.15 -0.82,1.37 -1.81,2.55 -2.86,3.4 -1,0.84 -2.14,1.27 -3.3,1.27 z"
   style="fill:#070740;fill-opacity:1" />
<path
   inkscape:connector-curvature="0"
   id="path2523"
   d="m 216.6,640.33 c -1.59,0 -3.09,-0.88 -4.23,-2.49 -0.97,-1.36 -1.71,-2.94 -2.43,-4.47 0,0 -9.12,-19.15 -13.5,-28.36 -7.01,-14.74 -14.03,-29.47 -21.06,-44.2 -0.21,-0.44 -0.39,-0.89 -0.58,-1.35 -0.73,-1.78 -1.56,-3.8 -3.87,-5.05 l -0.29,-0.16 -0.26,0.21 c -0.22,0.18 -0.47,0.36 -0.73,0.53 -0.63,0.44 -1.28,0.89 -1.71,1.55 -1.24,1.9 -2.36,3.91 -3.44,5.86 l -13.53,24.22 c -8.63,15.45 -17.26,30.89 -25.91,46.33 -1.06,1.9 -2.16,3.86 -3.54,5.54 -0.94,1.15 -2.11,1.78 -3.28,1.78 -1.2,0 -2.38,-0.66 -3.32,-1.87 -0.92,-1.19 -1.77,-2.66 -2.61,-4.5 -7.71,-16.94 -15.4,-33.88 -23.08,-50.83 L 75.96,553.82 c -3.84,-8.47 -7.8,-17.22 -11.77,-25.8 -3.33,-7.2 -5.95,-15.25 -8.03,-24.62 -0.76,-3.42 0.46,-5.41 3.96,-6.44 l 0.12,-0.04 c 0.99,-0.3 2.02,-0.6 2.99,-0.6 h 1.69 c 5.15,0.01 10.47,0.02 15.69,0.27 3.29,0.16 5.28,1.89 5.48,4.77 0.75,11.08 5.23,21.05 9.57,30.7 0.63,1.4 1.26,2.8 1.88,4.21 6.42,14.57 13.15,29.28 19.66,43.52 1.91,4.17 3.81,8.33 5.71,12.5 1,2.2 2.24,4.53 3.78,7.1 0.43,0.73 1.24,1.17 2.14,1.17 0.83,0 1.61,-0.35 2.14,-0.96 0.85,-0.97 1.5,-1.88 2,-2.78 3.19,-5.71 6.36,-11.44 9.54,-17.16 6.45,-11.61 13.12,-23.63 19.76,-35.39 2.08,-3.69 2.12,-7.02 0.12,-11.13 -3.93,-8.06 -7.8,-16.82 -9.45,-26.19 l -0.13,-0.73 c -0.23,-1.25 -0.46,-2.55 -0.48,-3.81 -0.04,-3.09 1.49,-4.99 4.57,-5.63 0.83,-0.17 1.69,-0.26 2.55,-0.27 1.4,-0.01 2.79,-0.02 4.19,-0.04 2.31,-0.02 4.62,-0.04 6.93,-0.04 2.32,0 4.37,0.02 6.26,0.07 4.24,0.11 5.33,1 6.48,5.29 0.05,0.17 0.09,0.34 0.14,0.51 0.14,0.47 0.27,0.92 0.31,1.36 0.98,8.97 4.5,17.21 7.73,24.23 3.4,7.41 6.79,14.82 10.18,22.23 5.23,11.43 10.47,22.86 15.73,34.28 1.89,4.11 3.71,7.61 5.55,10.71 0.79,1.33 1.86,2.05 3.02,2.05 1.2,0 2.32,-0.8 3.09,-2.19 1.17,-2.14 2.18,-4.39 3.16,-6.58 0.29,-0.64 0.57,-1.27 0.86,-1.9 1.4,-3.07 2.78,-6.14 4.15,-9.22 2.85,-6.37 5.8,-12.96 8.91,-19.33 4.89,-10.02 5.96,-20.57 3.25,-32.24 -0.96,-4.16 -1.97,-8.62 -2.78,-13.05 -0.38,-2.07 -0.55,-4.27 -0.49,-6.53 0.11,-4.91 2.48,-8.48 7.04,-10.63 3.65,-1.72 7.35,-2.59 10.99,-2.59 1.22,0 2.46,0.1 3.67,0.29 6.11,0.97 9.93,5.21 10.23,11.34 0.21,4.29 -0.31,7.76 -1.63,10.94 -0.53,1.29 -1.05,2.58 -1.56,3.88 -0.87,2.19 -1.76,4.44 -2.74,6.61 -15.24,33.63 -31.07,68.47 -48.38,106.51 -0.81,1.77 -1.81,3.97 -3.17,5.7 -1.1,1.39 -2.51,2.16 -3.97,2.16 z"
   style="fill:#070740;fill-opacity:1;stroke:none;stroke-opacity:1" />
<path
   inkscape:connector-curvature="0"
   id="path2529"
   d="m 808.13,590.56 c -3.13,0 -5.29,-0.68 -6.61,-2.09 -1.27,-1.35 -1.81,-3.44 -1.63,-6.38 0.06,-0.96 0.06,-1.94 0.06,-2.88 0,-1.24 0,-2.53 0.13,-3.77 0.34,-3.13 1.96,-4.81 5.1,-5.3 2.07,-0.32 4.12,-0.35 6.58,-0.35 14.94,-0.02 29.89,-0.02 44.83,-0.02 h 29.26 c 1.34,0 2.78,-0.02 4.19,-0.17 3.04,-0.33 5.06,-2.21 5.41,-5.02 0.33,-2.69 -1.29,-5.19 -4.03,-6.22 -1.23,-0.46 -2.62,-0.76 -4.03,-0.87 -1.22,-0.09 -2.45,-0.1 -3.39,-0.1 l -2.66,0.01 -58.84,0.01 c -0.29,0 -0.56,-0.01 -0.84,-0.02 -0.29,-0.01 -0.57,-0.02 -0.86,-0.02 -0.4,0 -0.73,0.02 -1.05,0.06 -0.82,0.11 -1.62,0.16 -2.39,0.16 -6.33,0 -11.14,-3.64 -14.28,-10.81 -4.64,-10.58 -4.74,-20.91 -0.29,-30.7 2.81,-6.18 6.7,-9.85 11.9,-11.22 1.86,-0.49 3.86,-0.75 5.79,-0.75 h 12.45 c 16.63,0 33.26,0.02 49.88,0.04 l 15.89,0.02 c 6.92,0.15 8.98,2.21 9.17,9.2 0.05,1.85 0.05,4.26 -0.41,6.53 -0.6,2.94 -2.49,4.56 -5.63,4.82 -0.69,0.06 -1.46,0.08 -2.41,0.08 -0.5,0 -0.99,-0.01 -1.49,-0.01 -0.47,-0.01 -0.94,-0.01 -1.41,-0.01 0,0 -56.1,-0.1 -70.88,-0.12 -0.38,0 -0.77,-0.01 -1.15,-0.02 -0.41,-0.01 -0.81,-0.02 -1.22,-0.02 -0.98,0 -1.72,0.07 -2.4,0.22 -1.28,0.28 -3.07,0.85 -4.36,1.97 -1.58,1.38 -2.26,3.46 -1.77,5.44 0.48,1.93 1.95,3.36 3.93,3.82 2.71,0.63 5.69,0.63 8.07,0.64 10.05,0.02 20.1,0.03 30.15,0.03 l 30.7,-0.01 c 0.44,0 0.89,0 1.33,0.01 9.96,0.09 17.76,5.89 20.35,15.13 2.06,7.35 2.17,15.05 0.3,22.89 -0.78,3.3 -2.42,6.52 -5.01,9.87 -3,3.88 -6.69,5.77 -11.27,5.77 h -0.4 c -0.6,-0.01 -1.19,-0.02 -1.79,-0.02 -0.72,0 -1.43,0.01 -2.15,0.01 -0.7,0.01 -1.39,0.01 -2.09,0.01 h -37.28 v 0.07 c -3.89,0 -7.77,-0.02 -11.66,-0.04 -4.06,-0.02 -8.11,-0.04 -12.17,-0.04 -6.65,0 -12.1,0.05 -17.14,0.17 -0.14,0 -0.31,0 -0.48,0 z"
   style="fill:#070740;fill-opacity:1" />
<path
   inkscape:connector-curvature="0"
   id="path2535"
   d="m 1524.7,591.26 c -3.59,0 -6.97,-0.09 -10.24,-0.18 -3.18,-0.09 -6.18,-0.17 -9.28,-0.17 -2.26,0 -4.34,0.04 -6.34,0.14 -0.32,0.01 -0.63,0.02 -0.95,0.02 -0.96,0 -1.94,-0.06 -2.88,-0.12 -0.39,-0.02 -0.79,-0.05 -1.17,-0.07 -2.35,-0.12 -4.29,-1.87 -4.62,-4.16 -1.67,-11.82 -0.9,-20.85 8.12,-29.36 1.34,-1.27 6.03,-4.2 7.84,-4.9 2.09,-0.81 4.02,-1.61 5.89,-2.39 3.37,-1.4 6.56,-2.72 10.34,-3.97 11.1,-3.65 20.3,-6.83 30.76,-10.64 1.84,-0.61 2.93,-0.94 3.76,-1.2 1.86,-0.56 2.42,-0.73 7.27,-2.81 0.04,-0.01 7.37,-2.83 8,-5.19 l 0.16,-0.61 -0.64,-0.02 c -1.77,-0.04 -3.52,-0.1 -5.28,-0.15 -3.74,-0.11 -7.61,-0.23 -11.4,-0.24 -8.24,-0.03 -16.47,-0.03 -24.71,-0.03 h -26.14 c -1.49,0 -2.99,-0.02 -4.48,-0.05 -1.41,-0.02 -2.81,-0.04 -4.22,-0.05 -2.92,-0.01 -4.88,-1.56 -5.25,-4.16 -0.49,-3.42 -0.48,-7.02 0.05,-10.42 0.45,-2.89 2.08,-4.1 5.82,-4.31 0.88,-0.05 1.75,-0.06 2.41,-0.06 l 2.24,0.01 64.23,0.02 c 3.31,0 6.62,-0.01 9.93,-0.02 3.31,-0.01 6.62,-0.02 9.93,-0.02 2.52,0 5.04,0.01 7.55,0.02 2.89,0.02 4.73,0.21 5.58,1.13 0.72,0.79 0.91,2.22 0.68,5.27 -0.17,5.23 -0.18,8.18 -0.19,13.53 v 0.5 c 0.47,6.79 -4.87,13.03 -8.36,15.37 -0.68,0.57 -3.55,2.2 -4.33,2.54 -5.6,2.4 -9.03,3.7 -14.73,5.86 l -0.29,0.11 c -5.35,2.03 -10.85,3.93 -16.18,5.77 -2.16,0.75 -4.32,1.49 -6.48,2.25 -0.66,0.23 -1.32,0.45 -1.99,0.66 -0.82,0.26 -1.64,0.53 -2.45,0.83 -2.29,0.83 -3.48,1.28 -4.28,1.58 -1.58,0.59 -1.58,0.59 -5.57,1.92 l -3,1 c -2.34,0.9 -2.83,1.1 -3.94,1.56 l -1.09,0.45 -2.03,1.01 c -0.95,0.48 -2.44,1.4 -4.13,3.09 l -0.84,0.84 1.19,0.01 c 2.97,0.03 6.06,0.04 9.23,0.04 6.65,0 13.72,-0.05 20.56,-0.09 6.8,-0.04 13.55,-0.09 19.86,-0.09 1.19,0 4.19,0.01 4.19,0.01 3.11,0 6.26,-0.06 9.32,-0.12 3.05,-0.06 6.2,-0.12 9.3,-0.12 h 0.11 c 6,0 7.9,1.86 8.15,7.94 0.08,1.84 0.12,4.26 -0.19,6.59 -0.46,3.4 -2.23,5.06 -5.74,5.38 -0.82,0.07 -1.65,0.08 -2.35,0.08 l -1.62,-0.01 c -5.93,-0.01 -11.86,-0.05 -17.79,-0.1 -6.36,-0.05 -12.94,-0.1 -19.42,-0.1 -8.83,0 -16.14,0.09 -23.02,0.29 -1.66,0.09 -3.28,0.11 -4.86,0.11 z"
   style="fill:#070740;fill-opacity:1" />
<path
   inkscape:connector-curvature="0"
   id="path2541"
   d="m 1751.26,591.01 c -4.59,-0.01 -6.37,-1.56 -7.04,-6.15 -0.17,-1.14 -0.24,-2.42 -0.21,-3.92 0.15,-8.63 0.29,-15.23 0.46,-21.39 0.04,-1.43 0.22,-2.96 0.53,-4.56 0.45,-2.3 1.24,-2.98 3.66,-3.13 l 3.29,-0.21 c 4.82,-0.31 9.79,-0.63 14.69,-0.66 7.66,-0.04 15.74,-0.06 26.2,-0.06 5.05,0 31.98,0.02 31.98,0.02 0.47,0 0.94,0.01 1.4,0.01 0.47,0.01 0.95,0.01 1.42,0.01 1.03,0 1.82,-0.03 2.57,-0.09 5.33,-0.44 9.98,-4.47 11.29,-9.81 1.38,-5.61 -1.02,-11.88 -5.59,-14.58 -1.52,-0.9 -3.33,-1.28 -4.58,-1.44 -1.25,-0.16 -2.48,-0.18 -3.52,-0.18 -0.44,0 -2.15,0.02 -2.56,0.02 -17.18,0.02 -34.36,0.05 -51.54,0.08 0,0 -19.35,0.03 -19.35,0.03 -0.39,0 -0.75,-0.01 -1.1,-0.02 -0.36,-0.01 -0.73,-0.02 -1.09,-0.02 -0.4,0 -0.79,0.01 -1.19,0.04 -0.18,0.02 -0.36,0.02 -0.53,0.02 -3.09,0 -5.54,-2.35 -5.7,-5.46 -0.15,-2.96 -0.24,-6.44 0.19,-9.9 0.38,-3.01 2.01,-4.46 5.46,-4.82 1.3,-0.14 2.61,-0.15 3.96,-0.15 14.18,-0.01 28.36,-0.01 42.54,-0.01 10.34,0 20.68,0 31.02,0.01 2.21,0 4.47,0.16 6.64,0.31 6.53,0.45 11.68,3.47 15.75,9.24 2.71,3.83 4.42,8.11 5.08,12.72 1.2,8.26 1.17,15.61 -0.08,22.48 -1.93,10.59 -5.63,15.44 -16.48,21.61 l -0.44,0.25 0.26,0.44 c 0.39,0.67 0.75,1.31 1.09,1.92 0.71,1.27 1.38,2.46 2.16,3.56 2.11,2.96 1.94,6.26 1.52,9.96 -0.31,2.74 -2.76,3.42 -4.19,3.58 -0.2,0.02 -0.41,0.03 -0.62,0.03 h -0.21 c -1.03,0.02 -1.95,0.03 -2.77,0.03 -5.79,0 -6.61,-0.51 -11.03,-6.86 -0.88,-1.27 -1.76,-2.55 -2.63,-3.83 -1.36,-2 -2.77,-4.07 -4.21,-6.06 -2.03,-2.83 -4.86,-4.26 -8.39,-4.26 l -12.17,0.03 c -10.89,0.02 -21.78,0.05 -32.67,0.11 -1.06,0.01 -2.11,0.2 -3.24,0.4 -0.55,0.1 -1.14,0.21 -1.76,0.3 l -0.38,0.06 -0.05,0.38 c -0.08,0.6 -0.16,1.17 -0.24,1.74 -0.18,1.23 -0.35,2.4 -0.41,3.59 -0.06,1.28 -0.05,2.58 -0.05,3.84 0,1.81 0.01,3.68 -0.17,5.49 -0.33,3.45 -2.03,5.02 -5.67,5.26 -0.36,0.02 -0.73,0.03 -1.1,0.03 h -0.2 z"
   style="fill:#070740;fill-opacity:1" />
<path
   inkscape:connector-curvature="0"
   id="path2547"
   d="m 671.28,591.28 c -1.06,0 -2.29,-0.12 -3.88,-0.36 -2.72,-0.42 -3.94,-1.69 -4.18,-4.37 -0.44,-4.76 0.31,-8.41 2.41,-11.84 6.38,-10.37 12.76,-20.98 18.93,-31.23 4.29,-7.12 8.57,-14.24 12.89,-21.35 2.4,-3.95 5.4,-7.63 9.16,-11.27 4.07,-3.93 8.93,-5.76 15.3,-5.76 1.65,0 3.41,0.12 5.4,0.36 4.75,0.59 8.76,3.05 13,8 2.36,2.76 4.46,5.64 6.23,8.56 5.04,8.3 10.11,16.78 15.01,24.98 3.47,5.8 6.94,11.61 10.43,17.4 2.45,4.06 4.7,7.56 6.88,10.71 2.64,3.79 2.47,8.11 2.11,11.86 -0.21,2.21 -1.58,3.51 -3.95,3.75 -1.17,0.12 -2.34,0.14 -3.74,0.14 h -1.55 c -17.72,0 -35.44,-0.01 -53.16,-0.01 h -18.38 c -0.52,0.02 -1,0.03 -1.46,0.03 -2.6,0 -4.02,-0.37 -4.89,-1.27 -1.07,-1.11 -1.48,-3.26 -1.35,-6.96 0.08,-2.05 0.35,-4.46 1.78,-6.74 2.39,-3.81 5.39,-5.52 9.74,-5.52 h 0.29 c 6.39,0.11 13.16,0.16 21.97,0.16 0,0 0.01,0 0.01,0 4,0 8,-0.01 12,-0.02 l 8.15,-0.02 c 0.36,0 0.7,0.01 1.04,0.02 0.37,0.01 0.74,0.02 1.11,0.02 1.5,0 3.31,-0.18 5.4,-1.52 l 0.4,-0.26 -0.23,-0.41 c -0.67,-1.19 -1.31,-2.34 -1.94,-3.46 -1.32,-2.36 -2.56,-4.58 -3.86,-6.77 -1.87,-3.14 -3.75,-6.26 -5.64,-9.39 -2.78,-4.61 -5.66,-9.38 -8.42,-14.11 -1.41,-2.42 -3.46,-5.47 -6.73,-7.59 -1.88,-1.22 -3.73,-1.84 -5.5,-1.84 -1.95,0 -3.83,0.75 -5.59,2.22 -2.32,1.94 -4.31,4.23 -5.75,6.61 -7.57,12.44 -15.18,25.15 -22.54,37.43 -2.47,4.13 -4.94,8.26 -7.42,12.38 -0.13,0.21 -0.26,0.42 -0.4,0.63 -0.1,0.16 -0.21,0.33 -0.31,0.49 -2.99,4.91 -4.96,6.32 -8.77,6.32 z"
   style="fill:#070740;fill-opacity:1" />
<path
   inkscape:connector-curvature="0"
   id="path2553"
   d="m 1083.21,592.11 c -5.88,0 -10.57,-2.17 -14.73,-6.83 -6.56,-7.33 -10.34,-16.18 -11.25,-26.3 -0.66,-7.29 -0.67,-14.67 -0.04,-21.95 0.9,-10.41 4.79,-19.45 11.56,-26.85 3.95,-4.32 8.4,-6.43 13.58,-6.43 h 0.39 c 0.97,0 1.94,-0.03 2.91,-0.06 0.95,-0.03 1.9,-0.06 2.84,-0.06 h 3.13 c 10.44,-0.01 20.89,-0.01 31.33,-0.01 7.69,0 15.39,0 23.08,0.01 2.4,0 4.76,0.09 7.26,0.19 1.04,0.04 2.09,0.08 3.15,0.11 0.12,0.35 0.24,0.68 0.36,0.99 0.28,0.74 0.53,1.38 0.53,1.97 0,1.29 0.06,2.59 0.11,3.85 0.14,3.57 0.27,6.95 -0.54,10.17 -1.19,1.14 -2.47,1.23 -3.79,1.23 h -1.06 l -3.25,0.03 c -7.49,0.07 -15.23,0.15 -22.84,0.16 -3.02,0 -6.03,0.02 -9.05,0.03 -3.75,0.02 -7.51,0.04 -11.26,0.04 -6.69,0 -12.14,-0.06 -17.15,-0.19 -0.21,-0.01 -0.42,-0.01 -0.63,-0.01 -7.74,0 -12.9,3.65 -16.22,11.5 -3.94,9.29 -4.04,18.6 -0.3,27.69 l 0.24,0.6 c 0.51,1.26 1.04,2.57 1.82,3.7 3.71,5.4 7.85,7.8 13.41,7.8 h 0.21 c 7.02,-0.08 14.58,-0.12 23.79,-0.12 5.83,0 11.66,0.01 17.49,0.03 4.97,0.01 9.94,0.03 14.92,0.03 l 4.19,-0.01 c 1.94,0 4.22,0.01 6.49,0.12 2.43,0.11 3.33,0.93 3.42,3.13 0.19,4.49 0.33,9.34 -0.19,14.89 -0.78,0.07 -1.5,0.13 -2.17,0.2 -1.5,0.14 -2.79,0.27 -4.05,0.27 -5.92,0.01 -11.85,0.01 -17.77,0.01 h -14.56 c -13.07,0 -24.06,0.01 -35.24,0.07 z"
   style="fill:#070740;fill-opacity:1" />
<path
   inkscape:connector-curvature="0"
   id="path2559"
   d="m 1687.3,592.09 c -10.23,0 -20.46,-0.01 -30.69,-0.01 h -9.93 c -0.47,0 -0.95,-0.01 -1.42,-0.02 -0.48,-0.01 -0.96,-0.02 -1.45,-0.02 l -0.8,0.01 c -4.59,0 -8.5,-1.82 -12.3,-5.73 -5.66,-5.82 -9.28,-13.07 -11.05,-22.17 -1.91,-9.77 -1.96,-19.55 -0.14,-29.06 1.69,-8.86 5.05,-16.02 10.26,-21.87 4.05,-4.54 8.7,-6.75 14.22,-6.75 h 0.59 c 7.1,0 14.19,-0.04 21.29,-0.08 5.64,-0.03 11.28,-0.06 16.92,-0.07 h 2.93 c 6.24,0 12.48,0.04 18.72,0.07 l 3.09,0.02 c 1.38,0.01 2.75,0.06 4.12,0.11 0.63,0.02 1.25,0.05 1.88,0.06 0.64,0.02 2.72,0.24 2.79,2.21 0.15,3.96 0.14,8.31 -0.04,13.29 -0.04,1.26 -1.18,1.91 -2.29,2 l -1.26,0.1 c -3.29,0.26 -6.7,0.53 -10.04,0.55 -7.57,0.03 -15.13,0.04 -22.7,0.04 l -26.13,-0.01 c -0.67,0 -1.34,0.01 -2.01,0.02 -0.67,0.01 -1.33,0.03 -1.99,0.03 -0.66,0 -1.33,-0.01 -1.99,-0.05 -0.32,-0.02 -0.63,-0.03 -0.94,-0.03 -5.21,0 -9.29,2.53 -12.12,7.53 -6.33,11.16 -6.42,22.47 -0.28,33.62 2.96,5.36 7.28,7.97 13.23,7.97 h 0.22 c 7.3,-0.08 14.98,-0.12 24.16,-0.12 7.71,0 15.42,0.03 23.12,0.05 3.86,0.01 7.71,0.03 11.57,0.04 2.65,0.01 5.26,0.28 7.25,0.52 1.25,0.15 2.16,1.01 2.24,2.15 0.04,0.53 0.08,1.06 0.13,1.6 0.35,4.36 0.71,8.86 -0.85,13.74 -1.05,0.03 -2.05,0.07 -3.03,0.1 -2.22,0.08 -4.31,0.16 -6.39,0.16 -6.28,0 -12.59,0 -18.89,0 z"
   style="fill:#070740;fill-opacity:1" />
<path
   inkscape:connector-curvature="0"
   id="path2565"
   d="m 390.17,693.72 c -0.96,0 -1.97,-0.13 -3.15,-0.41 -0.07,-0.19 -0.15,-0.37 -0.22,-0.54 -0.18,-0.42 -0.33,-0.78 -0.33,-1.09 -0.04,-88.45 -0.05,-180.92 -0.04,-274.83 0,-0.51 0.13,-1.05 0.28,-1.63 0.05,-0.21 0.11,-0.43 0.16,-0.66 1.16,-0.34 2.25,-0.51 3.3,-0.51 1.06,0 2.08,0.17 3.12,0.52 0.07,0.17 0.15,0.34 0.23,0.5 0.19,0.41 0.36,0.76 0.36,1.06 0.05,89.83 0.08,182.29 0.07,274.83 0,0.5 -0.16,1.03 -0.32,1.59 -0.06,0.2 -0.12,0.4 -0.17,0.61 -1.08,0.38 -2.15,0.56 -3.29,0.56 z"
   style="fill:#070740;fill-opacity:1" />
<path
   inkscape:connector-curvature="0"
   id="path2571"
   d="m 302.08,516.93 c -0.53,0 -1.08,-0.11 -1.66,-0.23 -0.21,-0.04 -0.42,-0.09 -0.63,-0.12 -1.27,-2.33 -1.02,-4.67 0.82,-7.52 l 1.23,-1.92 c 2.43,-3.8 4.93,-7.72 7.73,-11.31 3.17,-4.07 6.53,-8.11 9.78,-12.01 2.22,-2.66 4.51,-5.41 6.72,-8.15 5.46,-6.76 8.66,-12.98 10.1,-19.58 0.84,-3.89 0.64,-7.75 -0.6,-11.48 -1.74,-5.22 -5.34,-8.36 -10.4,-9.07 -0.61,-0.08 -1.21,-0.13 -1.8,-0.13 -4.07,0 -7.54,2.03 -10.05,5.88 -1.17,1.79 -2.07,3.73 -3.02,5.79 -0.41,0.88 -0.82,1.78 -1.27,2.69 -1.32,0.34 -2.71,0.51 -4.12,0.51 -1.57,0 -3.18,-0.2 -4.92,-0.6 -0.68,-3.93 -0.46,-7.85 -0.23,-11.98 l 0.01,-0.24 c 0.33,-0.18 0.66,-0.38 0.99,-0.57 0.86,-0.5 1.76,-1.02 2.67,-1.4 7.18,-2.95 13.99,-4.38 20.82,-4.38 0.36,0 0.72,0 1.08,0.01 0.63,0.01 1.26,0.02 1.89,0.02 0.81,0 1.62,-0.01 2.44,-0.02 0.81,-0.01 1.62,-0.02 2.43,-0.02 1.26,0 2.3,0.02 3.26,0.07 2.37,0.11 4.87,0.28 7.13,0.95 9.73,2.89 14.49,11.01 12.43,21.2 -0.81,4.01 -2.46,7.58 -4.91,10.61 -3.16,3.91 -6.17,7.35 -9.22,10.5 -3.52,3.65 -7.15,7.3 -10.67,10.83 -3.13,3.14 -6.36,6.39 -9.5,9.63 l -0.5,0.51 c -1.58,1.6 -3.21,3.26 -3.94,6.02 l -0.12,0.47 0.47,0.14 c 0.42,0.13 0.83,0.28 1.23,0.42 0.89,0.33 1.73,0.64 2.62,0.64 0,0 0.52,0 0.52,0 3.69,0 7.44,-0.05 11.07,-0.1 3.26,-0.04 6.53,-0.09 9.79,-0.1 4.33,-0.01 7.33,-1.75 9.16,-5.32 0.15,-0.3 0.42,-0.58 0.79,-0.96 0.17,-0.18 0.37,-0.38 0.57,-0.61 l 3.65,0.17 c 0.12,0.14 0.23,0.26 0.34,0.37 0.14,0.15 0.33,0.35 0.36,0.43 0.47,6.63 -0.41,13.35 -1.2,19.3 -0.26,0.09 -0.49,0.18 -0.7,0.27 -0.48,0.19 -0.83,0.33 -1.13,0.33 -14.09,0.04 -28.18,0.06 -42.27,0.06 z"
   style="fill:#070740;fill-opacity:1" />
<path
   inkscape:connector-curvature="0"
   id="path2577"
   d="m 984.58,590.47 c -4.41,0 -6,-1.41 -6.78,-6.03 -0.7,-4.17 -0.77,-8.53 -0.76,-11.85 0.03,-5.48 0.19,-11.06 0.34,-16.45 0.07,-2.52 0.14,-5.03 0.2,-7.55 0.04,-1.67 0.06,-3.34 0.09,-5.02 0.04,-3.17 0.09,-6.44 0.25,-9.65 0.32,-6.48 2.56,-12.64 6.64,-18.31 4.93,-6.85 11.44,-10.34 19.36,-10.36 3.54,-0.01 7.14,-0.07 10.61,-0.13 3.78,-0.06 7.68,-0.13 11.52,-0.13 1.3,0 2.59,0.01 3.89,0.02 8.68,0.11 9.67,1.17 9.64,10.24 V 516 c 0,0.84 0.01,1.71 -0.06,2.54 -0.34,4.29 -2.14,6.08 -6.2,6.18 -5.28,0.13 -10.66,0.15 -15.86,0.17 l -4.82,0.02 c -1.27,0 -2.95,-0.02 -4.63,-0.16 -0.42,-0.03 -0.83,-0.05 -1.24,-0.05 -4.94,0 -8.85,2.59 -11.61,7.7 -1.42,2.63 -2.39,5.58 -2.74,8.31 -0.42,3.24 -0.44,6.57 -0.47,9.79 -0.01,0.97 -0.02,1.94 -0.03,2.91 -0.05,2.47 -0.03,4.98 -0.02,7.41 0,1.09 0.01,2.18 0.01,3.27 v 0.53 h 0.04 l -0.06,3.91 c -0.06,3.85 -0.12,7.71 -0.21,11.56 l -0.01,0.85 c -0.02,1.46 -0.05,2.98 -0.27,4.42 -0.53,3.47 -2.21,4.95 -5.82,5.09 -0.34,0.02 -0.68,0.02 -1,0.02 z"
   style="fill:#070740;fill-opacity:1" />
<path
   inkscape:connector-curvature="0"
   id="path2583"
   d="m 1789.96,692.72 c -1.48,0 -2.5,-0.37 -3.03,-1.08 -0.64,-0.85 -0.67,-2.28 -0.09,-4.26 0.15,-0.51 0.93,-1.2 1.45,-1.28 1.94,-0.3 3.98,-0.33 5.91,-0.33 9.38,-0.02 18.76,-0.02 28.14,-0.02 h 15.98 l 2.15,0.01 c 0.97,0 2.11,-0.01 3.24,-0.12 2.84,-0.26 4.79,-2.04 4.97,-4.54 0.17,-2.45 -1.8,-4.55 -4.59,-4.9 -1.49,-0.19 -2.97,-0.2 -4.62,-0.2 h -0.77 c -6.22,-0.01 -12.45,-0.01 -18.67,-0.01 h -17.43 c -0.46,0 -2.3,0.02 -2.75,0.02 -0.64,0 -1.27,-0.01 -1.9,-0.04 -6.67,-0.29 -11.08,-4.65 -11.49,-11.36 -0.4,-6.57 3.62,-11.73 10.01,-12.84 1.16,-0.2 2.39,-0.22 3.66,-0.22 h 0.25 c 14.71,0.01 29.41,0.03 44.12,0.08 1.82,0.01 3.92,0.04 5.93,0.31 1.83,0.25 2.81,1.65 2.68,3.86 -0.11,1.79 -1.11,2.81 -2.89,2.94 -1.06,0.08 -2.13,0.09 -2.94,0.09 l -2.36,-0.01 -44.2,-0.02 c -1.21,0 -2.61,0.02 -3.98,0.2 -2.3,0.31 -4.17,2.28 -4.27,4.5 -0.11,2.58 1.81,4.63 4.57,4.88 1.12,0.1 2.22,0.11 3.16,0.11 l 2.19,-0.01 9.39,0.01 c 4.11,0.01 8.21,0.01 12.31,0.01 5.93,0 11.85,-0.01 17.78,-0.05 h 0.11 c 3.02,0 5.69,0.81 8.38,2.56 2.9,1.88 4.67,5.67 4.63,9.89 -0.04,4.52 -2.05,8.46 -5.37,10.53 -1.85,1.15 -3.8,1.25 -6.17,1.26 -3.97,0.02 -7.94,0.02 -11.91,0.02 l -14.66,-0.01 v 0.01 h -23.56 l -2.95,0.01 z"
   style="fill:#4d4d4d;fill-opacity:1" />
<path
   inkscape:connector-curvature="0"
   id="path2589"
   d="m 1153.17,557.18 c -0.44,0 -0.88,-0.02 -1.31,-0.04 -0.44,-0.02 -0.88,-0.04 -1.31,-0.04 -8.21,0.01 -16.4,0.02 -24.58,0.02 l -34.15,-0.01 c -1.41,0 -2.83,0.01 -4.24,0.03 -1.41,0.01 -2.82,0.02 -4.23,0.02 -1.4,0 -2.79,-0.01 -4.19,-0.05 -3.76,-0.1 -4.61,-0.93 -4.75,-4.71 -0.14,-3.6 -0.12,-6.86 0.04,-9.96 0.13,-2.47 1.13,-3.42 3.8,-3.62 0.54,-0.04 1.12,-0.06 1.88,-0.06 0.34,0 1.69,0.01 2.04,0.01 l 13.42,-0.02 c 16.43,-0.02 32.86,-0.05 49.29,-0.05 h 4.72 c 0.4,0 0.79,-0.01 1.18,-0.02 0.39,-0.01 0.79,-0.02 1.2,-0.02 1.53,0 3.21,0.15 5.18,1.24 l 0.09,1.57 c 0.29,4.88 0.58,9.91 -0.42,14.67 -1.29,0.92 -2.57,1.04 -3.66,1.04 z"
   style="fill:#070740;fill-opacity:1" />
<path
   inkscape:connector-curvature="0"
   id="path2595"
   d="m 1642.4,558.3 c -0.83,0 -1.81,-0.01 -2.77,-0.08 -2.69,-0.21 -3.79,-1.2 -3.91,-3.53 -0.17,-3.42 -0.19,-7 -0.04,-10.62 0.1,-2.33 1.26,-3.48 3.77,-3.74 0.62,-0.06 1.26,-0.07 1.74,-0.07 l 1.48,0.01 11.91,-0.02 c 18.07,-0.03 36.14,-0.06 54.22,-0.07 h 0.22 c 7.47,0 7.61,0.14 7.66,7.69 l 0.01,1.04 c 0.02,1.84 0.04,3.74 -0.1,5.58 -0.2,2.71 -0.98,3.5 -3.65,3.69 -0.75,0.05 -1.5,0.06 -2.07,0.06 l -1.89,-0.01 h -33.2 v 0.06 z"
   style="fill:#070740;fill-opacity:1" />
<path
   inkscape:connector-curvature="0"
   id="path2601"
   d="m 1500.62,692.42 h -41.47 c -0.44,0 -0.89,0 -1.33,-0.01 -8.05,-0.14 -13.73,-4.19 -16.87,-12.02 -3.67,-9.16 -0.83,-20.09 6.73,-26.01 2.77,-2.17 5.69,-3.22 8.91,-3.22 15.41,0.02 30.79,0.06 46.18,0.1 0.86,0 1.75,0 2.57,0.16 1.52,0.29 2.54,1.71 2.47,3.44 -0.07,1.83 -1.06,2.99 -2.71,3.19 -1.17,0.14 -2.38,0.15 -3.42,0.15 h -28.47 -10.03 c -2.03,0 -4.14,0 -6.2,0.18 -6.9,0.59 -11.92,6.02 -11.94,12.9 -0.03,7.44 4.74,13 11.85,13.81 0.71,0.08 1.4,0.12 2.06,0.12 h 3.57 c 11.11,-0.01 22.59,-0.01 33.89,-0.07 0.75,0 1.46,-0.19 2.29,-0.4 0.4,-0.1 0.84,-0.21 1.31,-0.31 l 0.51,-0.11 -0.13,-0.51 c -1.06,-4.14 -3.52,-6.69 -7.53,-7.79 -2.03,-0.56 -4.21,-0.68 -6.07,-0.72 -2.1,-0.05 -4.17,-0.06 -5.93,-0.06 h -4.11 c -1.12,0 -2.23,0 -3.35,-0.01 -1.5,-0.01 -2.99,-0.08 -4.56,-0.15 -0.62,-0.03 -1.25,-0.06 -1.89,-0.08 -0.13,-0.37 -0.28,-0.72 -0.42,-1.06 -0.36,-0.88 -0.67,-1.64 -0.69,-2.38 -0.05,-2.06 1.03,-3.17 3.2,-3.3 1.43,-0.09 2.88,-0.1 4.11,-0.1 l 2.54,0.01 c 1.23,0 2.45,-0.01 3.68,-0.01 1.22,-0.01 2.45,-0.01 3.67,-0.01 2.36,0 4.27,0.03 6.01,0.09 5.34,0.18 10.24,2.45 13.8,6.39 3.57,3.95 5.34,9.06 4.99,14.39 -0.15,2.22 -1.07,3.16 -3.27,3.34 -0.79,0.06 -1.57,0.07 -2.23,0.07 z"
   style="fill:#4d4d4d;fill-opacity:1" />
<path
   inkscape:connector-curvature="0"
   id="path2607"
   d="m 1066.46,691.04 c -2.9,0 -5.7,-0.18 -8.08,-2.32 -2.87,-2.58 -5.87,-5.83 -6.27,-10.3 -0.55,-6.04 -0.59,-10.88 -0.13,-15.25 0.73,-6.95 7.02,-12.66 14.64,-13.3 0.44,-0.04 0.88,-0.05 1.33,-0.05 l 1.3,0.01 h 7.38 c 8.69,0 17.37,0 26.06,0.04 1.64,0.01 3.51,0.01 5.19,0.42 7.62,1.82 11.93,6.89 12.47,14.66 0.28,4.1 0.08,8.33 -0.14,11.96 -0.22,3.76 -1.66,7.11 -4.27,9.94 -2.63,2.85 -5.44,4.18 -8.84,4.18 h -0.16 c -2.95,-0.04 -5.89,-0.05 -8.84,-0.05 -2.09,0 -4.19,0 -6.28,0.01 -2.09,0 -4.19,0.01 -6.28,0.01 h -0.5 v 0.02 l -10.4,-0.01 c -2.61,0 -5.22,0 -7.83,0.02 z m 8.44,-33.89 c -2.84,0 -5.18,0.02 -7.36,0.07 -5.95,0.14 -9.39,3.58 -9.68,9.69 -0.12,2.46 -0.04,4.9 0.05,7.39 0.26,6.58 3.19,9.56 9.5,9.66 4.7,0.07 9.82,0.1 16.1,0.1 0,0 0,0 0,0 3.54,0 7.09,-0.01 10.63,-0.02 3.33,-0.01 6.67,-0.02 10,-0.02 0.85,0 1.81,0 2.75,-0.17 4.42,-0.77 7.43,-4.21 7.67,-8.78 0.13,-2.39 0.16,-4.88 0.1,-7.38 -0.17,-6.86 -3.56,-10.27 -10.37,-10.43 -2.08,-0.05 -4.31,-0.07 -7.01,-0.07 -1.84,0 -3.68,0.01 -5.52,0.02 -1.67,0.01 -3.34,0.02 -5.02,0.02 l -0.5,-0.04 c -1.89,0 -3.78,-0.01 -5.67,-0.02 -1.89,-0.01 -3.78,-0.02 -5.67,-0.02 z"
   style="fill:#4d4d4d;fill-opacity:1" />
<path
   inkscape:connector-curvature="0"
   id="path2613"
   d="m 1340.48,692.14 v -0.15 h -0.5 c -1.93,0 -3.86,0.01 -5.79,0.02 -1.93,0.01 -3.86,0.02 -5.79,0.02 -2.74,0 -5,-0.02 -7.12,-0.08 -9.38,-0.23 -15.22,-5.96 -15.62,-15.34 -0.15,-3.52 -0.17,-7.11 -0.04,-10.65 0.3,-8.7 6.32,-14.9 14.64,-15.08 6.97,-0.15 13.36,-0.22 19.52,-0.22 6.76,0 13.05,0.09 19.22,0.27 11.89,0.35 14.53,9.39 15.04,14.75 0.35,3.62 0.33,7.4 -0.05,11.25 -0.25,2.53 -1.01,5.17 -2.15,7.43 -2.5,4.96 -6.47,7.5 -11.81,7.55 -1.74,0.02 -3.47,0.07 -5.21,0.11 -1.6,0.05 -3.21,0.09 -4.81,0.11 -1.3,0.02 -2.61,0.02 -3.91,0.02 z m -1.68,-34.44 c -5.49,0 -11.26,0.03 -17.17,0.07 -6.13,0.05 -9.88,3.68 -10.29,9.97 -0.14,2.18 -0.14,4.52 -0.01,7.38 0.28,6.12 3.63,9.42 9.69,9.56 2.18,0.05 4.52,0.07 7.37,0.07 1.83,0 3.66,-0.01 5.49,-0.02 1.83,-0.01 3.66,-0.02 5.49,-0.02 h 0.32 c 1.94,0 3.88,0.01 5.83,0.02 1.94,0.01 3.89,0.02 5.83,0.02 2.97,0 5.41,-0.02 7.68,-0.07 5.19,-0.1 8.82,-3.5 9.24,-8.64 0.19,-2.34 0.25,-4.82 0.19,-7.38 -0.17,-7.04 -3.92,-10.8 -10.83,-10.88 -6.04,-0.04 -12.38,-0.08 -18.83,-0.08 z"
   style="fill:#4d4d4d;fill-opacity:1" />
<path
   inkscape:connector-curvature="0"
   id="path2619"
   d="m 1459.42,590.44 c -5.66,0 -8.19,-1.93 -8.75,-6.66 -0.17,-1.45 -0.16,-2.96 -0.15,-4.41 v -0.87 c 0.01,-20.93 0.04,-41.86 0.07,-62.79 0,-0.35 0,-0.71 0,-1.06 -0.01,-1.18 -0.02,-2.39 0.1,-3.56 0.5,-4.77 2.65,-6.38 8.53,-6.38 0.22,0 0.83,0.01 0.83,0.01 0.49,0.01 0.98,0.02 1.47,0.06 3.76,0.33 5.71,1.73 6.3,4.53 0.49,2.31 0.5,4.74 0.51,7.1 v 0.11 c 0.04,7.46 0.03,14.92 0.03,22.38 v 9.01 7.49 c 0,7.75 0.01,15.49 -0.02,23.24 v 0.53 c 0,2 -0.01,4.07 -0.39,6.03 -0.66,3.42 -2.93,5.02 -7.36,5.21 -0.4,0.03 -0.79,0.03 -1.17,0.03 z"
   style="fill:#070740;fill-opacity:1" />
<path
   inkscape:connector-curvature="0"
   id="path2625"
   d="m 681,691.98 c -6.99,0 -11.9,-1.87 -15.94,-6.05 -3.98,-4.13 -5.97,-11.59 -4.94,-18.56 0.92,-6.26 4.18,-11.24 9.16,-14.03 3.03,-1.7 6.42,-2.49 10.66,-2.5 h 3.79 l 11.69,0.01 c 4.21,0 8.41,-0.01 12.62,-0.05 3.48,-0.03 7,-0.3 10.4,-0.55 l 0.95,-0.07 c 0.45,-0.03 0.89,-0.05 1.33,-0.05 2.03,0 3.75,0.41 5.41,1.29 v 5.54 c -0.35,0.05 -0.7,0.11 -1.05,0.17 -1.01,0.17 -1.97,0.33 -2.92,0.34 -9.53,0.04 -19.07,0.04 -28.6,0.04 h -9.53 l -2.93,-0.01 c -0.81,0 -1.63,0.01 -2.44,0.04 -6.44,0.27 -10.9,4.13 -12.56,10.86 -1.38,5.63 1.56,12.29 6.56,14.84 1.55,0.79 3.56,1.21 5.99,1.26 4.79,0.08 9.66,0.1 14.22,0.1 h 11.02 c 6.53,0.01 13.05,0.03 19.58,0.07 0.54,0 1.08,0.09 1.71,0.19 0.23,0.04 0.46,0.07 0.7,0.11 0.75,2.03 0.77,4.01 0.07,6.54 -0.38,0.05 -0.75,0.11 -1.13,0.16 -1,0.15 -2.04,0.31 -3.04,0.31 C 715.44,692 709.1,692 702.76,692 Z"
   style="fill:#4d4d4d;fill-opacity:1" />
<path
   inkscape:connector-curvature="0"
   id="path2631"
   d="m 800.87,691.85 c -1.4,0 -2.7,-1.14 -3.01,-2.66 -0.13,-0.61 -0.19,-1.25 -0.19,-1.89 0,-10.7 0,-21.41 0.04,-32.11 0,-0.88 0.14,-1.72 0.41,-2.45 0.42,-1.15 1.3,-1.73 2.63,-1.73 1.63,0 2.78,0.82 2.93,2.08 0.15,1.23 0.17,2.51 0.19,3.75 0.01,0.51 0.02,1.03 0.04,1.54 0.06,1.71 0.25,7.81 0.25,7.81 l 0.35,0.1 c 0.45,0.13 0.87,0.28 1.25,0.42 0.82,0.3 1.54,0.55 2.3,0.56 8.53,0.03 17.06,0.04 25.58,0.04 7.98,0 15.95,-0.01 23.92,-0.03 0.67,0 1.32,-0.2 1.85,-0.37 0.2,-0.06 0.38,-0.12 0.55,-0.16 l 0.15,-0.04 0.1,-0.11 c 1.5,-1.65 1.46,-3.43 1.42,-5 -0.01,-0.43 -0.02,-0.86 0,-1.28 0.05,-1.04 0.07,-2.07 0.08,-3.11 0.02,-1.39 0.04,-2.82 0.16,-4.22 0.12,-1.42 1.32,-1.87 2.31,-2.01 0.18,-0.02 0.36,-0.04 0.54,-0.04 1.33,0 2.36,0.69 2.64,1.76 0.27,1.04 0.41,2.13 0.41,3.17 0.02,10.12 0.01,20.24 0,30.36 v 1.08 c 0,0.74 -0.05,1.37 -0.14,1.92 -0.27,1.57 -1.37,2.54 -2.89,2.54 -0.12,0 -0.24,-0.01 -0.37,-0.02 -1.52,-0.15 -2.49,-1.1 -2.6,-2.53 -0.09,-1.27 -0.1,-2.58 -0.11,-3.85 0,-0.71 -0.01,-1.43 -0.02,-2.14 -0.04,-1.52 -0.09,-3.04 -0.14,-4.61 l -0.08,-2.49 -0.34,-0.11 c -0.46,-0.14 -0.88,-0.31 -1.28,-0.46 -0.83,-0.32 -1.54,-0.6 -2.31,-0.6 -10.17,-0.04 -20.34,-0.06 -30.51,-0.06 -6.33,0 -12.67,0.01 -19,0.02 -0.6,0 -1.17,0.15 -1.97,0.36 -0.43,0.11 -0.93,0.25 -1.54,0.38 l -0.38,0.09 -0.2,8.13 c -0.01,0.54 -0.02,1.08 -0.02,1.62 -0.01,1.22 -0.02,2.47 -0.14,3.69 -0.13,1.36 -1.25,2.49 -2.6,2.63 -0.08,0.03 -0.17,0.03 -0.26,0.03 z"
   style="fill:#4d4d4d;fill-opacity:1" />
<path
   inkscape:connector-curvature="0"
   id="path2637"
   d="m 989.66,691.94 c -10.79,0 -18.99,-3.54 -25.08,-10.83 -3.52,-4.22 -7.24,-8.4 -10.83,-12.44 -1.67,-1.88 -3.34,-3.77 -5,-5.66 -2.99,-3.41 -5.37,-5.25 -9.38,-5.25 -1.39,0 -2.98,0.2 -5.19,0.64 l -0.17,0.03 -0.11,0.13 c -1.31,1.55 -1.26,3.31 -1.2,5.01 0.01,0.36 0.02,0.71 0.02,1.06 -0.03,4 -0.03,8.01 -0.03,12.01 0,2.68 0,5.35 -0.01,8.03 0,1.44 -0.01,3.07 -0.17,4.62 -0.14,1.42 -1.12,2.28 -2.69,2.35 h -0.17 c -1.41,0 -2.49,-0.85 -2.69,-2.12 -0.12,-0.77 -0.18,-1.61 -0.18,-2.58 l -0.01,-6.96 c -0.01,-7.79 -0.03,-15.84 0.04,-23.76 0.04,-5.13 0.42,-5.5 5.76,-5.59 0.75,-0.01 1.5,-0.02 2.25,-0.02 1.32,0 2.54,0.02 3.73,0.07 5.83,0.24 10.3,2.33 13.65,6.38 2.86,3.45 5.88,6.86 8.79,10.16 2.3,2.6 4.69,5.3 6.97,7.99 3.41,4.02 7.39,6.75 12.16,8.34 1.8,0.6 3.42,0.88 5.1,0.88 1.39,0 2.83,-0.19 4.38,-0.59 l 0.35,-0.09 0.02,-0.37 c 0.04,-0.78 0.1,-1.51 0.14,-2.21 0.1,-1.44 0.19,-2.8 0.2,-4.14 0.02,-3.99 0.01,-7.97 0,-11.96 0,-2.25 -0.01,-4.5 -0.01,-6.74 v -0.85 c -0.01,-1.25 -0.01,-2.53 0.11,-3.77 0.18,-1.88 1.17,-2.86 2.92,-2.91 h 0.14 c 1.68,0 2.71,0.96 2.92,2.71 0.12,0.99 0.12,2.02 0.12,3.02 v 0.25 c 0.01,9.79 0.01,19.59 0.01,29.39 v 0.4 c 0,0.73 0,1.49 -0.07,2.21 -0.2,1.91 -1.15,2.89 -2.91,3.01 -1.32,0.11 -2.63,0.15 -3.88,0.15 z"
   style="fill:#4d4d4d;fill-opacity:1" />
<path
   inkscape:connector-curvature="0"
   id="path2643"
   d="m 959.93,524.83 c -1.53,0 -3.06,-0.01 -4.58,-0.02 -1.53,-0.01 -3.06,-0.02 -4.59,-0.02 h -0.5 v 0.01 c -1.32,0 -2.65,0.01 -3.97,0.01 -1.49,0.01 -2.98,0.02 -4.46,0.02 -1.9,0 -3.81,-0.01 -5.71,-0.05 -4.64,-0.1 -6.94,-2.24 -7.25,-6.74 -0.13,-1.84 -0.23,-4.25 0.11,-6.54 0.22,-1.5 1.37,-6.39 6.83,-6.39 h 0.24 c 4.59,0.12 9.15,0.15 14.59,0.15 h 5.57 c 3.05,0 6.1,0.01 9.16,0.04 3.86,0.05 6.01,1.76 6.55,5.23 0.45,2.82 0.49,5.98 0.12,9.13 -0.36,3.09 -2.59,5 -5.96,5.09 -1.83,0.06 -3.78,0.08 -6.15,0.08 z"
   style="fill:#070740;fill-opacity:1" />
<path
   inkscape:connector-curvature="0"
   id="path2649"
   d="m 593.72,691.91 h -1.47 c -4.53,0 -9.06,-0.02 -13.6,-0.05 -4.53,-0.02 -9.07,-0.05 -13.6,-0.05 -2.7,0 -5.4,0.01 -8.1,0.03 h -0.2 c -7.55,0 -12.64,-3.64 -15.54,-11.12 -2.98,-7.67 -2.42,-15.08 1.66,-22.03 2.91,-4.96 6.7,-7.49 11.27,-7.54 5.75,-0.06 12,-0.09 19.69,-0.09 4.27,0 8.54,0.01 12.78,0.02 4.14,0.01 8.26,0.02 12.36,0.02 1.55,1.43 1.32,2.75 0.76,4.42 -0.11,0.05 -0.23,0.11 -0.34,0.17 -0.34,0.18 -0.7,0.36 -1,0.37 -9.75,0.1 -19.83,0.14 -28.71,0.18 h -1.88 l -6.17,-0.01 c -1.33,0 -2.65,0 -3.98,0.02 -9,0.1 -14.48,5.58 -14.67,14.64 -0.07,3.31 0.7,6.41 2.29,9.22 2.31,4.1 5.4,6.12 9.44,6.17 l 4.98,0.07 c 4.49,0.07 9.13,0.14 13.7,0.16 0.93,0 1.87,0 2.8,0 2.49,0 4.98,-0.01 7.47,-0.02 2.49,-0.01 4.98,-0.02 7.47,-0.02 1.2,0 2.4,0 3.6,0.01 1.14,0.01 2.27,0.15 3.57,0.32 0.5,0.06 1.02,0.13 1.57,0.19 v 3.77 c -1.57,1.06 -3.19,1.15 -4.71,1.15 z"
   style="fill:#4d4d4d;fill-opacity:1" />
<path
   inkscape:connector-curvature="0"
   id="path2655"
   d="m 1676.35,692.52 c -5.26,0 -9.35,-2.32 -12.17,-6.9 -5.35,-8.7 -5.43,-17.68 -0.24,-26.68 2.62,-4.55 6.51,-6.93 11.56,-7.06 0.76,-0.02 1.52,-0.06 2.27,-0.1 1,-0.06 2.04,-0.11 3.05,-0.12 5.69,-0.01 11.38,-0.02 17.06,-0.02 5,0 9.99,0 14.99,0.02 h 1.55 c 2.01,0 3.98,0.07 6.01,0.86 v 3.36 c -0.1,0.05 -0.2,0.11 -0.3,0.17 -0.34,0.2 -0.69,0.41 -0.98,0.42 -5.66,0.21 -10.78,0.39 -15.99,0.44 -1.9,0.02 -3.79,0.02 -5.69,0.02 -2.82,0 -5.65,-0.01 -8.47,-0.03 -2.18,-0.01 -4.36,-0.02 -6.53,-0.03 0,0 0,0 0,0 -0.53,0 -1,0.01 -1.47,0.02 -0.47,0.01 -0.93,0.02 -1.4,0.02 -0.37,0 -0.74,-0.01 -1.11,-0.02 -0.28,-0.01 -0.56,-0.02 -0.83,-0.02 -7.79,0 -12.43,4.49 -13.8,13.33 -0.58,3.78 0.28,7.66 2.51,11.22 2.43,3.9 5.87,5.87 10.23,5.87 h 0.14 c 3.62,-0.03 7.24,-0.04 10.87,-0.04 3.07,0 6.13,0.01 9.2,0.02 2.66,0.01 8.82,0.01 8.82,0.01 h 4.66 c 2.39,0 4.79,0.01 7.18,0.04 0.68,0.01 1.36,0.12 2.15,0.26 0.27,0.04 0.55,0.09 0.84,0.14 l 0.24,4.16 c -0.33,0.07 -0.64,0.14 -0.95,0.21 -0.87,0.2 -1.7,0.38 -2.49,0.38 -3.39,0.01 -6.79,0.02 -10.18,0.02 h -12.4 c -5.38,0 -11.74,0.01 -18.16,0.06 z"
   style="fill:#4d4d4d;fill-opacity:1" />
<path
   inkscape:connector-curvature="0"
   id="path2661"
   d="m 1212.79,691.37 c -9.75,0 -19.5,-0.01 -29.25,-0.02 -1.3,0 -2.62,-0.1 -4.02,-0.21 -0.57,-0.04 -1.15,-0.09 -1.75,-0.13 -0.09,-0.37 -0.18,-0.73 -0.28,-1.07 -0.24,-0.91 -0.45,-1.69 -0.46,-2.47 -0.07,-10.08 -0.07,-20.33 -0.07,-30.24 v -1.78 c 0,-0.76 0.08,-1.6 0.24,-2.57 0.2,-1.2 0.94,-1.89 2.02,-1.89 0.05,0 0.11,0 0.17,0 1.27,0.08 2.03,0.78 2.19,2.03 0.22,1.72 0.26,3.47 0.28,5.26 0.03,2.62 0.04,5.24 0.06,7.86 0.02,3.99 0.05,8.11 0.12,12.17 0.02,1.2 0.2,2.38 0.4,3.63 0.09,0.59 0.19,1.19 0.27,1.82 l 0.05,0.41 0.41,0.03 c 0.7,0.05 1.36,0.11 1.99,0.17 1.27,0.12 2.47,0.22 3.66,0.23 9.37,0.03 18.74,0.04 28.11,0.05 5.98,0.01 11.96,0.01 17.94,0.03 l 2.85,-0.01 c 1.33,0 2.9,0.02 4.42,0.19 1.02,0.11 1.9,0.86 2.37,2 0.5,1.22 0.37,2.58 -0.34,3.45 -0.31,0.38 -0.88,0.71 -1.34,0.77 -1.38,0.18 -2.88,0.27 -4.58,0.28 -8.48,0.01 -16.97,0.01 -25.46,0.01 z"
   style="fill:#4d4d4d;fill-opacity:1" />
<path
   inkscape:connector-curvature="0"
   id="path2667"
   d="m 466.69,691.93 c -1.5,0 -2.63,-0.96 -2.81,-2.38 -0.21,-1.63 -0.22,-3.34 -0.22,-4.99 0,-0.53 0,-1.05 -0.01,-1.57 -0.02,-1.55 -0.02,-3.09 -0.01,-4.64 v -1.52 l 0.15,-0.5 c 0,-1.05 -0.02,-2.1 -0.04,-3.15 -0.05,-2.24 -0.09,-4.57 0.08,-6.82 0.66,-8.58 6.55,-14.49 15,-15.07 2.75,-0.19 5.71,-0.27 9.34,-0.27 2.31,0 4.62,0.03 6.92,0.07 l 1.71,0.03 c 1.45,0.02 2.44,0.35 3.02,1.01 0.58,0.65 0.79,1.64 0.65,3.04 -0.16,1.63 -0.96,2.41 -2.52,2.46 -3.34,0.12 -6.74,0.15 -10.03,0.17 l -2.22,0.02 c -0.6,0 -1.21,-0.02 -1.81,-0.04 -0.61,-0.02 -1.23,-0.04 -1.84,-0.04 -0.25,0 -0.51,0 -0.76,0.01 -6.26,0.19 -10.47,3.79 -11.56,9.89 -0.28,1.59 -0.28,3.24 -0.28,4.83 0,0.41 0,0.82 0,1.23 -0.02,2.11 -0.03,4.22 -0.04,6.33 -0.01,2.96 -0.02,6.01 -0.08,9.01 -0.03,1.64 -0.79,2.65 -2.14,2.84 -0.17,0.03 -0.34,0.05 -0.5,0.05 z"
   style="fill:#4d4d4d;fill-opacity:1" />
<path
   inkscape:connector-curvature="0"
   id="path2673"
   d="m 1675.59,674.74 c -0.16,0 -0.32,0 -0.48,-0.01 -1.56,-0.07 -2.48,-0.2 -2.87,-0.66 -0.45,-0.52 -0.43,-1.72 -0.21,-3.85 0.19,-0.04 0.39,-0.09 0.59,-0.13 0.68,-0.16 1.38,-0.32 2.06,-0.34 5.88,-0.2 12.51,-0.3 19.17,-0.3 12.53,0 22.82,0.36 26.61,0.92 v 3.87 c -0.27,0.05 -0.53,0.1 -0.8,0.15 -0.86,0.17 -1.66,0.32 -2.47,0.33 -7.23,0.02 -14.47,0.03 -21.7,0.03 h -19.07 z"
   style="fill:#4d4d4d;fill-opacity:1" />
<path
   inkscape:connector-curvature="0"
   id="path2679"
   d="m 580.84,674.1 c -11.62,0 -25.55,-0.33 -29.65,-0.88 v -3.71 c 0.33,-0.08 0.66,-0.16 0.98,-0.24 0.87,-0.22 1.68,-0.43 2.46,-0.43 10.86,-0.06 21.9,-0.07 32.57,-0.08 l 9.15,-0.01 c 0.1,0 0.2,0 0.29,0.01 1.47,0.08 2.4,0.21 2.8,0.68 0.47,0.55 0.47,1.75 0.26,3.89 -0.19,0.04 -0.39,0.09 -0.58,0.14 -0.68,0.17 -1.37,0.34 -2.06,0.37 -3.95,0.16 -9.72,0.26 -16.22,0.26 z"
   style="fill:#4d4d4d;fill-opacity:1" />
<path
   inkscape:connector-curvature="0"
   id="path2685"
   d="m 1586.97,692.47 c -1.54,-0.1 -2.56,-0.99 -2.74,-2.37 -0.15,-1.18 -0.15,-2.42 -0.15,-3.61 v -0.33 c -0.01,-3.54 -0.01,-7.07 -0.01,-10.61 v -3.58 l 0.09,-0.5 v -4.57 c 0,-4.04 -0.01,-8.08 0.02,-12.12 0.01,-1.35 0.57,-2.26 1.69,-2.7 0.4,-0.16 0.81,-0.24 1.23,-0.24 1.39,0 2.56,0.88 2.85,2.15 0.21,0.92 0.31,1.97 0.31,3.19 0.03,10.1 0.03,20.21 0,30.05 0,1.12 -0.11,2.2 -0.33,3.2 -0.27,1.26 -1.31,2.04 -2.71,2.04 -0.08,0.01 -0.16,0.01 -0.25,0 z"
   style="fill:#4d4d4d;fill-opacity:1" />
<path
   inkscape:connector-curvature="0"
   id="path2691"
   d="m 438.74,657.62 c -1.25,0 -2.49,-0.01 -3.73,-0.06 -1.85,-0.06 -2.86,-1.02 -2.9,-2.78 -0.03,-1.06 0.35,-2.13 0.98,-2.79 0.27,-0.29 0.73,-0.63 1.36,-0.65 3.33,-0.07 6.78,-0.1 10.28,-0.1 3.13,0 6.39,0.03 9.69,0.08 1.74,0.03 2.33,1.7 2.53,2.69 0.19,0.98 0.01,1.88 -0.5,2.53 -0.49,0.62 -1.23,0.96 -2.14,1 -1.18,0.04 -2.45,0.07 -4,0.07 -0.99,0 -1.99,-0.01 -2.98,-0.02 -1,-0.01 -1.99,-0.02 -2.99,-0.02 h -0.5 v 0.01 c -0.76,0 -1.53,0.01 -2.29,0.01 -0.95,0.03 -1.88,0.03 -2.81,0.03 z"
   style="fill:#4d4d4d;fill-opacity:1" />
</svg>